<?xml version="1.0" encoding="UTF-8" standalone="no"?>
<!-- Generator: Adobe Illustrator 12.0.1, SVG Export Plug-In . SVG Version: 6.00 Build 51448)  -->
<svg
   xmlns:dc="http://purl.org/dc/elements/1.1/"
   xmlns:cc="http://creativecommons.org/ns#"
   xmlns:rdf="http://www.w3.org/1999/02/22-rdf-syntax-ns#"
   xmlns:svg="http://www.w3.org/2000/svg"
   xmlns="http://www.w3.org/2000/svg"
   xmlns:sodipodi="http://sodipodi.sourceforge.net/DTD/sodipodi-0.dtd"
   xmlns:inkscape="http://www.inkscape.org/namespaces/inkscape"
   version="1.1"
   id="Layer_1"
   width="451.294"
   height="359.031"
   viewBox="0 0 451.294 359.031"
   style="overflow:visible;enable-background:new 0 0 451.294 359.031;"
   xml:space="preserve"
   sodipodi:version="0.32"
   inkscape:version="0.46"
   sodipodi:docname="Amylopektin Sessel.svg"
   inkscape:output_extension="org.inkscape.output.svg.inkscape"><metadata
   id="metadata232"><rdf:RDF><cc:Work
       rdf:about=""><dc:format>image/svg+xml</dc:format><dc:type
         rdf:resource="http://purl.org/dc/dcmitype/StillImage" /></cc:Work></rdf:RDF></metadata><defs
   id="defs230"><inkscape:perspective
   sodipodi:type="inkscape:persp3d"
   inkscape:vp_x="0 : 179.5155 : 1"
   inkscape:vp_y="0 : 1000 : 0"
   inkscape:vp_z="451.29401 : 179.5155 : 1"
   inkscape:persp3d-origin="225.647 : 119.677 : 1"
   id="perspective234" />
	

	
	

	

	
	

	
	

	

	
	

	

	
	

	

	
	

	

	
	

	
	

	

	

	
	

	

	
	

	
	

	
</defs><sodipodi:namedview
   inkscape:window-height="675"
   inkscape:window-width="661"
   inkscape:pageshadow="2"
   inkscape:pageopacity="0.0"
   guidetolerance="10.0"
   gridtolerance="10.0"
   objecttolerance="10.0"
   borderopacity="1.0"
   bordercolor="#666666"
   pagecolor="#ffffff"
   id="base"
   showgrid="false"
   inkscape:zoom="1.2054226"
   inkscape:cx="225.647"
   inkscape:cy="179.5155"
   inkscape:window-x="132"
   inkscape:window-y="132"
   inkscape:current-layer="Layer_1" />
<path
   id="path5"
   d="M 120.53235,150.3073 C 120.53235,147.59695 121.26005,145.47655 122.71545,143.9442 C 124.17085,142.4109 126.04995,141.64425 128.3518,141.64425 C 129.85945,141.64425 131.21795,142.0043 132.42825,142.7244 C 133.63855,143.44545 134.561,144.44865 135.19655,145.73685 C 135.8321,147.02505 136.14845,148.48615 136.14845,150.11825 C 136.14845,151.7741 135.81405,153.25515 135.1462,154.5614 C 134.47835,155.86765 133.5312,156.85755 132.3057,157.5292 C 131.0802,158.20085 129.75875,158.53715 128.3404,158.53715 C 126.8033,158.53715 125.4296,158.1657 124.2193,157.42375 C 123.009,156.6818 122.09225,155.6672 121.4681,154.38375 C 120.84395,153.1003 120.53235,151.7399 120.53235,150.3073 z M 122.75915,150.33485 C 122.75915,152.30135 123.2883,153.8508 124.3466,154.9832 C 125.4049,156.1156 126.733,156.68085 128.329,156.68085 C 129.9554,156.68085 131.29395,156.10895 132.3456,154.9661 C 133.3963,153.82325 133.92165,152.2016 133.92165,150.10115 C 133.92165,148.77305 133.69745,147.6131 133.2481,146.62225 C 132.79875,145.6314 132.14135,144.86285 131.2759,144.31755 C 130.41045,143.77225 129.43955,143.4996 128.3632,143.4996 C 126.8337,143.4996 125.517,144.02495 124.41405,145.0747 C 123.3111,146.12445 122.75915,147.87815 122.75915,150.33485 z"
   style="fill:#231f20" />
<path
   style="fill:#231f20"
   d="M 133.30415,159.48905 L 134.68165,158.68155 L 147.98165,181.6706 L 147.17415,181.9081 L 145.36915,180.4356 L 133.30415,159.48905 z"
   id="polygon7" />
<path
   style="fill:#231f20"
   d="M 114.20915,176.49405 L 110.74165,172.1706 L 112.92665,169.0831 L 145.36915,180.4356 L 147.17415,181.9081 L 146.36665,182.5731 L 114.20915,176.49405 z"
   id="polygon9" />
<path
   style="fill:#231f20"
   d="M 91.93165,159.86905 L 91.93165,159.01405 L 92.26415,158.06405 L 118.15165,151.12905 L 118.53165,152.6956 L 91.93165,159.86905 z"
   id="polygon11" />
<path
   style="fill:#231f20"
   d="M 77.91915,183.47655 L 74.35665,181.9081 L 76.58915,178.7731 L 112.92665,169.0831 L 110.74165,172.1706 L 111.21665,174.5456 L 77.91915,183.47655 z"
   id="polygon13" />
<path
   style="fill:#231f20"
   d="M 55.07165,150.22655 L 55.49915,149.27655 L 57.39915,150.60655 L 76.58915,178.7731 L 74.35665,181.9081 L 69.46415,180.05655 L 55.07165,150.22655 z"
   id="polygon15" />
<path
   style="fill:#231f20"
   d="M 89.98415,157.6831 L 91.93165,159.01405 L 91.93165,159.86905 L 57.39915,150.60655 L 55.49915,149.27655 L 55.49915,148.4206 L 89.98415,157.6831 z"
   id="polygon17" />
<path
   id="path21"
   d="M 106.21775,213.78155 L 106.21775,197.45295 L 108.3847,197.45295 L 108.3847,204.1628 L 116.83115,204.1628 L 116.83115,197.45295 L 118.9981,197.45295 L 118.9981,213.78155 L 116.83115,213.78155 L 116.83115,206.09225 L 108.3847,206.09225 L 108.3847,213.78155 L 106.21775,213.78155 z"
   style="fill:#231f20" /><path
   id="path23"
   d="M 121.94025,205.8348 C 121.94025,203.12445 122.66795,201.00405 124.12335,199.4717 C 125.57875,197.9384 127.45785,197.17175 129.7597,197.17175 C 131.26735,197.17175 132.62585,197.5318 133.83615,198.2519 C 135.04645,198.97295 135.9689,199.97615 136.60445,201.26435 C 137.24,202.55255 137.55635,204.01365 137.55635,205.64575 C 137.55635,207.3016 137.22195,208.78265 136.5541,210.0889 C 135.88625,211.39515 134.9391,212.38505 133.7136,213.0567 C 132.4881,213.72835 131.16665,214.06465 129.7483,214.06465 C 128.2112,214.06465 126.8375,213.6932 125.6272,212.95125 C 124.4169,212.2093 123.50015,211.1947 122.876,209.91125 C 122.25185,208.6278 121.94025,207.26835 121.94025,205.8348 z M 124.16705,205.86235 C 124.16705,207.82885 124.6962,209.3783 125.7545,210.5107 C 126.8128,211.6431 128.1409,212.20835 129.7369,212.20835 C 131.3633,212.20835 132.70185,211.63645 133.7535,210.4936 C 134.8042,209.35075 135.32955,207.7291 135.32955,205.62865 C 135.32955,204.30055 135.10535,203.1406 134.656,202.14975 C 134.20665,201.1589 133.54925,200.39035 132.6838,199.84505 C 131.81835,199.29975 130.84745,199.0271 129.7711,199.0271 C 128.2416,199.0271 126.9249,199.55245 125.82195,200.6022 C 124.719,201.65195 124.16705,203.40565 124.16705,205.86235 z"
   style="fill:#231f20" />
<path
   style="fill:#231f20"
   d="M 125.37165,195.82655 L 123.94665,196.6331 L 111.21665,174.5456 L 110.74165,172.1706 L 114.20915,176.49405 L 125.37165,195.82655 z"
   id="polygon25" />
<path
   id="path29"
   d="M 11.28235,160.0448 C 11.28235,157.33445 12.01005,155.21405 13.46545,153.6817 C 14.92085,152.1484 16.79995,151.38175 19.1018,151.38175 C 20.60945,151.38175 21.96795,151.7418 23.17825,152.4619 C 24.38855,153.18295 25.311,154.18615 25.94655,155.47435 C 26.5821,156.76255 26.89845,158.22365 26.89845,159.85575 C 26.89845,161.5116 26.56405,162.99265 25.8962,164.2989 C 25.22835,165.60515 24.2812,166.59505 23.0557,167.2667 C 21.8302,167.93835 20.50875,168.27465 19.0904,168.27465 C 17.5533,168.27465 16.1796,167.9032 14.9693,167.16125 C 13.759,166.4193 12.84225,165.4047 12.2181,164.12125 C 11.59395,162.8378 11.28235,161.4774 11.28235,160.0448 z M 13.50915,160.07235 C 13.50915,162.03885 14.0383,163.5883 15.0966,164.7207 C 16.1549,165.8531 17.483,166.41835 19.079,166.41835 C 20.7054,166.41835 22.04395,165.84645 23.0956,164.7036 C 24.1463,163.56075 24.67165,161.9391 24.67165,159.83865 C 24.67165,158.51055 24.44745,157.3506 23.9981,156.35975 C 23.54875,155.3689 22.89135,154.60035 22.0259,154.05505 C 21.16045,153.50975 20.18955,153.2371 19.1132,153.2371 C 17.5837,153.2371 16.267,153.76245 15.16405,154.8122 C 14.0611,155.86195 13.50915,157.61565 13.50915,160.07235 z"
   style="fill:#231f20" />
<path
   style="fill:#231f20"
   d="M 28.89915,157.2081 L 28.47165,155.64155 L 55.49915,148.4206 L 55.49915,149.27655 L 55.07165,150.22655 L 28.89915,157.2081 z"
   id="polygon31" />
<path
   id="path35"
   d="M 29.0293,186.4206 L 29.0293,170.092 L 31.19625,170.092 L 31.19625,176.80185 L 39.6427,176.80185 L 39.6427,170.092 L 41.80965,170.092 L 41.80965,186.4206 L 39.6427,186.4206 L 39.6427,178.7313 L 31.19625,178.7313 L 31.19625,186.4206 L 29.0293,186.4206 z"
   style="fill:#231f20" /><path
   id="path37"
   d="M 44.75275,178.47385 C 44.75275,175.7635 45.48045,173.6431 46.93585,172.11075 C 48.39125,170.57745 50.27035,169.8108 52.5722,169.8108 C 54.07985,169.8108 55.43835,170.17085 56.64865,170.89095 C 57.85895,171.612 58.7814,172.6152 59.41695,173.9034 C 60.0525,175.1916 60.36885,176.6527 60.36885,178.2848 C 60.36885,179.94065 60.03445,181.4217 59.3666,182.72795 C 58.69875,184.0342 57.7516,185.0241 56.5261,185.69575 C 55.3006,186.3674 53.97915,186.7037 52.5608,186.7037 C 51.0237,186.7037 49.65,186.33225 48.4397,185.5903 C 47.2294,184.84835 46.31265,183.83375 45.6885,182.5503 C 45.06435,181.26685 44.75275,179.9074 44.75275,178.47385 z M 46.97955,178.5014 C 46.97955,180.4679 47.5087,182.01735 48.567,183.14975 C 49.6253,184.28215 50.9534,184.8474 52.5494,184.8474 C 54.1758,184.8474 55.51435,184.2755 56.566,183.13265 C 57.6167,181.9898 58.14205,180.36815 58.14205,178.2677 C 58.14205,176.9396 57.91785,175.77965 57.4685,174.7888 C 57.01915,173.79795 56.36175,173.0294 55.4963,172.4841 C 54.63085,171.9388 53.65995,171.66615 52.5836,171.66615 C 51.0541,171.66615 49.7374,172.1915 48.63445,173.24125 C 47.5315,174.291 46.97955,176.0447 46.97955,178.5014 z"
   style="fill:#231f20" />
<path
   style="fill:#231f20"
   d="M 62.33915,180.29405 L 62.67165,178.67905 L 69.46415,180.05655 L 74.35665,181.9081 L 77.91915,183.47655 L 62.33915,180.29405 z"
   id="polygon39" />
<path
   style="fill:#231f20"
   d="M 79.39165,142.29405 L 81.24415,142.10405 L 92.26415,158.06405 L 91.93165,159.01405 L 89.98415,157.6831 L 79.39165,142.29405 z"
   id="polygon41" />
<path
   id="path45"
   d="M 79.63485,126.60385 C 79.63485,123.8935 80.36255,121.7731 81.81795,120.24075 C 83.27335,118.70745 85.15245,117.9408 87.4543,117.9408 C 88.96195,117.9408 90.32045,118.30085 91.53075,119.02095 C 92.74105,119.742 93.6635,120.7452 94.29905,122.0334 C 94.9346,123.3216 95.25095,124.7827 95.25095,126.4148 C 95.25095,128.07065 94.91655,129.5517 94.2487,130.85795 C 93.58085,132.1642 92.6337,133.1541 91.4082,133.82575 C 90.1827,134.4974 88.86125,134.8337 87.4429,134.8337 C 85.9058,134.8337 84.5321,134.46225 83.3218,133.7203 C 82.1115,132.97835 81.19475,131.96375 80.5706,130.6803 C 79.94645,129.39685 79.63485,128.0374 79.63485,126.60385 z M 81.86165,126.63235 C 81.86165,128.59885 82.3908,130.1483 83.4491,131.2807 C 84.5074,132.4131 85.8355,132.97835 87.4315,132.97835 C 89.0579,132.97835 90.39645,132.40645 91.4481,131.2636 C 92.4988,130.12075 93.02415,128.4991 93.02415,126.39865 C 93.02415,125.07055 92.79995,123.9106 92.3506,122.91975 C 91.90125,121.9289 91.24385,121.16035 90.3784,120.61505 C 89.51295,120.06975 88.54205,119.7971 87.4657,119.7971 C 85.9362,119.7971 84.6195,120.32245 83.51655,121.3722 C 82.4136,122.42195 81.86165,124.17565 81.86165,126.63235 z"
   style="fill:#231f20" /><path
   id="path47"
   d="M 98.1114,134.55155 L 98.1114,118.22295 L 100.27835,118.22295 L 100.27835,124.9328 L 108.7248,124.9328 L 108.7248,118.22295 L 110.89175,118.22295 L 110.89175,134.55155 L 108.7248,134.55155 L 108.7248,126.86225 L 100.27835,126.86225 L 100.27835,134.55155 L 98.1114,134.55155 z"
   style="fill:#231f20" />
<path
   style="fill:#231f20"
   d="M 82.24165,135.64405 L 83.71415,136.3081 L 81.05415,142.53155 L 79.58165,141.86655 L 82.24165,135.64405 z"
   id="polygon49" />
<path
   style="fill:#231f20"
   d="M 147.98165,209.79155 L 146.36665,209.79155 L 146.36665,182.5731 L 147.17415,181.9081 L 147.98165,181.6706 L 147.98165,209.79155 z"
   id="polygon51" />
<path
   id="path55"
   d="M 248.6408,210.8698 C 248.6408,208.15945 249.3685,206.03905 250.82295,204.5067 C 252.2793,202.9734 254.15745,202.20675 256.46025,202.20675 C 257.96695,202.20675 259.3264,202.5668 260.5367,203.2869 C 261.74605,204.00795 262.6685,205.01115 263.30405,206.29935 C 263.9396,207.58755 264.2569,209.04865 264.2569,210.68075 C 264.2569,212.3366 263.9225,213.81765 263.2537,215.1239 C 262.5849,216.43015 261.6387,217.42005 260.41415,218.0917 C 259.1877,218.76335 257.86625,219.09965 256.44885,219.09965 C 254.9108,219.09965 253.53805,218.7282 252.32775,217.98625 C 251.1165,217.2443 250.19975,216.2297 249.57655,214.94625 C 248.95335,213.6628 248.6408,212.3024 248.6408,210.8698 z M 250.86665,210.89735 C 250.86665,212.86385 251.3958,214.4133 252.45315,215.5457 C 253.5124,216.67715 254.83955,217.24335 256.4365,217.24335 C 258.06195,217.24335 259.40145,216.67145 260.45215,215.5286 C 261.50285,214.38575 262.02915,212.7641 262.02915,210.66365 C 262.02915,209.33555 261.80495,208.1756 261.35465,207.18475 C 260.90435,206.1939 260.2479,205.42535 259.3834,204.88005 C 258.51795,204.33475 257.5461,204.0621 256.4707,204.0621 C 254.94025,204.0621 253.6245,204.58745 252.5206,205.6372 C 251.41765,206.68695 250.86665,208.44065 250.86665,210.89735 z"
   style="fill:#231f20" />
<path
   style="fill:#231f20"
   d="M 261.41165,220.05155 L 262.78915,219.24405 L 276.08915,242.28155 L 275.28165,242.51905 L 273.47665,240.9981 L 261.41165,220.05155 z"
   id="polygon57" />
<path
   style="fill:#231f20"
   d="M 242.31665,237.10405 L 238.84915,232.7331 L 241.03415,229.6456 L 273.47665,240.9981 L 275.28165,242.51905 L 274.47415,243.1831 L 242.31665,237.10405 z"
   id="polygon59" />
<path
   style="fill:#231f20"
   d="M 219.99165,220.43155 L 219.99165,219.6231 L 220.41915,218.6731 L 246.21165,211.73905 L 246.63915,213.30655 L 219.99165,220.43155 z"
   id="polygon61" />
<path
   style="fill:#231f20"
   d="M 206.02665,244.03905 L 202.46415,242.51905 L 204.69665,239.3831 L 241.03415,229.6456 L 238.84915,232.7331 L 239.32415,235.1081 L 206.02665,244.03905 z"
   id="polygon63" />
<path
   style="fill:#231f20"
   d="M 183.17915,210.78905 L 183.60665,209.83905 L 185.50665,211.16905 L 204.69665,239.3831 L 202.46415,242.51905 L 197.52415,240.66655 L 183.17915,210.78905 z"
   id="polygon65" />
<path
   style="fill:#231f20"
   d="M 218.32915,218.34155 L 219.99165,219.6231 L 219.99165,220.43155 L 185.50665,211.16905 L 183.60665,209.83905 L 183.60665,209.03155 L 218.32915,218.34155 z"
   id="polygon67" />
<path
   id="path71"
   d="M 234.3243,274.39155 L 234.3243,258.06295 L 236.49125,258.06295 L 236.49125,264.7728 L 244.9377,264.7728 L 244.9377,258.06295 L 247.10465,258.06295 L 247.10465,274.39155 L 244.9377,274.39155 L 244.9377,266.70225 L 236.49125,266.70225 L 236.49125,274.39155 L 234.3243,274.39155 z"
   style="fill:#231f20" /><path
   id="path73"
   d="M 250.04775,266.4448 C 250.04775,263.73445 250.77545,261.61405 252.23085,260.0817 C 253.68625,258.5484 255.56535,257.78175 257.8672,257.78175 C 259.37485,257.78175 260.73335,258.1418 261.94365,258.8619 C 263.15395,259.58295 264.0764,260.58615 264.711,261.87435 C 265.34655,263.1616 265.66385,264.62365 265.66385,266.25575 C 265.66385,267.9116 265.32945,269.39265 264.66065,270.6989 C 263.9928,272.00515 263.0466,272.99505 261.8211,273.6667 C 260.5956,274.33835 259.27415,274.67465 257.8558,274.67465 C 256.3187,274.67465 254.945,274.3032 253.7347,273.56125 C 252.5244,272.8193 251.60765,271.8047 250.9835,270.52125 C 250.35935,269.2359 250.04775,267.8774 250.04775,266.4448 z M 252.27455,266.47235 C 252.27455,268.43885 252.8037,269.9883 253.862,271.1207 C 254.9203,272.2531 256.2484,272.81835 257.8444,272.81835 C 259.4708,272.81835 260.80935,272.24645 261.861,271.1036 C 262.91075,269.96075 263.43705,268.3391 263.43705,266.23865 C 263.43705,264.91055 263.21285,263.7506 262.76255,262.75975 C 262.3132,261.7689 261.65675,261.00035 260.7913,260.45505 C 259.92585,259.90975 258.95495,259.6371 257.8786,259.6371 C 256.3491,259.6371 255.0324,260.16245 253.92945,261.2122 C 252.8265,262.26195 252.27455,264.01565 252.27455,266.47235 z"
   style="fill:#231f20" />
<path
   style="fill:#231f20"
   d="M 253.47915,256.38905 L 252.05415,257.1956 L 239.32415,235.1081 L 238.84915,232.7331 L 242.31665,237.10405 L 253.47915,256.38905 z"
   id="polygon75" />
<path
   id="path79"
   d="M 139.38985,220.65385 C 139.38985,217.9435 140.11755,215.8231 141.57295,214.29075 C 143.02835,212.75745 144.90745,211.9908 147.2093,211.9908 C 148.71695,211.9908 150.07545,212.35085 151.28575,213.07095 C 152.49605,213.792 153.4185,214.7952 154.05405,216.0834 C 154.6896,217.3716 155.00595,218.8327 155.00595,220.4648 C 155.00595,222.12065 154.67155,223.6017 154.0037,224.90795 C 153.33585,226.2142 152.3887,227.2041 151.1632,227.87575 C 149.9377,228.5474 148.61625,228.8837 147.1979,228.8837 C 145.6608,228.8837 144.2871,228.51225 143.0768,227.7703 C 141.8665,227.02835 140.94975,226.01375 140.3256,224.7303 C 139.70145,223.44685 139.38985,222.0874 139.38985,220.65385 z M 141.61665,220.68235 C 141.61665,222.64885 142.1458,224.1983 143.2041,225.3307 C 144.2624,226.4631 145.5905,227.02835 147.1865,227.02835 C 148.8129,227.02835 150.15145,226.45645 151.2031,225.3136 C 152.2538,224.17075 152.77915,222.5491 152.77915,220.44865 C 152.77915,219.12055 152.55495,217.9606 152.1056,216.96975 C 151.65625,215.9789 150.99885,215.21035 150.1334,214.66505 C 149.26795,214.11975 148.29705,213.8471 147.2207,213.8471 C 145.6912,213.8471 144.3745,214.37245 143.27155,215.4222 C 142.1686,216.47195 141.61665,218.22565 141.61665,220.68235 z"
   style="fill:#231f20" />
<path
   style="fill:#231f20"
   d="M 156.95915,217.81905 L 156.57915,216.25155 L 183.60665,209.03155 L 183.60665,209.83905 L 183.17915,210.78905 L 156.95915,217.81905 z"
   id="polygon81" />
<path
   id="path85"
   d="M 157.1368,246.9831 L 157.1368,230.6545 L 159.30375,230.6545 L 159.30375,237.36435 L 167.7502,237.36435 L 167.7502,230.6545 L 169.91715,230.6545 L 169.91715,246.9831 L 167.7502,246.9831 L 167.7502,239.2938 L 159.30375,239.2938 L 159.30375,246.9831 L 157.1368,246.9831 z"
   style="fill:#231f20" /><path
   id="path87"
   d="M 172.86025,239.03635 C 172.86025,236.326 173.58795,234.2056 175.04335,232.67325 C 176.49875,231.13995 178.37785,230.3733 180.6797,230.3733 C 182.18735,230.3733 183.54585,230.73335 184.75615,231.45345 C 185.96645,232.1745 186.8889,233.1777 187.52445,234.4659 C 188.16,235.7541 188.47635,237.2152 188.47635,238.8473 C 188.47635,240.50315 188.14195,241.9842 187.4741,243.29045 C 186.80625,244.5967 185.8591,245.5866 184.6336,246.25825 C 183.4081,246.9299 182.08665,247.2662 180.6683,247.2662 C 179.1312,247.2662 177.7575,246.89475 176.5472,246.1528 C 175.3369,245.41085 174.42015,244.39625 173.796,243.1128 C 173.17185,241.82935 172.86025,240.4699 172.86025,239.03635 z M 175.08705,239.0639 C 175.08705,241.0304 175.6162,242.57985 176.6745,243.71225 C 177.7328,244.84465 179.0609,245.4099 180.6569,245.4099 C 182.2833,245.4099 183.62185,244.838 184.6735,243.69515 C 185.7242,242.5523 186.24955,240.93065 186.24955,238.8302 C 186.24955,237.5021 186.02535,236.34215 185.576,235.3513 C 185.12665,234.36045 184.46925,233.5919 183.6038,233.0466 C 182.73835,232.5013 181.76745,232.22865 180.6911,232.22865 C 179.1616,232.22865 177.8449,232.754 176.74195,233.80375 C 175.639,234.8535 175.08705,236.6072 175.08705,239.0639 z"
   style="fill:#231f20" />
<path
   style="fill:#231f20"
   d="M 190.44665,240.85655 L 190.77915,239.28905 L 197.52415,240.66655 L 202.46415,242.51905 L 206.02665,244.03905 L 190.44665,240.85655 z"
   id="polygon89" />
<path
   style="fill:#231f20"
   d="M 200.27915,186.99155 L 202.03665,186.8956 L 220.41915,218.6731 L 219.99165,219.6231 L 218.32915,218.34155 L 200.27915,186.99155 z"
   id="polygon91" />
<path
   style="fill:#231f20"
   d="M 214.81415,152.6481 L 216.28665,153.26655 L 202.03665,186.8956 L 200.27915,186.99155 L 214.81415,152.6481 z"
   id="polygon93" />
<path
   style="fill:#231f20"
   d="M 276.08915,270.40155 L 274.47415,270.40155 L 274.47415,243.1831 L 275.28165,242.51905 L 276.08915,242.28155 L 276.08915,270.40155 z"
   id="polygon95" />
<path
   id="path99"
   d="M 376.69985,271.47885 C 376.69985,268.7685 377.42755,266.6481 378.88295,265.11575 C 380.33835,263.58245 382.21745,262.8158 384.5193,262.8158 C 386.02695,262.8158 387.38545,263.17585 388.59575,263.89595 C 389.80605,264.617 390.7285,265.6202 391.3631,266.9084 C 391.99865,268.19565 392.31595,269.6577 392.31595,271.2898 C 392.31595,272.94565 391.98155,274.4267 391.31275,275.73295 C 390.6449,277.0392 389.6987,278.0291 388.4732,278.70075 C 387.2477,279.3724 385.92625,279.7087 384.5079,279.7087 C 382.9708,279.7087 381.5971,279.33725 380.3868,278.5953 C 379.1765,277.85335 378.25975,276.83875 377.6356,275.5553 C 377.0124,274.2709 376.69985,272.9124 376.69985,271.47885 z M 378.92665,271.50735 C 378.92665,273.47385 379.4558,275.0233 380.5141,276.1557 C 381.5724,277.2881 382.9005,277.85335 384.4965,277.85335 C 386.1229,277.85335 387.46145,277.28145 388.5131,276.1386 C 389.56285,274.99575 390.08915,273.3741 390.08915,271.27365 C 390.08915,269.94555 389.86495,268.7856 389.41465,267.79475 C 388.9653,266.8039 388.30885,266.03535 387.4434,265.49005 C 386.57795,264.94475 385.60705,264.6721 384.5307,264.6721 C 383.0012,264.6721 381.6845,265.19745 380.58155,266.2472 C 379.4786,267.29695 378.92665,269.05065 378.92665,271.50735 z"
   style="fill:#231f20" />
<path
   style="fill:#231f20"
   d="M 389.47165,280.6606 L 390.89665,279.85405 L 404.19665,302.89155 L 403.38915,303.08155 L 401.58415,301.6081 L 389.47165,280.6606 z"
   id="polygon101" />
<path
   style="fill:#231f20"
   d="M 370.37665,297.66655 L 366.95665,293.34405 L 369.09415,290.25655 L 401.58415,301.6081 L 403.38915,303.08155 L 402.58165,303.7456 L 370.37665,297.66655 z"
   id="polygon103" />
<path
   style="fill:#231f20"
   d="M 348.09915,281.04155 L 348.09915,280.1856 L 348.47915,279.2356 L 374.31915,272.3481 L 374.74665,273.91655 L 348.09915,281.04155 z"
   id="polygon105" />
<path
   style="fill:#231f20"
   d="M 334.08665,304.6481 L 330.52415,303.08155 L 332.80415,299.99405 L 369.09415,290.25655 L 366.95665,293.34405 L 367.38415,295.71905 L 334.08665,304.6481 z"
   id="polygon107" />
<path
   style="fill:#231f20"
   d="M 311.23915,271.3981 L 311.71415,270.4481 L 313.56665,271.77905 L 332.80415,299.99405 L 330.52415,303.08155 L 325.63165,301.27655 L 311.23915,271.3981 z"
   id="polygon109" />
<path
   style="fill:#231f20"
   d="M 346.43665,278.90405 L 348.09915,280.1856 L 348.09915,281.04155 L 313.56665,271.77905 L 311.71415,270.4481 L 311.71415,269.59405 L 346.43665,278.90405 z"
   id="polygon111" />
<path
   id="path115"
   d="M 362.3843,334.95405 L 362.3843,318.62545 L 364.55125,318.62545 L 364.55125,325.3353 L 372.9977,325.3353 L 372.9977,318.62545 L 375.16465,318.62545 L 375.16465,334.95405 L 372.9977,334.95405 L 372.9977,327.26475 L 364.55125,327.26475 L 364.55125,334.95405 L 362.3843,334.95405 z"
   style="fill:#231f20" /><path
   id="path117"
   d="M 378.10775,327.0073 C 378.10775,324.29695 378.83545,322.17655 380.2918,320.6442 C 381.74625,319.1109 383.6263,318.34425 385.9272,318.34425 C 387.4358,318.34425 388.7943,318.7043 390.00365,319.4244 C 391.21395,320.14545 392.13735,321.14865 392.77195,322.43685 C 393.40655,323.72505 393.72385,325.18615 393.72385,326.81825 C 393.72385,328.4741 393.38945,329.95515 392.7216,331.2614 C 392.05375,332.56765 391.1066,333.55755 389.8811,334.2292 C 388.65655,334.90085 387.33415,335.23715 385.9158,335.23715 C 384.37965,335.23715 383.005,334.8657 381.7947,334.12375 C 380.5844,333.3818 379.6686,332.3672 379.0435,331.08375 C 378.4184,329.8003 378.10775,328.4399 378.10775,327.0073 z M 380.33455,327.03485 C 380.33455,329.00135 380.8637,330.5508 381.92295,331.6832 C 382.9803,332.81465 384.30935,333.38085 385.9044,333.38085 C 387.53175,333.38085 388.86935,332.80895 389.92195,331.6661 C 390.9717,330.52325 391.49705,328.9016 391.49705,326.80115 C 391.49705,325.47305 391.27285,324.3131 390.8235,323.32225 C 390.37415,322.3314 389.71675,321.56285 388.8513,321.01755 C 387.9868,320.47225 387.0159,320.1996 385.9386,320.1996 C 384.41005,320.1996 383.0924,320.72495 381.9904,321.7747 C 380.88555,322.82445 380.33455,324.57815 380.33455,327.03485 z"
   style="fill:#231f20" />
<path
   style="fill:#231f20"
   d="M 381.53915,316.9981 L 380.16165,317.80655 L 367.38415,295.71905 L 366.95665,293.34405 L 370.37665,297.66655 L 381.53915,316.9981 z"
   id="polygon119" />
<path
   id="path123"
   d="M 267.44985,281.21635 C 267.44985,278.506 268.17755,276.3856 269.63295,274.85325 C 271.08835,273.31995 272.96745,272.5533 275.2693,272.5533 C 276.77695,272.5533 278.13545,272.91335 279.34575,273.63345 C 280.55605,274.3545 281.4785,275.3577 282.1131,276.6459 C 282.74865,277.93315 283.06595,279.3952 283.06595,281.0273 C 283.06595,282.68315 282.73155,284.1642 282.06275,285.47045 C 281.3949,286.7767 280.4487,287.7666 279.2232,288.43825 C 277.9977,289.1099 276.67625,289.4462 275.2579,289.4462 C 273.7208,289.4462 272.3471,289.07475 271.1368,288.3328 C 269.9265,287.59085 269.00975,286.57625 268.3856,285.2928 C 267.7624,284.0084 267.44985,282.6499 267.44985,281.21635 z M 269.67665,281.24485 C 269.67665,283.21135 270.2058,284.7608 271.2641,285.8932 C 272.3224,287.0256 273.6505,287.59085 275.2465,287.59085 C 276.8729,287.59085 278.21145,287.01895 279.2631,285.8761 C 280.31285,284.73325 280.83915,283.1116 280.83915,281.01115 C 280.83915,279.68305 280.61495,278.5231 280.16465,277.53225 C 279.7153,276.5414 279.05885,275.77285 278.1934,275.22755 C 277.32795,274.68225 276.35705,274.4096 275.2807,274.4096 C 273.7512,274.4096 272.4345,274.93495 271.33155,275.9847 C 270.2286,277.03445 269.67665,278.78815 269.67665,281.24485 z"
   style="fill:#231f20" />
<path
   style="fill:#231f20"
   d="M 285.06665,278.42905 L 284.63915,276.8606 L 311.71415,269.59405 L 311.71415,270.4481 L 311.23915,271.3981 L 285.06665,278.42905 z"
   id="polygon125" />
<path
   id="path129"
   d="M 285.1968,307.59405 L 285.1968,291.26545 L 287.36375,291.26545 L 287.36375,297.9753 L 295.8102,297.9753 L 295.8102,291.26545 L 297.97715,291.26545 L 297.97715,307.59405 L 295.8102,307.59405 L 295.8102,299.90475 L 287.36375,299.90475 L 287.36375,307.59405 L 285.1968,307.59405 z"
   style="fill:#231f20" /><path
   id="path131"
   d="M 300.92025,299.6473 C 300.92025,296.93695 301.64795,294.81655 303.1043,293.2842 C 304.55875,291.7509 306.4388,290.98425 308.7397,290.98425 C 310.2483,290.98425 311.6068,291.3443 312.81615,292.0644 C 314.02645,292.78545 314.94985,293.78865 315.58445,295.07685 C 316.21905,296.36505 316.53635,297.82615 316.53635,299.45825 C 316.53635,301.1141 316.20195,302.59515 315.5341,303.9014 C 314.86625,305.20765 313.9191,306.19755 312.6936,306.8692 C 311.46905,307.54085 310.14665,307.87715 308.7283,307.87715 C 307.19215,307.87715 305.8175,307.5057 304.6072,306.76375 C 303.3969,306.0218 302.4811,305.0072 301.856,303.72375 C 301.2309,302.4403 300.92025,301.08085 300.92025,299.6473 z M 303.14705,299.67485 C 303.14705,301.64135 303.6762,303.1908 304.73545,304.3232 C 305.7928,305.45465 307.12185,306.02085 308.7169,306.02085 C 310.34425,306.02085 311.68185,305.44895 312.73445,304.3061 C 313.7842,303.16325 314.30955,301.5416 314.30955,299.44115 C 314.30955,298.11305 314.08535,296.9531 313.636,295.96225 C 313.18665,294.9714 312.52925,294.20285 311.6638,293.65755 C 310.7993,293.11225 309.8284,292.8396 308.7511,292.8396 C 307.22255,292.8396 305.9049,293.36495 304.8029,294.4147 C 303.69805,295.46445 303.14705,297.21815 303.14705,299.67485 z"
   style="fill:#231f20" />
<path
   style="fill:#231f20"
   d="M 318.55415,301.46655 L 318.83915,299.8981 L 325.63165,301.27655 L 330.52415,303.08155 L 334.08665,304.6481 L 318.55415,301.46655 z"
   id="polygon133" />
<path
   style="fill:#231f20"
   d="M 328.33915,247.55405 L 330.19165,247.55405 L 348.47915,279.2356 L 348.09915,280.1856 L 346.43665,278.90405 L 328.33915,247.55405 z"
   id="polygon135" />
<path
   id="path139"
   d="M 340.26735,215.95135 C 340.26735,213.241 340.99505,211.1206 342.4514,209.58825 C 343.90585,208.05495 345.7859,207.2883 348.0868,207.2883 C 349.5954,207.2883 350.9539,207.64835 352.16325,208.36845 C 353.37355,209.0895 354.29695,210.0927 354.93155,211.3809 C 355.56615,212.6691 355.88345,214.1302 355.88345,215.7623 C 355.88345,217.41815 355.54905,218.8992 354.8812,220.20545 C 354.21335,221.5117 353.2662,222.5016 352.0407,223.17325 C 350.81615,223.8449 349.49375,224.1812 348.0754,224.1812 C 346.53925,224.1812 345.1646,223.80975 343.9543,223.0678 C 342.744,222.32585 341.8282,221.31125 341.2031,220.0278 C 340.578,218.74435 340.26735,217.3849 340.26735,215.95135 z M 342.49415,215.9789 C 342.49415,217.9454 343.0233,219.49485 344.08255,220.62725 C 345.1399,221.7587 346.46895,222.3249 348.064,222.3249 C 349.69135,222.3249 351.02895,221.753 352.08155,220.61015 C 353.1313,219.4673 353.65665,217.84565 353.65665,215.7452 C 353.65665,214.4171 353.43245,213.25715 352.9831,212.2663 C 352.53375,211.27545 351.87635,210.5069 351.0109,209.9616 C 350.1464,209.4163 349.1755,209.14365 348.0982,209.14365 C 346.56965,209.14365 345.252,209.669 344.15,210.71875 C 343.04515,211.76945 342.49415,213.52315 342.49415,215.9789 z"
   style="fill:#231f20" /><path
   id="path141"
   d="M 358.7439,223.8981 L 358.7439,207.5695 L 360.91085,207.5695 L 360.91085,214.27935 L 369.3573,214.27935 L 369.3573,207.5695 L 371.52425,207.5695 L 371.52425,223.8981 L 369.3573,223.8981 L 369.3573,216.2088 L 360.91085,216.2088 L 360.91085,223.8981 L 358.7439,223.8981 z"
   style="fill:#231f20" />
<path
   style="fill:#231f20"
   d="M 341.78165,224.27905 L 343.15915,225.0856 L 330.19165,247.55405 L 328.33915,247.55405 L 341.78165,224.27905 z"
   id="polygon143" />
<path
   style="fill:#231f20"
   d="M 404.19665,331.0106 L 402.58165,331.0106 L 402.58165,303.7456 L 403.38915,303.08155 L 404.19665,302.89155 L 404.19665,331.0106 z"
   id="polygon145" />
<path
   id="path149"
   d="M 395.55735,341.82635 C 395.55735,339.116 396.28505,336.9956 397.74045,335.46325 C 399.19585,333.92995 401.07495,333.1633 403.3768,333.1633 C 404.88445,333.1633 406.24295,333.52335 407.45325,334.24345 C 408.66355,334.9645 409.586,335.9677 410.2206,337.2559 C 410.85615,338.54315 411.17345,340.0052 411.17345,341.6373 C 411.17345,343.29315 410.83905,344.7742 410.17025,346.08045 C 409.5024,347.3867 408.5562,348.3766 407.3307,349.04825 C 406.1052,349.7199 404.78375,350.0562 403.3654,350.0562 C 401.8283,350.0562 400.4546,349.68475 399.2443,348.9428 C 398.034,348.20085 397.11725,347.18625 396.4931,345.9028 C 395.86895,344.6184 395.55735,343.2599 395.55735,341.82635 z M 397.78415,341.8539 C 397.78415,343.8204 398.3133,345.36985 399.3716,346.50225 C 400.4299,347.63465 401.758,348.1999 403.354,348.1999 C 404.9804,348.1999 406.31895,347.628 407.3706,346.48515 C 408.42035,345.3423 408.94665,343.72065 408.94665,341.6202 C 408.94665,340.2921 408.72245,339.13215 408.27215,338.1413 C 407.8228,337.15045 407.16635,336.3819 406.3009,335.8366 C 405.43545,335.2913 404.46455,335.01865 403.3882,335.01865 C 401.8587,335.01865 400.542,335.544 399.43905,336.59375 C 398.3361,337.6435 397.78415,339.39815 397.78415,341.8539 z"
   style="fill:#231f20" />
<path
   id="path153"
   d="M 193.34985,73.1198 C 193.34985,70.40945 194.07755,68.28905 195.53295,66.7567 C 196.98835,65.2234 198.86745,64.45675 201.1693,64.45675 C 202.67695,64.45675 204.03545,64.8168 205.24575,65.5369 C 206.45605,66.25795 207.3785,67.26115 208.01405,68.54935 C 208.6496,69.83755 208.96595,71.29865 208.96595,72.93075 C 208.96595,74.5866 208.63155,76.06765 207.9637,77.3739 C 207.29585,78.68015 206.3487,79.67005 205.1232,80.3417 C 203.8977,81.01335 202.57625,81.34965 201.1579,81.34965 C 199.6208,81.34965 198.2471,80.9782 197.0368,80.23625 C 195.8265,79.4943 194.90975,78.4797 194.2856,77.19625 C 193.66145,75.9128 193.34985,74.5524 193.34985,73.1198 z M 195.57665,73.14735 C 195.57665,75.11385 196.1058,76.6633 197.1641,77.7957 C 198.2224,78.9281 199.5505,79.49335 201.1465,79.49335 C 202.7729,79.49335 204.11145,78.92145 205.1631,77.7786 C 206.2138,76.63575 206.73915,75.0141 206.73915,72.91365 C 206.73915,71.58555 206.51495,70.4256 206.0656,69.43475 C 205.61625,68.4439 204.95885,67.67535 204.0934,67.13005 C 203.22795,66.58475 202.25705,66.3121 201.1807,66.3121 C 199.6512,66.3121 198.3345,66.83745 197.23155,67.8872 C 196.1286,68.93695 195.57665,70.69065 195.57665,73.14735 z"
   style="fill:#231f20" />
<path
   style="fill:#231f20"
   d="M 206.12165,82.3481 L 207.49915,81.54155 L 220.79915,104.53155 L 219.99165,104.76905 L 218.18665,103.2956 L 206.12165,82.3481 z"
   id="polygon155" />
<path
   style="fill:#231f20"
   d="M 187.02665,99.35405 L 183.55915,94.9831 L 185.74415,91.8956 L 218.18665,103.2956 L 219.99165,104.76905 L 219.18415,105.4331 L 187.02665,99.35405 z"
   id="polygon157" />
<path
   style="fill:#231f20"
   d="M 164.74915,82.68155 L 164.74915,81.8731 L 165.12915,80.9231 L 190.96915,73.98905 L 191.34915,75.55655 L 164.74915,82.68155 z"
   id="polygon159" />
<path
   style="fill:#231f20"
   d="M 150.73665,106.3356 L 147.17415,104.76905 L 149.40665,101.6331 L 185.74415,91.8956 L 183.55915,94.9831 L 184.03415,97.40655 L 150.73665,106.3356 z"
   id="polygon161" />
<path
   style="fill:#231f20"
   d="M 127.88915,73.0856 L 128.31665,72.08905 L 130.21665,73.46655 L 149.40665,101.6331 L 147.17415,104.76905 L 142.23415,102.91655 L 127.88915,73.0856 z"
   id="polygon163" />
<path
   style="fill:#231f20"
   d="M 163.03915,80.59155 L 164.74915,81.8731 L 164.74915,82.68155 L 130.21665,73.46655 L 128.31665,72.08905 L 128.31665,71.28155 L 163.03915,80.59155 z"
   id="polygon165" />
<path
   id="path169"
   d="M 179.03525,136.64155 L 179.03525,120.31295 L 181.2022,120.31295 L 181.2022,127.0228 L 189.64865,127.0228 L 189.64865,120.31295 L 191.8156,120.31295 L 191.8156,136.64155 L 189.64865,136.64155 L 189.64865,128.95225 L 181.2022,128.95225 L 181.2022,136.64155 L 179.03525,136.64155 z"
   style="fill:#231f20" /><path
   id="path171"
   d="M 194.75775,128.6948 C 194.75775,125.98445 195.48545,123.86405 196.94085,122.3317 C 198.39625,120.7984 200.27535,120.03175 202.5772,120.03175 C 204.08485,120.03175 205.44335,120.3918 206.65365,121.1119 C 207.86395,121.83295 208.7864,122.83615 209.42195,124.12435 C 210.0575,125.41255 210.37385,126.87365 210.37385,128.50575 C 210.37385,130.1616 210.03945,131.64265 209.3716,132.9489 C 208.70375,134.25515 207.7566,135.24505 206.5311,135.9167 C 205.3056,136.58835 203.98415,136.92465 202.5658,136.92465 C 201.0287,136.92465 199.655,136.5532 198.4447,135.81125 C 197.2344,135.0693 196.31765,134.0547 195.6935,132.77125 C 195.06935,131.4878 194.75775,130.1274 194.75775,128.6948 z M 196.98455,128.72235 C 196.98455,130.68885 197.5137,132.2383 198.572,133.3707 C 199.6303,134.5031 200.9584,135.06835 202.5544,135.06835 C 204.1808,135.06835 205.51935,134.49645 206.571,133.3536 C 207.6217,132.21075 208.14705,130.5891 208.14705,128.48865 C 208.14705,127.16055 207.92285,126.0006 207.4735,125.00975 C 207.02415,124.0189 206.36675,123.25035 205.5013,122.70505 C 204.63585,122.15975 203.66495,121.8871 202.5886,121.8871 C 201.0591,121.8871 199.7424,122.41245 198.63945,123.4622 C 197.5365,124.51195 196.98455,126.26565 196.98455,128.72235 z"
   style="fill:#231f20" />
<path
   style="fill:#231f20"
   d="M 198.18915,118.6856 L 196.76415,119.49405 L 184.03415,97.40655 L 183.55915,94.9831 L 187.02665,99.35405 L 198.18915,118.6856 z"
   id="polygon173" />
<path
   id="path177"
   d="M 84.09985,82.90385 C 84.09985,80.1935 84.82755,78.0731 86.28295,76.54075 C 87.73835,75.00745 89.61745,74.2408 91.9193,74.2408 C 93.42695,74.2408 94.78545,74.60085 95.99575,75.32095 C 97.20605,76.042 98.1285,77.0452 98.76405,78.3334 C 99.3996,79.6216 99.71595,81.0827 99.71595,82.7148 C 99.71595,84.37065 99.38155,85.8517 98.7137,87.15795 C 98.04585,88.4642 97.0987,89.4541 95.8732,90.12575 C 94.6477,90.7974 93.32625,91.1337 91.9079,91.1337 C 90.3708,91.1337 88.9971,90.76225 87.7868,90.0203 C 86.5765,89.27835 85.65975,88.26375 85.0356,86.9803 C 84.41145,85.69685 84.09985,84.3374 84.09985,82.90385 z M 86.32665,82.93235 C 86.32665,84.89885 86.8558,86.4483 87.9141,87.5807 C 88.9724,88.7131 90.3005,89.27835 91.8965,89.27835 C 93.5229,89.27835 94.86145,88.70645 95.9131,87.5636 C 96.9638,86.42075 97.48915,84.7991 97.48915,82.69865 C 97.48915,81.37055 97.26495,80.2106 96.8156,79.21975 C 96.36625,78.2289 95.70885,77.46035 94.8434,76.91505 C 93.97795,76.36975 93.00705,76.0971 91.9307,76.0971 C 90.4012,76.0971 89.0845,76.62245 87.98155,77.6722 C 86.8786,78.72195 86.32665,80.47565 86.32665,82.93235 z"
   style="fill:#231f20" />
<path
   style="fill:#231f20"
   d="M 101.71665,80.06905 L 101.28915,78.50155 L 128.31665,71.28155 L 128.31665,72.08905 L 127.88915,73.0856 L 101.71665,80.06905 z"
   id="polygon179" />
<path
   id="path183"
   d="M 101.8468,109.2331 L 101.8468,92.90545 L 104.01375,92.90545 L 104.01375,99.6153 L 112.4602,99.6153 L 112.4602,92.90545 L 114.62715,92.90545 L 114.62715,109.23405 L 112.4602,109.23405 L 112.4602,101.5438 L 104.01375,101.5438 L 104.01375,109.2331 L 101.8468,109.2331 L 101.8468,109.2331 z"
   style="fill:#231f20" /><path
   id="path185"
   d="M 117.57025,101.28635 C 117.57025,98.576 118.29795,96.4556 119.75335,94.92325 C 121.20875,93.38995 123.08785,92.6233 125.3897,92.6233 C 126.89735,92.6233 128.25585,92.98335 129.46615,93.70345 C 130.67645,94.4245 131.5989,95.4277 132.23445,96.7159 C 132.87,98.0041 133.18635,99.4652 133.18635,101.0973 C 133.18635,102.75315 132.85195,104.2342 132.1841,105.54045 C 131.51625,106.8467 130.5691,107.8366 129.3436,108.50825 C 128.1181,109.1799 126.79665,109.5162 125.3783,109.5162 C 123.8412,109.5162 122.4675,109.14475 121.2572,108.4028 C 120.0469,107.66085 119.13015,106.64625 118.506,105.3628 C 117.88185,104.07935 117.57025,102.7199 117.57025,101.28635 z M 119.79705,101.3139 C 119.79705,103.2804 120.3262,104.82985 121.3845,105.96225 C 122.4428,107.09465 123.7709,107.6599 125.3669,107.6599 C 126.9933,107.6599 128.33185,107.088 129.3835,105.94515 C 130.4342,104.8023 130.95955,103.18065 130.95955,101.0802 C 130.95955,99.7521 130.73535,98.59215 130.286,97.6013 C 129.83665,96.61045 129.17925,95.8419 128.3138,95.2966 C 127.44835,94.7513 126.47745,94.47865 125.4011,94.47865 C 123.8716,94.47865 122.5549,95.004 121.45195,96.05375 C 120.349,97.1035 119.79705,98.8572 119.79705,101.3139 z"
   style="fill:#231f20" />
<path
   style="fill:#231f20"
   d="M 135.15665,103.10655 L 135.48915,101.53905 L 142.23415,102.91655 L 147.17415,104.76905 L 150.73665,106.3356 L 135.15665,103.10655 z"
   id="polygon187" />
<path
   style="fill:#231f20"
   d="M 144.94165,49.24155 L 146.79415,49.24155 L 165.12915,80.9231 L 164.74915,81.8731 L 163.03915,80.59155 L 144.94165,49.24155 z"
   id="polygon189" />
<path
   id="path193"
   d="M 156.91735,17.63885 C 156.91735,14.9285 157.64505,12.8081 159.10045,11.27575 C 160.55585,9.74245 162.43495,8.9758 164.7368,8.9758 C 166.24445,8.9758 167.60295,9.33585 168.81325,10.05595 C 170.02355,10.777 170.946,11.7802 171.58155,13.0684 C 172.2171,14.3566 172.53345,15.8177 172.53345,17.4498 C 172.53345,19.10565 172.19905,20.5867 171.5312,21.89295 C 170.86335,23.1992 169.9162,24.1891 168.6907,24.86075 C 167.4652,25.5324 166.14375,25.8687 164.7254,25.8687 C 163.1883,25.8687 161.8146,25.49725 160.6043,24.7553 C 159.394,24.01335 158.47725,22.99875 157.8531,21.7153 C 157.22895,20.43185 156.91735,19.0724 156.91735,17.63885 z M 159.14415,17.6664 C 159.14415,19.6329 159.6733,21.18235 160.7316,22.31475 C 161.7899,23.44715 163.118,24.0124 164.714,24.0124 C 166.3404,24.0124 167.67895,23.4405 168.7306,22.29765 C 169.7813,21.1548 170.30665,19.53315 170.30665,17.4327 C 170.30665,16.1046 170.08245,14.94465 169.6331,13.9538 C 169.18375,12.96295 168.52635,12.1944 167.6609,11.6491 C 166.79545,11.1038 165.82455,10.83115 164.7482,10.83115 C 163.2187,10.83115 161.902,11.3565 160.79905,12.40625 C 159.6961,13.456 159.14415,15.21065 159.14415,17.6664 z"
   style="fill:#231f20" /><path
   id="path195"
   d="M 175.39485,25.5856 L 175.39485,9.25795 L 177.5618,9.25795 L 177.5618,15.9678 L 186.00825,15.9678 L 186.00825,9.25795 L 188.1752,9.25795 L 188.1752,25.58655 L 186.00825,25.58655 L 186.00825,17.89725 L 177.5618,17.89725 L 177.5618,25.58655 L 175.39485,25.58655 L 175.39485,25.5856 z"
   style="fill:#231f20" />
<path
   style="fill:#231f20"
   d="M 158.38415,25.96655 L 159.76165,26.7731 L 146.79415,49.24155 L 144.94165,49.24155 L 158.38415,25.96655 z"
   id="polygon197" />
<path
   style="fill:#231f20"
   d="M 220.79915,132.65155 L 219.18415,132.65155 L 219.18415,105.4331 L 219.99165,104.76905 L 220.79915,104.53155 L 220.79915,132.65155 z"
   id="polygon199" />
<path
   id="path203"
   d="M 212.20735,143.51385 C 212.20735,140.8035 212.93505,138.6831 214.39045,137.15075 C 215.84585,135.61745 217.72495,134.8508 220.0268,134.8508 C 221.53445,134.8508 222.89295,135.21085 224.10325,135.93095 C 225.31355,136.652 226.236,137.6552 226.8706,138.9434 C 227.50615,140.23065 227.82345,141.6927 227.82345,143.3248 C 227.82345,144.98065 227.48905,146.4617 226.82025,147.76795 C 226.1524,149.0742 225.2062,150.0641 223.9807,150.73575 C 222.7552,151.4074 221.43375,151.7437 220.0154,151.7437 C 218.4783,151.7437 217.1046,151.37225 215.8943,150.6303 C 214.684,149.88835 213.76725,148.87375 213.1431,147.5903 C 212.51895,146.30685 212.20735,144.9474 212.20735,143.51385 z M 214.43415,143.5414 C 214.43415,145.5079 214.9633,147.05735 216.0216,148.18975 C 217.0799,149.32215 218.408,149.8874 220.004,149.8874 C 221.6304,149.8874 222.96895,149.3155 224.0206,148.17265 C 225.07035,147.0298 225.59665,145.40815 225.59665,143.3077 C 225.59665,141.9796 225.37245,140.81965 224.9231,139.8288 C 224.47375,138.83795 223.81635,138.0694 222.9509,137.5241 C 222.08545,136.9788 221.11455,136.70615 220.0382,136.70615 C 218.5087,136.70615 217.192,137.2315 216.08905,138.28125 C 214.9861,139.331 214.43415,141.08565 214.43415,143.5414 z"
   style="fill:#231f20" />
<path
   style="fill:#231f20"
   d="M 18.25915,121.2981 L 19.87415,121.2981 L 19.87415,125.3356 L 18.25915,125.3356 L 18.25915,121.2981 z"
   id="rect205" />
<path
   style="fill:#231f20"
   d="M 18.25915,129.27905 L 19.87415,129.27905 L 19.87415,133.31655 L 18.25915,133.31655 L 18.25915,129.27905 z"
   id="rect207" />
<path
   style="fill:#231f20"
   d="M 18.25915,137.21059 L 19.87415,137.21059 L 19.87415,141.24809 L 18.25915,141.24809 L 18.25915,137.21059 z"
   id="rect209" />
<path
   style="fill:#231f20"
   d="M 18.25915,145.19154 L 19.87415,145.19154 L 19.87415,149.22904 L 18.25915,149.22904 L 18.25915,145.19154 z"
   id="rect211" />
<path
   style="fill:#231f20"
   d="M 439.58415,330.25155 L 440.01165,331.81905 L 436.11665,332.86405 L 435.68915,331.2956 L 439.58415,330.25155 z"
   id="polygon213" />
<path
   style="fill:#231f20"
   d="M 431.93665,332.29405 L 432.36415,333.8606 L 428.46915,334.90655 L 428.04165,333.33905 L 431.93665,332.29405 z"
   id="polygon215" />
<path
   style="fill:#231f20"
   d="M 424.28915,334.3356 L 424.71665,335.90405 L 420.82165,336.9481 L 420.39415,335.38155 L 424.28915,334.3356 z"
   id="polygon217" />
<path
   style="fill:#231f20"
   d="M 416.64165,336.37905 L 417.06915,337.9456 L 413.17415,338.99155 L 412.74665,337.4231 L 416.64165,336.37905 z"
   id="polygon219" />
<path
   style="fill:#231f20"
   d="M 91.076653,44.1581 L 92.691653,44.1581 L 92.691653,48.1956 L 91.076653,48.1956 L 91.076653,44.1581 z"
   id="rect221" />
<path
   style="fill:#231f20"
   d="M 91.076653,52.139051 L 92.691653,52.139051 L 92.691653,56.176551 L 91.076653,56.176551 L 91.076653,52.139051 z"
   id="rect223" />
<path
   style="fill:#231f20"
   d="M 91.076653,60.0706 L 92.691653,60.0706 L 92.691653,64.1081 L 91.076653,64.1081 L 91.076653,60.0706 z"
   id="rect225" />
<path
   style="fill:#231f20"
   d="M 91.076653,68.004048 L 92.691653,68.004048 L 92.691653,72.089049 L 91.076653,72.089049 L 91.076653,68.004048 z"
   id="rect227" />
</svg>