<?xml version="1.0" encoding="UTF-8" standalone="no"?>
<!-- Created with Inkscape (http://www.inkscape.org/) -->

<svg
   xmlns:svg="http://www.w3.org/2000/svg"
   xmlns="http://www.w3.org/2000/svg"
   xmlns:xlink="http://www.w3.org/1999/xlink"
   version="1.1"
   width="862.08661"
   height="270.35431"
   id="svg2">
  <defs
     id="defs4">
    <linearGradient
       id="linearGradient5168">
      <stop
         id="stop5170"
         style="stop-color:#00aa00;stop-opacity:1"
         offset="0" />
      <stop
         id="stop5172"
         style="stop-color:#0055d4;stop-opacity:1"
         offset="1" />
    </linearGradient>
    <linearGradient
       id="linearGradient5160">
      <stop
         id="stop5162"
         style="stop-color:#0055d4;stop-opacity:1"
         offset="0" />
      <stop
         id="stop5164"
         style="stop-color:#00aa00;stop-opacity:1"
         offset="1" />
    </linearGradient>
    <linearGradient
       id="linearGradient5130">
      <stop
         id="stop5132"
         style="stop-color:#0055d4;stop-opacity:1"
         offset="0" />
      <stop
         id="stop5134"
         style="stop-color:#d40000;stop-opacity:1"
         offset="1" />
    </linearGradient>
    <linearGradient
       id="linearGradient5114">
      <stop
         id="stop5116"
         style="stop-color:#d40000;stop-opacity:1"
         offset="0" />
      <stop
         id="stop5118"
         style="stop-color:#0055d4;stop-opacity:1"
         offset="1" />
    </linearGradient>
    <linearGradient
       x1="-38.297649"
       y1="481.70807"
       x2="-7.3978271"
       y2="481.70807"
       id="linearGradient5120"
       xlink:href="#linearGradient5114"
       gradientUnits="userSpaceOnUse"
       gradientTransform="translate(17.71144,-17.805005)" />
    <linearGradient
       x1="347.50012"
       y1="473.30765"
       x2="378.39993"
       y2="473.30765"
       id="linearGradient5128"
       xlink:href="#linearGradient5130"
       gradientUnits="userSpaceOnUse"
       gradientTransform="translate(17.71144,-17.805005)" />
    <linearGradient
       x1="476.1994"
       y1="481.55807"
       x2="507.09921"
       y2="481.55807"
       id="linearGradient5142"
       xlink:href="#linearGradient5114"
       gradientUnits="userSpaceOnUse"
       gradientTransform="translate(17.71144,-17.805005)" />
    <linearGradient
       x1="604.89862"
       y1="473.30765"
       x2="635.49847"
       y2="473.30765"
       id="linearGradient5150"
       xlink:href="#linearGradient5130"
       gradientUnits="userSpaceOnUse"
       gradientTransform="translate(17.71144,-17.805005)" />
    <linearGradient
       x1="733.5979"
       y1="477.50787"
       x2="778.29767"
       y2="477.50787"
       id="linearGradient5158"
       xlink:href="#linearGradient5114"
       gradientUnits="userSpaceOnUse"
       gradientTransform="translate(17.71144,-17.805005)" />
    <linearGradient
       x1="90.401604"
       y1="473.45764"
       x2="121.30142"
       y2="473.45764"
       id="linearGradient5166"
       xlink:href="#linearGradient5160"
       gradientUnits="userSpaceOnUse"
       gradientTransform="translate(17.71144,-17.805005)" />
    <linearGradient
       x1="219.10088"
       y1="481.70807"
       x2="249.70068"
       y2="481.70807"
       id="linearGradient5182"
       xlink:href="#linearGradient5168"
       gradientUnits="userSpaceOnUse"
       gradientTransform="translate(17.71144,-17.805005)" />
  </defs>
  <g
     transform="translate(38.297649,-345.38756)"
     id="layer1">
    <g
       transform="translate(17.71144,-17.805005)"
       id="g3500"
       style="fill:#0055d4">
      <g
         transform="translate(20,-66)"
         id="2-7">
        <path
           d="m -22.862696,543.25677 0,-21.47448 2.915023,0 11.2792313,16.86025 0,-16.86025 2.7245936,0 0,21.47448 -2.9150222,0 -11.2792317,-16.8749 0,16.8749 z"
           id="path3021-4" />
      </g>
      <g
         transform="translate(20,-56)"
         id="3-0">
        <path
           d="m -22.745509,509.65503 0,-21.47449 2.841781,0 0,8.81831 11.1620445,0 0,-8.81831 2.8417804,0 0,21.47449 -2.8417804,0 0,-10.12201 -11.1620445,0 0,10.12201 z"
           id="path3024-9" />
      </g>
      <g
         transform="translate(20,-66)"
         id="14-2">
        <path
           d="m 61.201862,483.29529 c -2e-6,-3.56442 0.957023,-6.35493 2.871077,-8.37154 1.914045,-2.01657 4.384731,-3.02486 7.412066,-3.02488 1.982397,2e-5 3.769494,0.47365 5.361297,1.42089 1.591769,0.94728 2.80514,2.26807 3.640116,3.96238 0.834935,1.69434 1.252412,3.61571 1.252434,5.76413 -2.2e-5,2.17773 -0.439472,4.12595 -1.318352,5.84469 -0.878921,1.71874 -2.124029,3.02 -3.73533,3.90378 -1.611334,0.88379 -3.349603,1.32568 -5.214813,1.32568 -2.021483,0 -3.828111,-0.48828 -5.419891,-1.46484 -1.591792,-0.97655 -2.797839,-2.30955 -3.618143,-3.999 -0.820309,-1.68943 -1.230463,-3.47653 -1.230461,-5.36129 z m 2.92967,0.0439 c -4e-6,2.58789 0.695792,4.62645 2.08739,6.11569 1.391586,1.48925 3.13718,2.23388 5.236786,2.23387 2.138646,10e-6 3.898888,-0.75194 5.280732,-2.25584 1.381809,-1.50389 2.072723,-3.63767 2.072742,-6.40133 -1.9e-5,-1.74803 -0.295428,-3.2739 -0.886226,-4.57761 -0.590834,-1.30369 -1.455086,-2.31443 -2.592758,-3.03221 -1.137703,-0.71775 -2.41455,-1.07664 -3.830544,-1.07666 -2.011717,2e-5 -3.742663,0.69094 -5.192841,2.07275 -1.450193,1.38184 -2.175285,3.68895 -2.175281,6.92134 z"
           id="path3057-1" />
      </g>
    </g>
    <g
       transform="translate(17.71144,-17.805005)"
       id="g3552"
       style="fill:#0055d4">
      <g
         transform="translate(20,-66)"
         id="10-2">
        <path
           d="m 491.63436,543.25677 0,-21.47448 2.91502,0 11.27923,16.86025 0,-16.86025 2.72459,0 0,21.47448 -2.91502,0 -11.27923,-16.8749 0,16.8749 z"
           id="path3045-7" />
      </g>
      <g
         transform="translate(20,-56)"
         id="11-6">
        <path
           d="m 491.75154,509.65503 0,-21.47449 2.84178,0 0,8.81831 11.16205,0 0,-8.81831 2.84178,0 0,21.47449 -2.84178,0 0,-10.12201 -11.16205,0 0,10.12201 z"
           id="path3048-1" />
      </g>
      <g
         transform="translate(20,-66)"
         id="18-8">
        <path
           d="m 575.39892,483.29529 c 0,-3.56442 0.95702,-6.35493 2.87107,-8.37154 1.91405,-2.01657 4.38474,-3.02486 7.41207,-3.02488 1.9824,2e-5 3.76949,0.47365 5.3613,1.42089 1.59177,0.94728 2.80514,2.26807 3.64011,3.96238 0.83494,1.69434 1.25242,3.61571 1.25244,5.76413 -2e-5,2.17773 -0.43947,4.12595 -1.31835,5.84469 -0.87892,1.71874 -2.12403,3.02 -3.73533,3.90378 -1.61134,0.88379 -3.34961,1.32568 -5.21482,1.32568 -2.02148,0 -3.82811,-0.48828 -5.41989,-1.46484 -1.59179,-0.97655 -2.79784,-2.30955 -3.61814,-3.999 -0.82031,-1.68943 -1.23046,-3.47653 -1.23046,-5.36129 z m 2.92967,0.0439 c -10e-6,2.58789 0.69579,4.62645 2.08739,6.11569 1.39158,1.48925 3.13718,2.23388 5.23678,2.23387 2.13865,10e-6 3.89889,-0.75194 5.28074,-2.25584 1.38181,-1.50389 2.07272,-3.63767 2.07274,-6.40133 -2e-5,-1.74803 -0.29543,-3.2739 -0.88623,-4.57761 -0.59083,-1.30369 -1.45508,-2.31443 -2.59276,-3.03221 -1.1377,-0.71775 -2.41455,-1.07664 -3.83054,-1.07666 -2.01172,2e-5 -3.74266,0.69094 -5.19284,2.07275 -1.45019,1.38184 -2.17529,3.68895 -2.17528,6.92134 z"
           id="path3069-9" />
      </g>
    </g>
    <g
       transform="translate(17.71144,-17.805005)"
       id="g3530"
       style="fill:#0055d4">
      <g
         transform="translate(20,-66)"
         id="16-5">
        <path
           d="m 318.30038,483.29529 c -1e-5,-3.56442 0.95702,-6.35493 2.87107,-8.37154 1.91405,-2.01657 4.38473,-3.02486 7.41207,-3.02488 1.9824,2e-5 3.76949,0.47365 5.3613,1.42089 1.59177,0.94728 2.80514,2.26807 3.64011,3.96238 0.83494,1.69434 1.25241,3.61571 1.25244,5.76413 -3e-5,2.17773 -0.43948,4.12595 -1.31836,5.84469 -0.87892,1.71874 -2.12402,3.02 -3.73533,3.90378 -1.61133,0.88379 -3.3496,1.32568 -5.21481,1.32568 -2.02148,0 -3.82811,-0.48828 -5.41989,-1.46484 -1.59179,-0.97655 -2.79784,-2.30955 -3.61814,-3.999 -0.82031,-1.68943 -1.23047,-3.47653 -1.23046,-5.36129 z m 2.92967,0.0439 c -1e-5,2.58789 0.69579,4.62645 2.08739,6.11569 1.39158,1.48925 3.13718,2.23388 5.23678,2.23387 2.13865,10e-6 3.89889,-0.75194 5.28073,-2.25584 1.38181,-1.50389 2.07273,-3.63767 2.07275,-6.40133 -2e-5,-1.74803 -0.29543,-3.2739 -0.88623,-4.57761 -0.59083,-1.30369 -1.45509,-2.31443 -2.59276,-3.03221 -1.1377,-0.71775 -2.41455,-1.07664 -3.83054,-1.07666 -2.01172,2e-5 -3.74266,0.69094 -5.19284,2.07275 -1.45019,1.38184 -2.17529,3.68895 -2.17528,6.92134 z"
           id="path3063-7" />
      </g>
      <g
         transform="translate(20,-66)"
         id="6-4">
        <path
           d="m 234.23583,543.25677 0,-21.47448 2.91502,0 11.27923,16.86025 0,-16.86025 2.72459,0 0,21.47448 -2.91502,0 -11.27923,-16.8749 0,16.8749 z"
           id="path3033-5" />
      </g>
      <g
         transform="translate(20,-56)"
         id="7-5">
        <path
           d="m 234.35301,509.65503 0,-21.47449 2.84178,0 0,8.81831 11.16205,0 0,-8.81831 2.84178,0 0,21.47449 -2.84178,0 0,-10.12201 -11.16205,0 0,10.12201 z"
           id="path3036-1" />
      </g>
    </g>
    <path
       d="M 9.2636189,455.65264 -19.536215,472.1535"
       id="28-7"
       style="fill:none;stroke:url(#linearGradient5120);stroke-width:2.09998798px;stroke-linecap:round;stroke-linejoin:round;stroke-opacity:1;stroke-dasharray:none" />
    <path
       d="M 137.96287,464.05308 109.16304,447.25221"
       id="31-3"
       style="fill:none;stroke:url(#linearGradient5166);stroke-width:2.09998798px;stroke-linecap:round;stroke-linejoin:round;stroke-opacity:1;stroke-dasharray:none" />
    <path
       d="M 266.36213,455.65264 237.8623,472.1535"
       id="34-8"
       style="fill:none;stroke:url(#linearGradient5182);stroke-width:2.09998798px;stroke-linecap:round;stroke-linejoin:round;stroke-opacity:1;stroke-dasharray:none" />
    <path
       d="M 395.06139,463.75306 366.26156,447.25221"
       id="37-0"
       style="fill:none;stroke:url(#linearGradient5128);stroke-width:2.09998798px;stroke-linecap:round;stroke-linejoin:round;stroke-opacity:1;stroke-dasharray:none" />
    <path
       d="M 523.76065,455.35263 494.96082,472.1535"
       id="40-6"
       style="fill:none;stroke:url(#linearGradient5142);stroke-width:2.09998798px;stroke-linecap:round;stroke-linejoin:round;stroke-opacity:1;stroke-dasharray:none" />
    <path
       d="M 652.15991,463.75306 623.66008,447.25221"
       id="43-4"
       style="fill:none;stroke:url(#linearGradient5150);stroke-width:2.09998798px;stroke-linecap:round;stroke-linejoin:round;stroke-opacity:1;stroke-dasharray:none" />
    <g
       transform="translate(17.71144,-17.805005)"
       id="g3881"
       style="stroke:#0055d4">
      <path
         d="M 48.551851,489.95851 19.752017,473.15764"
         id="29-7"
         style="fill:none;stroke:#0055d4;stroke-width:2.09998798px;stroke-linecap:round;stroke-linejoin:round;stroke-opacity:1;stroke-dasharray:none" />
      <path
         d="m 91.451601,465.05722 -42.89975,24.90129"
         id="30-9"
         style="fill:none;stroke:#0055d4;stroke-width:2.09998798px;stroke-linecap:round;stroke-linejoin:round;stroke-opacity:1;stroke-dasharray:none" />
      <path
         d="m 95.051581,465.05722 0,-34.20178"
         id="47-0"
         style="fill:none;stroke:#0055d4;stroke-width:2.09998798px;stroke-linecap:round;stroke-linejoin:round;stroke-opacity:1;stroke-dasharray:none" />
      <path
         d="m 87.551621,465.05722 0,-34.20178"
         id="48-9"
         style="fill:none;stroke:#0055d4;stroke-width:2.09998798px;stroke-linecap:round;stroke-linejoin:round;stroke-opacity:1;stroke-dasharray:none" />
    </g>
    <g
       transform="translate(17.71144,-17.805005)"
       id="g3895"
       style="stroke:#0055d4">
      <path
         d="M 305.95036,489.95851 276.85053,473.15764"
         id="35-6"
         style="fill:none;stroke:#0055d4;stroke-width:2.09998798px;stroke-linecap:round;stroke-linejoin:round;stroke-opacity:1;stroke-dasharray:none" />
      <path
         d="m 348.55012,465.05722 -42.59976,24.90129"
         id="36-5"
         style="fill:none;stroke:#0055d4;stroke-width:2.09998798px;stroke-linecap:round;stroke-linejoin:round;stroke-opacity:1;stroke-dasharray:none" />
      <path
         d="m 352.1501,465.05722 0,-34.20178"
         id="51-6"
         style="fill:none;stroke:#0055d4;stroke-width:2.09998798px;stroke-linecap:round;stroke-linejoin:round;stroke-opacity:1;stroke-dasharray:none" />
      <path
         d="m 344.65014,465.05722 0,-34.20178"
         id="52-1"
         style="fill:none;stroke:#0055d4;stroke-width:2.09998798px;stroke-linecap:round;stroke-linejoin:round;stroke-opacity:1;stroke-dasharray:none" />
    </g>
    <g
       transform="translate(17.71144,-17.805005)"
       id="g3962"
       style="stroke:#0055d4">
      <path
         d="M 563.04888,489.95851 534.24905,473.15764"
         id="41-0"
         style="fill:none;stroke:#0055d4;stroke-width:2.09998798px;stroke-linecap:round;stroke-linejoin:round;stroke-opacity:1;stroke-dasharray:none" />
      <path
         d="m 605.94864,465.05722 -42.89976,24.90129"
         id="42-2"
         style="fill:none;stroke:#0055d4;stroke-width:2.09998798px;stroke-linecap:round;stroke-linejoin:round;stroke-opacity:1;stroke-dasharray:none" />
      <path
         d="m 609.54861,465.05722 0,-34.20178"
         id="55-9"
         style="fill:none;stroke:#0055d4;stroke-width:2.09998798px;stroke-linecap:round;stroke-linejoin:round;stroke-opacity:1;stroke-dasharray:none" />
      <path
         d="m 602.04866,465.05722 0,-34.20178"
         id="56-3"
         style="fill:none;stroke:#0055d4;stroke-width:2.09998798px;stroke-linecap:round;stroke-linejoin:round;stroke-opacity:1;stroke-dasharray:none" />
    </g>
    <path
       d="M 794.95909,447.25221 752.35933,472.1535"
       id="46-5"
       style="fill:none;stroke:url(#linearGradient5158);stroke-width:2.09998798px;stroke-linecap:round;stroke-linejoin:round;stroke-opacity:1;stroke-dasharray:none" />
    <g
       transform="translate(17.71144,-17.805005)"
       id="g4328"
       style="stroke:#d40000">
      <path
         d="m 691.74814,465.05722 -29.09983,16.80087"
         id="44-8"
         style="fill:none;stroke:#d40000;stroke-width:2.09998798px;stroke-linecap:round;stroke-linejoin:round;stroke-opacity:1;stroke-dasharray:none" />
      <path
         d="M 734.64789,489.95851 691.74814,465.05722"
         id="45-6"
         style="fill:none;stroke:#d40000;stroke-width:2.09998798px;stroke-linecap:round;stroke-linejoin:round;stroke-opacity:1;stroke-dasharray:none" />
      <path
         d="m 731.04791,489.95851 0,33.90175"
         id="57-4"
         style="fill:none;stroke:#d40000;stroke-width:2.09998798px;stroke-linecap:round;stroke-linejoin:round;stroke-opacity:1;stroke-dasharray:none" />
      <path
         d="m 738.54787,489.95851 0,33.90175"
         id="58-4"
         style="fill:none;stroke:#d40000;stroke-width:2.09998798px;stroke-linecap:round;stroke-linejoin:round;stroke-opacity:1;stroke-dasharray:none" />
    </g>
    <g
       transform="translate(17.71144,-17.805005)"
       id="g3913"
       style="stroke:#d40000">
      <path
         d="m 434.34962,465.05722 -28.79983,16.80087"
         id="38-2"
         style="fill:none;stroke:#d40000;stroke-width:2.09998798px;stroke-linecap:round;stroke-linejoin:round;stroke-opacity:1;stroke-dasharray:none" />
      <path
         d="M 477.24938,489.95851 434.34962,465.05722"
         id="39-8"
         style="fill:none;stroke:#d40000;stroke-width:2.09998798px;stroke-linecap:round;stroke-linejoin:round;stroke-opacity:1;stroke-dasharray:none" />
      <path
         d="m 473.6494,489.95851 0,33.90175"
         id="53-3"
         style="fill:none;stroke:#d40000;stroke-width:2.09998798px;stroke-linecap:round;stroke-linejoin:round;stroke-opacity:1;stroke-dasharray:none" />
      <path
         d="m 481.14935,489.95851 0,33.90175"
         id="54-8"
         style="fill:none;stroke:#d40000;stroke-width:2.09998798px;stroke-linecap:round;stroke-linejoin:round;stroke-opacity:1;stroke-dasharray:none" />
    </g>
    <g
       transform="translate(17.71144,-17.805005)"
       id="g3919"
       style="fill:#d40000">
      <g
         id="g3538"
         style="fill:#d40000">
        <g
           transform="translate(20,-66)"
           id="8-7">
          <path
             d="m 362.93508,567.85803 0,-21.47448 2.91502,0 11.27923,16.86025 0,-16.86025 2.72459,0 0,21.47448 -2.91502,0 -11.27923,-16.8749 0,16.8749 z"
             id="path3039-1" />
        </g>
        <g
           transform="translate(20,-76)"
           id="9-1">
          <path
             d="m 363.05226,601.45978 0,-21.47449 2.84178,0 0,8.81831 11.16205,0 0,-8.81831 2.84178,0 0,21.47449 -2.84178,0 0,-10.12201 -11.16205,0 0,10.12201 z"
             id="path3042-5" />
        </g>
        <g
           transform="translate(20,-66)"
           id="17-6">
          <path
             d="m 446.99963,606.90167 c -1e-5,-3.56442 0.95702,-6.35493 2.87107,-8.37153 1.91405,-2.01657 4.38473,-3.02486 7.41207,-3.02489 1.9824,3e-5 3.76949,0.47365 5.3613,1.42089 1.59177,0.94728 2.80514,2.26808 3.64011,3.96238 0.83494,1.69434 1.25241,3.61572 1.25244,5.76413 -3e-5,2.17773 -0.43948,4.12596 -1.31836,5.84469 -0.87892,1.71875 -2.12403,3.02001 -3.73533,3.90379 -1.61133,0.88378 -3.3496,1.32567 -5.21481,1.32567 -2.02148,0 -3.82811,-0.48827 -5.41989,-1.46483 -1.59179,-0.97656 -2.79784,-2.30955 -3.61814,-3.999 -0.82031,-1.68944 -1.23047,-3.47653 -1.23046,-5.3613 z m 2.92967,0.0439 c -1e-5,2.58788 0.69579,4.62644 2.08739,6.11568 1.39158,1.48926 3.13718,2.23388 5.23678,2.23388 2.13865,0 3.89889,-0.75195 5.28073,-2.25585 1.38181,-1.50389 2.07273,-3.63766 2.07275,-6.40133 -2e-5,-1.74802 -0.29543,-3.27389 -0.88623,-4.57761 -0.59083,-1.30369 -1.45509,-2.31442 -2.59276,-3.03221 -1.1377,-0.71775 -2.41455,-1.07663 -3.83054,-1.07665 -2.01172,2e-5 -3.74266,0.69093 -5.19284,2.07274 -1.4502,1.38184 -2.17529,3.68896 -2.17528,6.92135 z"
             id="path3066-1" />
        </g>
        <g
           transform="translate(20,-66)"
           id="20-9">
          <path
             d="m 421.1863,486.22496 2.84178,0.71777 c -0.59572,2.33397 -1.66749,4.11375 -3.21531,5.33932 -1.54786,1.22558 -3.43994,1.83837 -5.67624,1.83837 -2.31445,0 -4.19676,-0.47119 -5.64694,-1.41357 -1.45019,-0.94237 -2.5537,-2.30711 -3.31053,-4.09421 -0.75683,-1.78709 -1.13525,-3.70602 -1.13525,-5.7568 0,-2.23631 0.42725,-4.18698 1.28174,-5.85202 0.85448,-1.66501 2.07029,-2.92965 3.64744,-3.79392 1.57713,-0.86423 3.31295,-1.29636 5.20748,-1.29638 2.14842,2e-5 3.95504,0.54689 5.4199,1.64061 1.46481,1.09377 2.48531,2.63184 3.0615,4.61423 l -2.79783,0.65918 c -0.49807,-1.56247 -1.22072,-2.70016 -2.16796,-3.41307 -0.94727,-0.71286 -2.13867,-1.06931 -3.5742,-1.06933 -1.65039,2e-5 -3.02977,0.39553 -4.13816,1.18652 -1.1084,0.79103 -1.8872,1.85303 -2.33641,3.18602 -0.44922,1.33301 -0.67383,2.70751 -0.67382,4.12351 -1e-5,1.82617 0.2661,3.4204 0.79833,4.78269 0.53222,1.3623 1.35985,2.38036 2.4829,3.05418 1.12303,0.67382 2.33884,1.01074 3.64744,1.01073 1.59177,1e-5 2.93942,-0.45898 4.04294,-1.37694 1.10349,-0.91796 1.85056,-2.28026 2.2412,-4.08689 z"
             id="path3075-5" />
        </g>
        <g
           transform="translate(20,-66)"
           id="21-4">
          <path
             d="m 427.5519,493.75421 0,-21.47448 2.84178,0 0,8.8183 11.16204,0 0,-8.8183 2.84178,0 0,21.47448 -2.84178,0 0,-10.12201 -11.16204,0 0,10.12201 z"
             id="path3078-3" />
        </g>
        <g
           transform="translate(20,-66)"
           id="22-1">
          <path
             d="m 447.74466,501.78642 2.083,-0.27773 c 0.23915,1.18037 0.64611,2.03092 1.22086,2.55167 0.57475,0.52075 1.27487,0.78112 2.10036,0.78112 0.97977,0 1.80718,-0.33945 2.48223,-1.01835 0.67504,-0.6789 1.01256,-1.51981 1.01257,-2.52274 -1e-5,-0.95663 -0.31246,-1.74547 -0.93735,-2.36652 -0.6249,-0.62103 -1.41953,-0.93155 -2.38387,-0.93156 -0.39346,10e-6 -0.88335,0.0772 -1.46967,0.23145 l 0.23144,-1.82841 c 0.13887,0.0154 0.25073,0.0231 0.3356,0.0231 0.88719,10e-6 1.68567,-0.23143 2.39544,-0.69433 0.70976,-0.46288 1.06464,-1.17649 1.06465,-2.14086 -1e-5,-0.76375 -0.25846,-1.39636 -0.77534,-1.89784 -0.5169,-0.50144 -1.18423,-0.75217 -2.00199,-0.75219 -0.81006,2e-5 -1.48511,0.2546 -2.02514,0.76377 -0.54004,0.50919 -0.8872,1.27295 -1.04149,2.29129 l -2.083,-0.37031 c 0.25459,-1.39636 0.8332,-2.47836 1.73583,-3.246 0.90263,-0.76761 2.02513,-1.15142 3.36751,-1.15143 0.92577,1e-5 1.77825,0.19867 2.55746,0.59596 0.77918,0.39733 1.37515,0.9393 1.7879,1.6259 0.41273,0.68663 0.6191,1.41568 0.61911,2.18714 -1e-5,0.73292 -0.19674,1.40025 -0.59018,2.00199 -0.39346,0.60177 -0.97593,1.08008 -1.7474,1.43496 1.00291,0.23145 1.78211,0.71169 2.33758,1.44073 0.55546,0.72906 0.83319,1.64133 0.8332,2.73683 -1e-5,1.48124 -0.54005,2.73683 -1.62011,3.76675 -1.08008,1.02993 -2.4456,1.54489 -4.09656,1.54489 -1.48896,0 -2.72525,-0.4436 -3.70889,-1.3308 -0.98363,-0.8872 -1.54488,-2.03671 -1.68375,-3.44852 z"
             id="path3081-2" />
        </g>
      </g>
      <path
         d="m 434.34962,466.30722 0,0 3.29999,-35.45178 -3.29999,0 -2.99998,0 2.99998,35.45178 0,0 z"
         id="61-0"
         style="fill:#d40000;fill-opacity:1;fill-rule:evenodd;stroke:none" />
    </g>
    <g
       transform="translate(17.71144,-17.805005)"
       id="g3974"
       style="fill:#d40000">
      <g
         id="g3560"
         style="fill:#d40000">
        <g
           transform="translate(20,-66)"
           id="12-4">
          <path
             d="m 620.03362,567.85803 0,-21.47448 2.91502,0 11.27923,16.86025 0,-16.86025 2.72459,0 0,21.47448 -2.91502,0 -11.27923,-16.8749 0,16.8749 z"
             id="path3051-2" />
        </g>
        <g
           transform="translate(20,-76)"
           id="13-3">
          <path
             d="m 620.1508,601.45978 0,-21.47449 2.84178,0 0,8.81831 11.16205,0 0,-8.81831 2.84178,0 0,21.47449 -2.84178,0 0,-10.12201 -11.16205,0 0,10.12201 z"
             id="path3054-2" />
        </g>
        <g
           transform="translate(20,-66)"
           id="19-2">
          <path
             d="m 704.0982,606.90167 c 0,-3.56442 0.95702,-6.35493 2.87107,-8.37153 1.91405,-2.01657 4.38474,-3.02486 7.41207,-3.02489 1.9824,3e-5 3.76949,0.47365 5.3613,1.42089 1.59177,0.94728 2.80514,2.26808 3.64011,3.96238 0.83494,1.69434 1.25242,3.61572 1.25244,5.76413 -2e-5,2.17773 -0.43947,4.12596 -1.31835,5.84469 -0.87892,1.71875 -2.12403,3.02001 -3.73533,3.90379 -1.61134,0.88378 -3.34961,1.32567 -5.21482,1.32567 -2.02148,0 -3.82811,-0.48827 -5.41989,-1.46483 -1.59179,-0.97656 -2.79784,-2.30955 -3.61814,-3.999 -0.82031,-1.68944 -1.23046,-3.47653 -1.23046,-5.3613 z m 2.92967,0.0439 c -10e-6,2.58788 0.69579,4.62644 2.08739,6.11568 1.39158,1.48926 3.13718,2.23388 5.23678,2.23388 2.13865,0 3.89889,-0.75195 5.28074,-2.25585 1.3818,-1.50389 2.07272,-3.63766 2.07274,-6.40133 -2e-5,-1.74802 -0.29543,-3.27389 -0.88623,-4.57761 -0.59083,-1.30369 -1.45508,-2.31442 -2.59276,-3.03221 -1.1377,-0.71775 -2.41455,-1.07663 -3.83054,-1.07665 -2.01172,2e-5 -3.74266,0.69093 -5.19284,2.07274 -1.45019,1.38184 -2.17529,3.68896 -2.17528,6.92135 z"
             id="path3072-7" />
        </g>
        <g
           transform="translate(20,-66)"
           id="23-3">
          <path
             d="m 678.28487,486.22496 2.84178,0.71777 c -0.59572,2.33397 -1.66749,4.11375 -3.21531,5.33932 -1.54786,1.22558 -3.43994,1.83837 -5.67624,1.83837 -2.31445,0 -4.19676,-0.47119 -5.64694,-1.41357 -1.45019,-0.94237 -2.5537,-2.30711 -3.31053,-4.09421 -0.75683,-1.78709 -1.13525,-3.70602 -1.13524,-5.7568 -10e-6,-2.23631 0.42724,-4.18698 1.28173,-5.85202 0.85448,-1.66501 2.07029,-2.92965 3.64744,-3.79392 1.57713,-0.86423 3.31296,-1.29636 5.20749,-1.29638 2.14841,2e-5 3.95504,0.54689 5.41989,1.64061 1.46481,1.09377 2.48531,2.63184 3.0615,4.61423 l -2.79783,0.65918 c -0.49806,-1.56247 -1.22071,-2.70016 -2.16796,-3.41307 -0.94727,-0.71286 -2.13867,-1.06931 -3.5742,-1.06933 -1.65039,2e-5 -3.02977,0.39553 -4.13816,1.18652 -1.10839,0.79103 -1.8872,1.85303 -2.33641,3.18602 -0.44922,1.33301 -0.67383,2.70751 -0.67382,4.12351 -10e-6,1.82617 0.2661,3.4204 0.79833,4.78269 0.53222,1.3623 1.35985,2.38036 2.4829,3.05418 1.12303,0.67382 2.33884,1.01074 3.64744,1.01073 1.59177,1e-5 2.93942,-0.45898 4.04294,-1.37694 1.1035,-0.91796 1.85056,-2.28026 2.2412,-4.08689 z"
             id="path3084-3" />
        </g>
        <g
           transform="translate(20,-66)"
           id="24-4">
          <path
             d="m 684.65044,493.75421 0,-21.47448 2.84178,0 0,8.8183 11.16204,0 0,-8.8183 2.84178,0 0,21.47448 -2.84178,0 0,-10.12201 -11.16204,0 0,10.12201 z"
             id="path3087-1" />
        </g>
        <g
           transform="translate(20,-66)"
           id="25-1">
          <path
             d="m 704.84317,501.78642 2.083,-0.27773 c 0.23915,1.18037 0.64611,2.03092 1.22086,2.55167 0.57475,0.52075 1.27487,0.78112 2.10036,0.78112 0.97977,0 1.80718,-0.33945 2.48223,-1.01835 0.67504,-0.6789 1.01256,-1.51981 1.01257,-2.52274 -1e-5,-0.95663 -0.31246,-1.74547 -0.93735,-2.36652 -0.6249,-0.62103 -1.41953,-0.93155 -2.38387,-0.93156 -0.39346,10e-6 -0.88335,0.0772 -1.46967,0.23145 l 0.23145,-1.82841 c 0.13886,0.0154 0.25072,0.0231 0.33559,0.0231 0.88719,10e-6 1.68568,-0.23143 2.39544,-0.69433 0.70976,-0.46288 1.06464,-1.17649 1.06465,-2.14086 -10e-6,-0.76375 -0.25846,-1.39636 -0.77534,-1.89784 -0.5169,-0.50144 -1.18423,-0.75217 -2.00199,-0.75219 -0.81006,2e-5 -1.48511,0.2546 -2.02514,0.76377 -0.54004,0.50919 -0.8872,1.27295 -1.04149,2.29129 l -2.083,-0.37031 c 0.25459,-1.39636 0.8332,-2.47836 1.73583,-3.246 0.90263,-0.76761 2.02513,-1.15142 3.36751,-1.15143 0.92577,1e-5 1.77825,0.19867 2.55746,0.59596 0.77918,0.39733 1.37515,0.9393 1.7879,1.6259 0.41273,0.68663 0.6191,1.41568 0.61911,2.18714 -10e-6,0.73292 -0.19674,1.40025 -0.59018,2.00199 -0.39346,0.60177 -0.97593,1.08008 -1.7474,1.43496 1.00291,0.23145 1.78211,0.71169 2.33758,1.44073 0.55546,0.72906 0.83319,1.64133 0.8332,2.73683 -1e-5,1.48124 -0.54005,2.73683 -1.62011,3.76675 -1.08008,1.02993 -2.4456,1.54489 -4.09655,1.54489 -1.48897,0 -2.72526,-0.4436 -3.70889,-1.3308 -0.98364,-0.8872 -1.54489,-2.03671 -1.68376,-3.44852 z"
             id="path3090-3" />
        </g>
      </g>
      <path
         d="m 691.74814,466.30722 0,0 3.29998,-35.45178 -3.29998,0 -2.99998,0 2.99998,35.45178 0,0 z"
         id="63-6"
         style="fill:#d40000;fill-opacity:1;fill-rule:evenodd;stroke:none" />
    </g>
    <g
       transform="translate(17.71144,-17.805005)"
       id="g3948"
       style="fill:#00aa00">
      <g
         id="g3518"
         style="fill:#00aa00">
        <g
           transform="translate(20,-66)"
           id="4-4">
          <path
             d="m 105.83655,567.85803 0,-21.47448 2.91502,0 11.27923,16.86025 0,-16.86025 2.7246,0 0,21.47448 -2.91502,0 -11.27924,-16.8749 0,16.8749 z"
             id="path3027-8" />
        </g>
        <g
           transform="translate(20,-76)"
           id="5-8">
          <path
             d="m 105.95374,601.45978 0,-21.47449 2.84178,0 0,8.81831 11.16204,0 0,-8.81831 2.84178,0 0,21.47449 -2.84178,0 0,-10.12201 -11.16204,0 0,10.12201 z"
             id="path3030-2" />
        </g>
        <g
           transform="translate(20,-66)"
           id="15-6">
          <path
             d="m 189.60111,606.90167 c 0,-3.56442 0.95702,-6.35493 2.87108,-8.37153 1.91404,-2.01657 4.38473,-3.02486 7.41207,-3.02489 1.98239,3e-5 3.76949,0.47365 5.36129,1.42089 1.59177,0.94728 2.80514,2.26808 3.64012,3.96238 0.83493,1.69434 1.25241,3.61572 1.25243,5.76413 -2e-5,2.17773 -0.43947,4.12596 -1.31835,5.84469 -0.87892,1.71875 -2.12403,3.02001 -3.73533,3.90379 -1.61133,0.88378 -3.3496,1.32567 -5.21481,1.32567 -2.02149,0 -3.82811,-0.48827 -5.41989,-1.46483 -1.5918,-0.97656 -2.79784,-2.30955 -3.61815,-3.999 -0.82031,-1.68944 -1.23046,-3.47653 -1.23046,-5.3613 z m 2.92967,0.0439 c 0,2.58788 0.69579,4.62644 2.08739,6.11568 1.39159,1.48926 3.13718,2.23388 5.23679,2.23388 2.13864,0 3.89889,-0.75195 5.28073,-2.25585 1.38181,-1.50389 2.07272,-3.63766 2.07274,-6.40133 -2e-5,-1.74802 -0.29543,-3.27389 -0.88622,-4.57761 -0.59084,-1.30369 -1.45509,-2.31442 -2.59276,-3.03221 -1.13771,-0.71775 -2.41455,-1.07663 -3.83055,-1.07665 -2.01171,2e-5 -3.74266,0.69093 -5.19284,2.07274 -1.45019,1.38184 -2.17528,3.68896 -2.17528,6.92135 z"
             id="path3060-8" />
        </g>
        <g
           transform="translate(20,-66)"
           id="26-8">
          <path
             d="m 189.60111,458.39398 c 0,-3.56442 0.95702,-6.35493 2.87108,-8.37153 1.91404,-2.01657 4.38473,-3.02487 7.41207,-3.02489 1.98239,2e-5 3.76949,0.47365 5.36129,1.42089 1.59177,0.94728 2.80514,2.26807 3.64012,3.96238 0.83493,1.69434 1.25241,3.61572 1.25243,5.76413 -2e-5,2.17773 -0.43947,4.12596 -1.31835,5.84469 -0.87892,1.71875 -2.12403,3.02001 -3.73533,3.90379 -1.61133,0.88378 -3.3496,1.32567 -5.21481,1.32567 -2.02149,0 -3.82811,-0.48827 -5.41989,-1.46483 -1.5918,-0.97656 -2.79784,-2.30955 -3.61815,-3.999 -0.82031,-1.68944 -1.23046,-3.47654 -1.23046,-5.3613 z m 2.92967,0.0439 c 0,2.58788 0.69579,4.62644 2.08739,6.11568 1.39159,1.48926 3.13718,2.23388 5.23679,2.23388 2.13864,0 3.89889,-0.75195 5.28073,-2.25585 1.38181,-1.50389 2.07272,-3.63767 2.07274,-6.40133 -2e-5,-1.74802 -0.29543,-3.27389 -0.88622,-4.57761 -0.59084,-1.30369 -1.45509,-2.31442 -2.59276,-3.03221 -1.13771,-0.71775 -2.41455,-1.07663 -3.83055,-1.07665 -2.01171,2e-5 -3.74266,0.69093 -5.19284,2.07274 -1.45019,1.38184 -2.17528,3.68896 -2.17528,6.92135 z"
             id="path3093-7" />
        </g>
        <g
           transform="translate(20,-66)"
           id="27-4">
          <path
             d="m 213.95311,468.85291 0,-21.47449 2.84178,0 0,8.81831 11.16205,0 0,-8.81831 2.84178,0 0,21.47449 -2.84178,0 0,-10.12202 -11.16205,0 0,10.12202 z"
             id="path3096-2" />
        </g>
      </g>
      <path
         d="m 177.25111,465.05722 0,0 3.25534,-50.574 -3.25534,1.07143 -2.77678,1.20536 2.77678,48.29721 0,0 z"
         id="59-6"
         style="fill:#00aa00;fill-opacity:1;fill-rule:evenodd;stroke:none" />
    </g>
    <g
       transform="translate(17.71144,-17.805005)"
       id="g3941"
       style="stroke:#00aa00">
      <path
         d="m 177.25111,465.05722 -28.79984,16.80087"
         id="32-1"
         style="fill:none;stroke:#00aa00;stroke-width:2.09998798px;stroke-linecap:round;stroke-linejoin:round;stroke-opacity:1;stroke-dasharray:none" />
      <path
         d="M 220.15086,489.95851 177.25111,465.05722"
         id="33-9"
         style="fill:none;stroke:#00aa00;stroke-width:2.09998798px;stroke-linecap:round;stroke-linejoin:round;stroke-opacity:1;stroke-dasharray:none" />
      <path
         d="m 216.55088,489.95851 0,33.90175"
         id="49-0"
         style="fill:none;stroke:#00aa00;stroke-width:2.09998798px;stroke-linecap:round;stroke-linejoin:round;stroke-opacity:1;stroke-dasharray:none" />
      <path
         d="m 224.05084,489.95851 0,33.90175"
         id="50-0"
         style="fill:none;stroke:#00aa00;stroke-width:2.09998798px;stroke-linecap:round;stroke-linejoin:round;stroke-opacity:1;stroke-dasharray:none" />
      <path
         d="m 175.4654,416.63693 29.38556,-16.98312"
         id="65-6"
         style="fill:none;stroke:#00aa00;stroke-width:2.09998798px;stroke-linecap:round;stroke-linejoin:round;stroke-opacity:1;stroke-dasharray:none" />
    </g>
    <path
       d="m 791.12022,522.66329 3.2779,-15.68086 2.4215,0 -0.5758,2.73161 c 1.0532,-1.07294 2.0376,-1.85551 2.953,-2.3477 0.9155,-0.49217 1.8506,-0.73824 2.8055,-0.73827 1.2698,3e-5 2.2664,0.34455 2.99,1.03359 0.7234,0.68906 1.0852,1.60944 1.0852,2.76112 0,0.58078 -0.1279,1.49624 -0.3839,2.74637 l -1.9933,9.49414 -2.6725,0 2.0819,-9.93711 c 0.2066,-0.96465 0.31,-1.67832 0.31,-2.14099 0,-0.52169 -0.1797,-0.94497 -0.5389,-1.26981 -0.3593,-0.32482 -0.8786,-0.48725 -1.5578,-0.48728 -1.3682,3e-5 -2.5864,0.49222 -3.6544,1.47656 -1.068,0.98436 -1.853,2.67254 -2.3551,5.06452 l -1.5208,7.29411 z"
       id="path3905-1" />
    <g
       transform="translate(-42.229499,160.34497)"
       id="text3400">
      <path
         d="m 116.9788,419.90829 0,-3.02343 10.91601,-0.0176 0,9.5625 c -1.6758,1.33594 -3.40432,2.34082 -5.18554,3.01465 -1.78127,0.67383 -3.6094,1.01074 -5.48438,1.01074 -2.53126,0 -4.83106,-0.54199 -6.89941,-1.62598 -2.06837,-1.08398 -3.62989,-2.65136 -4.68457,-4.70215 -1.05469,-2.05077 -1.58204,-4.34178 -1.58203,-6.87304 -1e-5,-2.5078 0.52441,-4.84862 1.57324,-7.02246 1.04882,-2.17381 2.55761,-3.78807 4.52637,-4.84278 1.96874,-1.05466 4.23631,-1.582 6.80273,-1.58203 1.86326,3e-5 3.54783,0.30179 5.05371,0.90528 1.50584,0.60354 2.6865,1.44436 3.54199,2.52246 0.85545,1.07814 1.50584,2.48439 1.95117,4.21875 l -3.07617,0.84375 c -0.38674,-1.31248 -0.86721,-2.34373 -1.4414,-3.09375 -0.57424,-0.74998 -1.39455,-1.35057 -2.46094,-1.80176 -1.06642,-0.45115 -2.25002,-0.67674 -3.55078,-0.67676 -1.55861,2e-5 -2.90626,0.23733 -4.04297,0.71191 -1.13673,0.47464 -2.05372,1.09866 -2.75098,1.87208 -0.69727,0.77345 -1.23926,1.62306 -1.62597,2.54882 -0.65626,1.59377 -0.98438,3.32228 -0.98438,5.18555 0,2.29689 0.3955,4.21876 1.18652,5.76563 0.79101,1.54688 1.94238,2.69531 3.45411,3.44531 1.5117,0.75 3.11717,1.125 4.8164,1.125 1.47655,0 2.91795,-0.28418 4.32422,-0.85254 1.40623,-0.56836 2.47264,-1.1748 3.19922,-1.81934 l 0,-4.79883 z"
         id="path3460"
         style="fill:#0055d4" />
      <path
         d="m 132.42997,430.01572 0,-25.76953 3.16406,0 0,25.76953 z"
         id="path3462"
         style="fill:#0055d4" />
      <path
         d="m 140.37528,437.20517 -0.35156,-2.9707 c 0.6914,0.18749 1.29492,0.28124 1.81055,0.28125 0.70312,-10e-6 1.26562,-0.1172 1.6875,-0.35157 0.42187,-0.23437 0.76757,-0.5625 1.03711,-0.98437 0.19921,-0.31641 0.52147,-1.10157 0.96679,-2.35547 0.0586,-0.17578 0.15234,-0.43359 0.28125,-0.77344 l -7.08398,-18.70312 3.41015,0 3.88477,10.81054 c 0.5039,1.3711 0.95507,2.81251 1.35352,4.32422 0.36327,-1.45312 0.79686,-2.87108 1.30078,-4.2539 l 3.99023,-10.88086 3.16406,0 -7.10156,18.98437 c -0.76173,2.05078 -1.35352,3.46289 -1.77539,4.23633 -0.56251,1.04296 -1.20704,1.80761 -1.93359,2.29395 -0.72657,0.48632 -1.59376,0.72948 -2.60157,0.72949 -0.60937,-10e-6 -1.28906,-0.12892 -2.03906,-0.38672 z"
         id="path3464"
         style="fill:#0055d4" />
    </g>
    <g
       transform="translate(-66.250795,161.05921)"
       id="text3404">
      <path
         d="m 255.18861,421.02216 3.2168,-0.28125 c 0.15234,1.28907 0.50683,2.34668 1.06348,3.17285 0.55663,0.82617 1.42089,1.49414 2.59277,2.0039 1.17187,0.50977 2.49022,0.76465 3.95508,0.76465 1.30077,0 2.4492,-0.19335 3.44531,-0.58008 0.99608,-0.38671 1.73729,-0.91698 2.22363,-1.59082 0.48631,-0.67382 0.72948,-1.40917 0.7295,-2.20605 -2e-5,-0.80859 -0.2344,-1.51464 -0.70313,-2.11817 -0.46877,-0.6035 -1.2422,-1.11034 -2.32031,-1.5205 -0.69142,-0.26952 -2.22072,-0.68847 -4.58789,-1.25684 -2.3672,-0.56835 -4.0254,-1.10448 -4.97461,-1.6084 -1.23047,-0.64451 -2.14747,-1.44432 -2.75098,-2.39941 -0.60352,-0.95506 -0.90527,-2.0244 -0.90527,-3.20801 0,-1.30076 0.36914,-2.51658 1.10742,-3.64746 0.73828,-1.13084 1.8164,-1.98923 3.23438,-2.5752 1.41796,-0.58591 2.99413,-0.87888 4.72851,-0.8789 1.91014,2e-5 3.59471,0.30764 5.05371,0.92285 1.45897,0.61526 2.58104,1.52053 3.36621,2.71582 0.78514,1.19533 1.20701,2.54885 1.26563,4.06055 l -3.26953,0.24609 c -0.1758,-1.62889 -0.77053,-2.85935 -1.78418,-3.69141 -1.01369,-0.832 -2.51076,-1.24802 -4.49121,-1.24804 -2.06251,2e-5 -3.56544,0.37795 -4.50879,1.13379 -0.94337,0.75588 -1.41505,1.66701 -1.41504,2.7334 -1e-5,0.92579 0.33398,1.68751 1.00195,2.28515 0.65624,0.59767 2.37011,1.20998 5.1416,1.83692 2.77147,0.62696 4.67284,1.17481 5.7041,1.64355 1.49999,0.69142 2.60741,1.56739 3.32227,2.62793 0.71482,1.06056 1.07224,2.28224 1.07227,3.66504 -3e-5,1.3711 -0.3926,2.66309 -1.17774,3.87598 -0.78518,1.21289 -1.9131,2.15625 -3.38379,2.83007 -1.47072,0.67383 -3.12599,1.01075 -4.96582,1.01075 -2.33204,0 -4.28614,-0.33985 -5.8623,-1.01954 -1.57618,-0.67968 -2.81251,-1.70214 -3.70899,-3.06738 -0.89648,-1.36523 -1.36816,-2.90917 -1.41504,-4.63183 z"
         id="path3453"
         style="fill:#00aa00" />
      <path
         d="m 292.77065,423.28973 3.26953,0.4043 c -0.51565,1.91016 -1.47072,3.39258 -2.86524,4.44727 -1.39454,1.05468 -3.17579,1.58203 -5.34375,1.58203 -2.73047,0 -4.89551,-0.84082 -6.49512,-2.52246 -1.59961,-1.68164 -2.39941,-4.04004 -2.39941,-7.0752 0,-3.14061 0.80859,-5.57811 2.42578,-7.3125 1.61718,-1.73436 3.71484,-2.60154 6.29297,-2.60156 2.49608,2e-5 4.53514,0.84963 6.11719,2.54883 1.58201,1.69923 2.37303,4.08985 2.37305,7.17187 -2e-5,0.18751 -0.006,0.46876 -0.0176,0.84375 l -13.92188,0 c 0.11718,2.05079 0.69726,3.6211 1.74024,4.71094 1.04296,1.08985 2.34374,1.63477 3.90234,1.63477 1.16015,0 2.15038,-0.30469 2.9707,-0.91407 0.8203,-0.60937 1.47069,-1.58202 1.95118,-2.91797 z m -10.38868,-5.11523 10.42383,0 c -0.14064,-1.5703 -0.53908,-2.74803 -1.19531,-3.5332 -1.00783,-1.21874 -2.31447,-1.82811 -3.91992,-1.82813 -1.45314,2e-5 -2.67482,0.48635 -3.66504,1.45899 -0.99024,0.97267 -1.53809,2.27345 -1.64356,3.90234 z"
         id="path3455"
         style="fill:#00aa00" />
      <path
         d="m 299.99525,429.30145 0,-18.66797 2.84766,0 0,2.83008 c 0.72656,-1.3242 1.39746,-2.19725 2.0127,-2.61914 0.61522,-0.42185 1.29198,-0.63279 2.03027,-0.63281 1.0664,2e-5 2.15038,0.33986 3.25195,1.01953 l -1.08984,2.93555 c -0.77345,-0.45702 -1.54689,-0.68553 -2.32031,-0.68555 -0.69142,2e-5 -1.31251,0.20802 -1.86328,0.62402 -0.55079,0.41603 -0.94337,0.99318 -1.17774,1.73145 -0.35157,1.12501 -0.52735,2.35548 -0.52734,3.69141 l 0,9.77343 z"
         id="path3457"
         style="fill:#00aa00" />
    </g>
    <g
       transform="translate(-66.40957,162.48783)"
       id="text3408">
      <path
         d="m 398.40738,417.76544 0,-3.02344 10.91601,-0.0176 0,9.5625 c -1.6758,1.33594 -3.40431,2.34082 -5.18554,3.01464 -1.78127,0.67383 -3.60939,1.01075 -5.48438,1.01075 -2.53126,0 -4.83106,-0.542 -6.89941,-1.62598 -2.06837,-1.08398 -3.62989,-2.65136 -4.68457,-4.70215 -1.05469,-2.05077 -1.58203,-4.34178 -1.58203,-6.87304 0,-2.5078 0.52441,-4.84862 1.57324,-7.02247 1.04882,-2.1738 2.55761,-3.78806 4.52637,-4.84277 1.96874,-1.05466 4.23631,-1.582 6.80273,-1.58203 1.86327,3e-5 3.54783,0.30178 5.05371,0.90527 1.50584,0.60354 2.6865,1.44436 3.54199,2.52246 0.85545,1.07815 1.50584,2.4844 1.95118,4.21875 l -3.07618,0.84375 c -0.38674,-1.31248 -0.8672,-2.34373 -1.4414,-3.09375 -0.57424,-0.74997 -1.39455,-1.35056 -2.46094,-1.80175 -1.06642,-0.45115 -2.25002,-0.67674 -3.55078,-0.67676 -1.55861,2e-5 -2.90626,0.23733 -4.04297,0.71191 -1.13673,0.47463 -2.05372,1.09866 -2.75098,1.87207 -0.69727,0.77346 -1.23926,1.62307 -1.62597,2.54883 -0.65626,1.59377 -0.98438,3.32228 -0.98438,5.18555 0,2.29688 0.3955,4.21876 1.18653,5.76562 0.791,1.54688 1.94237,2.69532 3.4541,3.44532 1.5117,0.75 3.11717,1.125 4.8164,1.125 1.47655,0 2.91795,-0.28418 4.32422,-0.85254 1.40623,-0.56836 2.47264,-1.1748 3.19922,-1.81934 l 0,-4.79883 z"
         id="path3446"
         style="fill:#0055d4" />
      <path
         d="m 413.85855,427.87286 0,-25.76953 3.16406,0 0,25.76953 z"
         id="path3448"
         style="fill:#0055d4" />
      <path
         d="m 421.80386,435.06232 -0.35156,-2.97071 c 0.6914,0.1875 1.29492,0.28125 1.81055,0.28125 0.70312,0 1.26562,-0.11719 1.6875,-0.35156 0.42187,-0.23438 0.76757,-0.5625 1.03711,-0.98437 0.19921,-0.31641 0.52147,-1.10157 0.96679,-2.35547 0.0586,-0.17578 0.15234,-0.4336 0.28125,-0.77344 l -7.08398,-18.70312 3.41016,0 3.88476,10.81054 c 0.5039,1.3711 0.95507,2.81251 1.35352,4.32422 0.36327,-1.45312 0.79686,-2.87109 1.30078,-4.25391 l 3.99023,-10.88085 3.16407,0 -7.10157,18.98437 c -0.76173,2.05078 -1.35352,3.46289 -1.77539,4.23633 -0.56251,1.04296 -1.20704,1.80761 -1.93359,2.29394 -0.72657,0.48632 -1.59376,0.72949 -2.60156,0.7295 -0.60938,-1e-5 -1.28907,-0.12892 -2.03907,-0.38672 z"
         id="path3450"
         style="fill:#0055d4" />
    </g>
    <g
       transform="translate(-39.59719,148.47691)"
       id="text3412">
      <path
         d="m 487.80441,441.44431 9.89649,-25.76954 3.67383,0 10.54687,25.76954 -3.88477,0 -3.00585,-7.80469 -10.7754,0 -2.83007,7.80469 z m 7.43555,-10.58204 8.73633,0 -2.68946,-7.13671 c -0.82032,-2.16795 -1.42969,-3.9492 -1.82812,-5.34375 -0.32814,1.65236 -0.79103,3.29298 -1.38867,4.92187 z"
         id="path3439"
         style="fill:#d40000" />
      <path
         d="m 514.20676,441.44431 0,-25.76954 3.16406,0 0,25.76954 z"
         id="path3441"
         style="fill:#d40000" />
      <path
         d="m 534.47433,439.14157 c -1.17188,0.9961 -2.29981,1.69922 -3.38378,2.10938 -1.084,0.41015 -2.24708,0.61523 -3.48926,0.61523 -2.05079,0 -3.62696,-0.50098 -4.72852,-1.50293 -1.10156,-1.00195 -1.65234,-2.28222 -1.65234,-3.84082 0,-0.91406 0.208,-1.74902 0.62402,-2.50488 0.41602,-0.75585 0.96094,-1.3623 1.63477,-1.81934 0.67382,-0.45702 1.43261,-0.80272 2.27636,-1.03711 0.62109,-0.16405 1.55859,-0.32225 2.8125,-0.47461 2.55468,-0.30467 4.43554,-0.66795 5.64258,-1.08984 0.0117,-0.43358 0.0176,-0.70897 0.0176,-0.82617 -10e-6,-1.28905 -0.29884,-2.19725 -0.89648,-2.72461 -0.80861,-0.71483 -2.00978,-1.07225 -3.60352,-1.07227 -1.48829,2e-5 -2.58692,0.26076 -3.2959,0.78223 -0.70899,0.5215 -1.2334,1.44435 -1.57324,2.76855 l -3.09375,-0.42187 c 0.28125,-1.32421 0.74414,-2.39354 1.38867,-3.20801 0.64453,-0.81444 1.57617,-1.44139 2.79492,-1.88086 1.21875,-0.43943 2.63085,-0.65916 4.23633,-0.65918 1.59374,2e-5 2.88866,0.18752 3.88477,0.5625 0.99608,0.37502 1.7285,0.8467 2.19726,1.41504 0.46874,0.56838 0.79686,1.28615 0.98438,2.15332 0.10545,0.53908 0.15818,1.51173 0.1582,2.91797 l 0,4.21875 c -2e-5,2.94141 0.0674,4.80176 0.20215,5.58105 0.13475,0.7793 0.40135,1.52637 0.7998,2.24122 l -3.30468,0 c -0.32814,-0.65625 -0.53908,-1.42383 -0.63282,-2.30274 z m -0.26367,-7.06641 c -1.14845,0.46876 -2.8711,0.8672 -5.16797,1.19532 -1.30078,0.18751 -2.22071,0.39844 -2.75976,0.63281 -0.53907,0.23438 -0.95509,0.57716 -1.24805,1.02832 -0.29297,0.45118 -0.43946,0.95215 -0.43945,1.50293 -10e-6,0.84375 0.31933,1.54688 0.95801,2.10937 0.63866,0.56251 1.57323,0.84376 2.80371,0.84375 1.21874,1e-5 2.30272,-0.26659 3.25195,-0.7998 0.94921,-0.5332 1.64647,-1.26269 2.0918,-2.18848 0.33983,-0.71483 0.50975,-1.76952 0.50976,-3.16406 z"
         id="path3443"
         style="fill:#d40000" />
    </g>
    <g
       transform="translate(-29.161015,166.77353)"
       id="text3416">
      <path
         d="m 618.40735,413.47974 0,-3.02344 10.91601,-0.0176 0,9.5625 c -1.6758,1.33594 -3.40431,2.34082 -5.18554,3.01465 -1.78127,0.67383 -3.60939,1.01074 -5.48438,1.01074 -2.53126,0 -4.83106,-0.54199 -6.89941,-1.62598 -2.06837,-1.08398 -3.62989,-2.65136 -4.68457,-4.70214 -1.05469,-2.05078 -1.58204,-4.34179 -1.58203,-6.87305 -10e-6,-2.5078 0.52441,-4.84862 1.57324,-7.02246 1.04882,-2.17381 2.55761,-3.78806 4.52637,-4.84277 1.96874,-1.05467 4.23631,-1.58201 6.80273,-1.58204 1.86327,3e-5 3.54783,0.30179 5.05371,0.90528 1.50584,0.60354 2.6865,1.44436 3.54199,2.52246 0.85545,1.07814 1.50584,2.48439 1.95118,4.21875 l -3.07618,0.84375 c -0.38674,-1.31248 -0.86721,-2.34373 -1.4414,-3.09375 -0.57424,-0.74998 -1.39455,-1.35057 -2.46094,-1.80176 -1.06642,-0.45115 -2.25002,-0.67673 -3.55078,-0.67676 -1.55861,3e-5 -2.90626,0.23733 -4.04297,0.71192 -1.13673,0.47463 -2.05372,1.09865 -2.75098,1.87207 -0.69727,0.77345 -1.23926,1.62306 -1.62597,2.54883 -0.65626,1.59376 -0.98438,3.32228 -0.98438,5.18554 0,2.29689 0.3955,4.21876 1.18653,5.76563 0.791,1.54688 1.94237,2.69531 3.4541,3.44531 1.5117,0.75 3.11717,1.125 4.8164,1.125 1.47655,0 2.91795,-0.28418 4.32422,-0.85254 1.40623,-0.56835 2.47264,-1.1748 3.19922,-1.81934 l 0,-4.79882 z"
         id="path3432"
         style="fill:#0055d4" />
      <path
         d="m 633.85852,423.58716 0,-25.76953 3.16406,0 0,25.76953 z"
         id="path3434"
         style="fill:#0055d4" />
      <path
         d="m 641.80383,430.77661 -0.35156,-2.9707 c 0.6914,0.18749 1.29492,0.28124 1.81055,0.28125 0.70312,-10e-6 1.26562,-0.11719 1.6875,-0.35156 0.42187,-0.23438 0.76757,-0.56251 1.03711,-0.98438 0.19921,-0.31641 0.52147,-1.10156 0.96679,-2.35547 0.0586,-0.17578 0.15234,-0.43359 0.28125,-0.77344 l -7.08398,-18.70312 3.41016,0 3.88476,10.81055 c 0.5039,1.3711 0.95507,2.8125 1.35352,4.32422 0.36327,-1.45312 0.79686,-2.87109 1.30078,-4.25391 l 3.99023,-10.88086 3.16406,0 -7.10156,18.98437 c -0.76173,2.05078 -1.35352,3.46289 -1.77539,4.23633 -0.56251,1.04297 -1.20704,1.80761 -1.93359,2.29395 -0.72657,0.48632 -1.59376,0.72948 -2.60156,0.72949 -0.60938,-10e-6 -1.28907,-0.12891 -2.03907,-0.38672 z"
         id="path3436"
         style="fill:#0055d4" />
    </g>
    <g
       transform="translate(-41.484415,169.1912)"
       id="text3420">
      <path
         d="m 747.09015,420.73001 9.89648,-25.76953 3.67383,0 10.54688,25.76953 -3.88477,0 -3.00586,-7.80469 -10.77539,0 -2.83008,7.80469 z m 7.43555,-10.58203 8.73632,0 -2.68945,-7.13672 c -0.82032,-2.16795 -1.4297,-3.9492 -1.82812,-5.34375 -0.32814,1.65237 -0.79103,3.29299 -1.38868,4.92188 z"
         id="path3425"
         style="fill:#d40000" />
      <path
         d="m 773.49249,420.73001 0,-25.76953 3.16407,0 0,25.76953 z"
         id="path3427"
         style="fill:#d40000" />
      <path
         d="m 793.76007,418.42728 c -1.17189,0.99609 -2.29982,1.69922 -3.38379,2.10937 -1.08399,0.41016 -2.24708,0.61524 -3.48926,0.61524 -2.05078,0 -3.62695,-0.50098 -4.72851,-1.50293 -1.10157,-1.00195 -1.65235,-2.28223 -1.65235,-3.84082 0,-0.91406 0.20801,-1.74902 0.62403,-2.50489 0.41601,-0.75585 0.96093,-1.36229 1.63476,-1.81933 0.67383,-0.45702 1.43262,-0.80273 2.27637,-1.03711 0.62109,-0.16405 1.55859,-0.32226 2.8125,-0.47461 2.55468,-0.30468 4.43553,-0.66796 5.64258,-1.08985 0.0117,-0.43358 0.0176,-0.70897 0.0176,-0.82617 -2e-5,-1.28905 -0.29885,-2.19725 -0.89649,-2.72461 -0.8086,-0.71482 -2.00977,-1.07225 -3.60351,-1.07226 -1.48829,10e-6 -2.58692,0.26076 -3.2959,0.78222 -0.70899,0.5215 -1.23341,1.44435 -1.57324,2.76856 l -3.09375,-0.42188 c 0.28124,-1.3242 0.74413,-2.39353 1.38867,-3.208 0.64453,-0.81444 1.57617,-1.44139 2.79492,-1.88086 1.21874,-0.43944 2.63085,-0.65916 4.23633,-0.65918 1.59374,2e-5 2.88866,0.18752 3.88476,0.5625 0.99608,0.37502 1.7285,0.84669 2.19727,1.41504 0.46873,0.56837 0.79686,1.28614 0.98437,2.15332 0.10546,0.53907 0.15819,1.51173 0.15821,2.91797 l 0,4.21875 c -2e-5,2.94141 0.0674,4.80176 0.20215,5.58105 0.13474,0.7793 0.40135,1.52637 0.7998,2.24121 l -3.30469,0 c -0.32814,-0.65625 -0.53907,-1.42383 -0.63281,-2.30273 z m -0.26367,-7.06641 c -1.14845,0.46876 -2.87111,0.8672 -5.16797,1.19531 -1.30079,0.18751 -2.22071,0.39845 -2.75977,0.63282 -0.53906,0.23438 -0.95508,0.57715 -1.24804,1.02832 -0.29298,0.45117 -0.43946,0.95215 -0.43946,1.50293 0,0.84375 0.31934,1.54687 0.95801,2.10937 0.63867,0.5625 1.57324,0.84375 2.80371,0.84375 1.21874,0 2.30273,-0.2666 3.25196,-0.7998 0.9492,-0.5332 1.64647,-1.2627 2.09179,-2.18848 0.33983,-0.71484 0.50975,-1.76953 0.50977,-3.16406 z"
         id="path3429"
         style="fill:#d40000" />
    </g>
    <path
       d="m 774.85912,366.94262 9.8571,0 0,144.00001 -9.8571,0"
       id="path3068-1-8"
       style="fill:none;stroke:#000000;stroke-width:2.12598419;stroke-linecap:square;stroke-linejoin:miter;stroke-miterlimit:4;stroke-opacity:1;stroke-dasharray:none" />
    <path
       d="m 7.2677699,366.94262 -9.85714,0 0,144.00001 9.85714,0"
       id="path3068-1-7-4"
       style="fill:none;stroke:#000000;stroke-width:2.12598419;stroke-linecap:square;stroke-linejoin:miter;stroke-miterlimit:4;stroke-opacity:1;stroke-dasharray:none" />
  </g>
</svg>
