<?xml version="1.0" encoding="UTF-8" standalone="no"?>
<!-- Generator: Adobe Illustrator 12.0.1, SVG Export Plug-In . SVG Version: 6.00 Build 51448)  -->
<svg
   xmlns:dc="http://purl.org/dc/elements/1.1/"
   xmlns:cc="http://creativecommons.org/ns#"
   xmlns:rdf="http://www.w3.org/1999/02/22-rdf-syntax-ns#"
   xmlns:svg="http://www.w3.org/2000/svg"
   xmlns="http://www.w3.org/2000/svg"
   xmlns:sodipodi="http://sodipodi.sourceforge.net/DTD/sodipodi-0.dtd"
   xmlns:inkscape="http://www.inkscape.org/namespaces/inkscape"
   version="1.0"
   id="Layer_1"
   width="125.99279"
   height="209.41324"
   viewBox="0 0 360.625 273.416"
   style="overflow:visible"
   xml:space="preserve"
   sodipodi:version="0.32"
   inkscape:version="0.46"
   sodipodi:docname="D-Fructose.svg"
   sodipodi:docbase="E:\Eigene Dateien"
   inkscape:output_extension="org.inkscape.output.svg.inkscape"><metadata
   id="metadata234"><rdf:RDF><cc:Work
       rdf:about=""><dc:format>image/svg+xml</dc:format><dc:type
         rdf:resource="http://purl.org/dc/dcmitype/StillImage" /></cc:Work></rdf:RDF></metadata><defs
   id="defs232"><inkscape:perspective
     sodipodi:type="inkscape:persp3d"
     inkscape:vp_x="0 : 136.70799 : 1"
     inkscape:vp_y="0 : 1000 : 0"
     inkscape:vp_z="360.625 : 136.70799 : 1"
     inkscape:persp3d-origin="180.3125 : 91.138662 : 1"
     id="perspective120" /></defs><sodipodi:namedview
   inkscape:window-height="660"
   inkscape:window-width="925"
   inkscape:pageshadow="2"
   inkscape:pageopacity="0.0"
   guidetolerance="10.0"
   gridtolerance="10.0"
   objecttolerance="10.0"
   borderopacity="1.0"
   bordercolor="#666666"
   pagecolor="#ffffff"
   id="base"
   inkscape:zoom="1.3825088"
   inkscape:cx="180.3125"
   inkscape:cy="136.70799"
   inkscape:window-x="132"
   inkscape:window-y="132"
   inkscape:current-layer="Layer_1"
   showgrid="false" />
<g
   id="g3"
   transform="matrix(2.3118513,0,0,2.3118513,25.330596,-116.91219)">
	<path
   d="M 69.856,11.457 L 72.137,12.031 C 71.661,13.901 70.804,15.327 69.568,16.308 C 68.331,17.29 66.818,17.781 65.031,17.781 C 63.181,17.781 61.677,17.404 60.518,16.649 C 59.359,15.894 58.477,14.802 57.872,13.371 C 57.267,11.94 56.965,10.404 56.965,8.762 C 56.965,6.971 57.306,5.409 57.989,4.076 C 58.672,2.742 59.643,1.73 60.904,1.038 C 62.164,0.346 63.551,0 65.064,0 C 66.781,0 68.224,0.438 69.394,1.314 C 70.565,2.191 71.38,3.423 71.84,5.011 L 69.606,5.538 C 69.208,4.288 68.631,3.378 67.875,2.808 C 67.118,2.238 66.166,1.953 65.02,1.953 C 63.702,1.953 62.6,2.269 61.714,2.902 C 60.829,3.535 60.207,4.384 59.848,5.451 C 59.489,6.518 59.31,7.617 59.31,8.75 C 59.31,10.211 59.522,11.486 59.947,12.576 C 60.372,13.666 61.032,14.48 61.929,15.019 C 62.826,15.558 63.796,15.828 64.841,15.828 C 66.112,15.828 67.187,15.461 68.068,14.726 C 68.949,13.991 69.544,12.902 69.856,11.457 z"
   id="path5" />
	<path
   d="M 75.032,17.484 L 75.032,0.297 L 77.313,0.297 L 77.313,7.36 L 86.204,7.36 L 86.204,0.297 L 88.485,0.297 L 88.485,17.485 L 86.204,17.485 L 86.204,9.391 L 77.313,9.391 L 77.313,17.485 L 75.032,17.485 L 75.032,17.484 z"
   id="path7" />
</g>
<g
   id="g9"
   transform="matrix(2.3118513,0,0,2.3118513,25.330596,-116.91219)">
	<path
   d="M 98.395,20.469 L 98.395,21.985 L 89.864,21.985 C 89.852,21.604 89.914,21.238 90.05,20.885 C 90.268,20.305 90.617,19.735 91.098,19.173 C 91.578,18.611 92.268,17.962 93.168,17.225 C 94.564,16.073 95.51,15.162 96.008,14.492 C 96.506,13.822 96.755,13.188 96.755,12.589 C 96.755,11.963 96.53,11.435 96.08,11.005 C 95.63,10.575 95.043,10.36 94.32,10.36 C 93.554,10.36 92.943,10.589 92.484,11.048 C 92.025,11.506 91.793,12.142 91.787,12.953 L 90.162,12.781 C 90.273,11.566 90.693,10.639 91.422,10.002 C 92.15,9.365 93.128,9.047 94.356,9.047 C 95.595,9.047 96.576,9.39 97.298,10.076 C 98.02,10.762 98.381,11.611 98.381,12.626 C 98.381,13.143 98.275,13.649 98.064,14.147 C 97.853,14.645 97.501,15.169 97.011,15.721 C 96.52,16.272 95.707,17.029 94.571,17.99 C 93.62,18.787 93.009,19.328 92.738,19.611 C 92.467,19.896 92.242,20.181 92.065,20.468 L 98.395,20.468 L 98.395,20.469 z"
   id="path11" />
</g>
<g
   id="g13"
   transform="matrix(2.3118513,0,0,2.3118513,25.330596,-116.91219)">
	<path
   d="M 99.722,9.119 C 99.722,6.267 100.488,4.034 102.02,2.42 C 103.552,0.807 105.53,0 107.953,0 C 109.54,0 110.97,0.379 112.244,1.137 C 113.518,1.895 114.489,2.952 115.158,4.308 C 115.826,5.664 116.16,7.202 116.16,8.92 C 116.16,10.662 115.808,12.222 115.105,13.597 C 114.401,14.973 113.405,16.014 112.115,16.721 C 110.825,17.428 109.434,17.782 107.941,17.782 C 106.323,17.782 104.877,17.391 103.603,16.61 C 102.329,15.829 101.364,14.762 100.707,13.41 C 100.05,12.058 99.722,10.627 99.722,9.119 z M 102.066,9.148 C 102.066,11.218 102.623,12.849 103.737,14.041 C 104.851,15.233 106.249,15.828 107.929,15.828 C 109.641,15.828 111.05,15.226 112.157,14.023 C 113.263,12.82 113.816,11.113 113.816,8.902 C 113.816,7.504 113.58,6.283 113.107,5.24 C 112.634,4.197 111.942,3.388 111.031,2.814 C 110.12,2.24 109.098,1.953 107.965,1.953 C 106.355,1.953 104.969,2.506 103.808,3.611 C 102.647,4.716 102.066,6.563 102.066,9.148 z"
   id="path15" />
	<path
   d="M 119.171,17.484 L 119.171,0.297 L 121.452,0.297 L 121.452,7.36 L 130.343,7.36 L 130.343,0.297 L 132.624,0.297 L 132.624,17.485 L 130.343,17.485 L 130.343,9.391 L 121.452,9.391 L 121.452,17.485 L 119.171,17.485 L 119.171,17.484 z"
   id="path17" />
</g>
<path
   d="M 172.16321,-70.596553 L 176.09336,-70.596553 L 176.09336,-6.5582581 L 172.16321,-6.5582581 L 172.16321,-70.596553 z"
   id="rect19" />
<path
   d="M 176.09336,83.257161 L 174.12828,85.224547 L 172.16321,83.257161 L 172.16321,-6.5582611 L 176.09336,-6.5582611 L 176.09336,83.257161 z"
   id="polygon21" />
<path
   d="M 176.09336,174.92206 L 174.12828,176.88713 L 172.16321,174.92206 L 172.16321,87.187308 L 174.12828,85.224547 L 176.09336,87.187308 L 176.09336,174.92206 z"
   id="polygon23" />
<path
   d="M 176.09336,266.70486 L 174.12828,268.66763 L 172.16321,266.70486 L 172.16321,178.85451 L 174.12828,176.88713 L 176.09336,178.85451 L 176.09336,266.70486 z"
   id="polygon25" />
<g
   id="g27"
   transform="matrix(2.3118513,0,0,2.3118513,25.330596,-116.91219)">
	<path
   d="M 69.856,209.907 L 72.137,210.481 C 71.661,212.351 70.804,213.777 69.568,214.758 C 68.331,215.74 66.818,216.231 65.031,216.231 C 63.181,216.231 61.677,215.854 60.518,215.099 C 59.359,214.344 58.477,213.252 57.872,211.821 C 57.267,210.39 56.965,208.854 56.965,207.212 C 56.965,205.421 57.306,203.859 57.989,202.526 C 58.672,201.192 59.643,200.18 60.904,199.488 C 62.164,198.796 63.55,198.45 65.064,198.45 C 66.781,198.45 68.224,198.888 69.394,199.764 C 70.565,200.641 71.38,201.873 71.84,203.461 L 69.606,203.988 C 69.208,202.738 68.631,201.828 67.875,201.258 C 67.118,200.688 66.166,200.403 65.02,200.403 C 63.702,200.403 62.6,200.719 61.714,201.352 C 60.829,201.985 60.207,202.834 59.848,203.901 C 59.489,204.968 59.31,206.067 59.31,207.2 C 59.31,208.661 59.522,209.936 59.947,211.026 C 60.372,212.116 61.032,212.93 61.929,213.469 C 62.826,214.008 63.796,214.278 64.841,214.278 C 66.112,214.278 67.187,213.911 68.068,213.176 C 68.949,212.441 69.544,211.353 69.856,209.907 z"
   id="path29" />
	<path
   d="M 75.032,215.935 L 75.032,198.747 L 77.313,198.747 L 77.313,205.81 L 86.204,205.81 L 86.204,198.747 L 88.485,198.747 L 88.485,215.935 L 86.204,215.935 L 86.204,207.841 L 77.313,207.841 L 77.313,215.935 L 75.032,215.935 z"
   id="path31" />
</g>
<g
   id="g33"
   transform="matrix(2.3118513,0,0,2.3118513,25.330596,-116.91219)">
	<path
   d="M 98.395,218.919 L 98.395,220.435 L 89.864,220.435 C 89.852,220.054 89.914,219.688 90.05,219.335 C 90.268,218.755 90.617,218.185 91.098,217.623 C 91.578,217.061 92.268,216.412 93.168,215.675 C 94.564,214.523 95.51,213.612 96.008,212.942 C 96.506,212.272 96.755,211.638 96.755,211.039 C 96.755,210.413 96.53,209.885 96.08,209.455 C 95.63,209.025 95.043,208.81 94.32,208.81 C 93.554,208.81 92.943,209.039 92.484,209.498 C 92.025,209.956 91.793,210.592 91.787,211.403 L 90.162,211.231 C 90.273,210.016 90.693,209.089 91.422,208.452 C 92.15,207.815 93.128,207.497 94.356,207.497 C 95.595,207.497 96.576,207.84 97.298,208.526 C 98.02,209.212 98.381,210.061 98.381,211.076 C 98.381,211.593 98.275,212.099 98.064,212.597 C 97.853,213.095 97.501,213.619 97.011,214.171 C 96.52,214.722 95.707,215.479 94.571,216.44 C 93.62,217.237 93.009,217.778 92.738,218.061 C 92.467,218.346 92.242,218.631 92.065,218.918 L 98.395,218.918 L 98.395,218.919 z"
   id="path35" />
</g>
<g
   id="g37"
   transform="matrix(2.3118513,0,0,2.3118513,25.330596,-116.91219)">
	<path
   d="M 99.722,207.569 C 99.722,204.717 100.488,202.484 102.02,200.87 C 103.552,199.257 105.53,198.45 107.953,198.45 C 109.54,198.45 110.97,198.829 112.244,199.587 C 113.518,200.345 114.489,201.402 115.158,202.758 C 115.826,204.114 116.16,205.652 116.16,207.37 C 116.16,209.112 115.808,210.672 115.105,212.047 C 114.401,213.423 113.405,214.464 112.115,215.171 C 110.825,215.878 109.434,216.232 107.941,216.232 C 106.323,216.232 104.877,215.841 103.603,215.06 C 102.329,214.279 101.364,213.212 100.707,211.86 C 100.05,210.508 99.722,209.077 99.722,207.569 z M 102.066,207.599 C 102.066,209.669 102.623,211.3 103.737,212.492 C 104.851,213.684 106.249,214.279 107.929,214.279 C 109.641,214.279 111.05,213.677 112.157,212.474 C 113.263,211.271 113.816,209.564 113.816,207.353 C 113.816,205.955 113.58,204.734 113.107,203.691 C 112.634,202.648 111.942,201.839 111.031,201.265 C 110.12,200.691 109.098,200.404 107.965,200.404 C 106.355,200.404 104.969,200.957 103.808,202.062 C 102.647,203.167 102.066,205.013 102.066,207.599 z"
   id="path39" />
	<path
   d="M 119.171,215.935 L 119.171,198.747 L 121.452,198.747 L 121.452,205.81 L 130.343,205.81 L 130.343,198.747 L 132.624,198.747 L 132.624,215.935 L 130.343,215.935 L 130.343,207.841 L 121.452,207.841 L 121.452,215.935 L 119.171,215.935 z"
   id="path41" />
</g>
<path
   d="M 176.09336,336.63837 L 172.16321,336.63837 L 172.16321,270.63501 L 174.12828,268.66763 L 176.09336,270.63501 L 176.09336,336.63837 z"
   id="polygon43" />
<g
   id="g45"
   transform="matrix(2.3118513,0,0,2.3118513,25.330596,-116.91219)">
	<path
   d="M 95.819,48.819 C 95.819,45.967 96.585,43.734 98.117,42.12 C 99.649,40.507 101.627,39.7 104.05,39.7 C 105.637,39.7 107.067,40.079 108.341,40.837 C 109.615,41.595 110.586,42.652 111.255,44.008 C 111.923,45.364 112.257,46.902 112.257,48.62 C 112.257,50.362 111.905,51.922 111.202,53.297 C 110.498,54.673 109.502,55.714 108.212,56.421 C 106.922,57.128 105.531,57.482 104.038,57.482 C 102.42,57.482 100.974,57.091 99.7,56.31 C 98.426,55.529 97.461,54.462 96.804,53.11 C 96.147,51.758 95.819,50.327 95.819,48.819 z M 98.163,48.849 C 98.163,50.919 98.72,52.55 99.834,53.742 C 100.948,54.934 102.346,55.529 104.026,55.529 C 105.738,55.529 107.147,54.927 108.254,53.724 C 109.36,52.521 109.913,50.814 109.913,48.603 C 109.913,47.205 109.677,45.984 109.204,44.941 C 108.731,43.898 108.039,43.089 107.128,42.515 C 106.217,41.941 105.195,41.654 104.062,41.654 C 102.452,41.654 101.066,42.207 99.905,43.312 C 98.744,44.417 98.163,46.263 98.163,48.849 z"
   id="path47" />
</g>
<path
   d="M 174.12828,-15.340981 L 241.51875,-15.340981 L 241.51875,-11.410834 L 174.12828,-11.410834 L 174.12828,-15.340981 z"
   id="rect49" />
<path
   d="M 174.12828,-1.5877832 L 241.51875,-1.5877832 L 241.51875,2.3423639 L 174.12828,2.3423639 L 174.12828,-1.5877832 z"
   id="rect51" />
<g
   id="g53"
   transform="matrix(2.3118513,0,0,2.3118513,25.330596,-116.91219)">
	<path
   d="M 97.35,96.885 L 97.35,79.697 L 99.631,79.697 L 99.631,86.76 L 108.522,86.76 L 108.522,79.697 L 110.803,79.697 L 110.803,96.885 L 108.522,96.885 L 108.522,88.791 L 99.631,88.791 L 99.631,96.885 L 97.35,96.885 z"
   id="path55" />
</g>
<path
   d="M 245.21771,83.257161 L 245.21771,87.187308 L 176.09336,87.187308 L 174.12828,85.224547 L 176.09336,83.257161 L 245.21771,83.257161 z"
   id="polygon57" />
<g
   id="g59"
   transform="matrix(2.3118513,0,0,2.3118513,25.330596,-116.91219)">
	<path
   d="M 0,96.885 L 0,79.697 L 2.281,79.697 L 2.281,86.76 L 11.172,86.76 L 11.172,79.697 L 13.453,79.697 L 13.453,96.885 L 11.172,96.885 L 11.172,88.791 L 2.281,88.791 L 2.281,96.885 L 0,96.885 z"
   id="path61" />
	<path
   d="M 16.551,88.52 C 16.551,85.668 17.317,83.435 18.849,81.821 C 20.381,80.208 22.359,79.401 24.782,79.401 C 26.369,79.401 27.799,79.78 29.073,80.538 C 30.347,81.296 31.318,82.353 31.987,83.709 C 32.655,85.065 32.989,86.603 32.989,88.321 C 32.989,90.063 32.637,91.623 31.934,92.998 C 31.23,94.374 30.234,95.415 28.944,96.122 C 27.654,96.829 26.263,97.183 24.77,97.183 C 23.152,97.183 21.706,96.792 20.432,96.011 C 19.158,95.23 18.193,94.163 17.536,92.811 C 16.879,91.458 16.551,90.027 16.551,88.52 z M 18.895,88.549 C 18.895,90.619 19.452,92.25 20.566,93.442 C 21.68,94.634 23.078,95.229 24.758,95.229 C 26.47,95.229 27.879,94.627 28.986,93.424 C 30.092,92.221 30.645,90.514 30.645,88.303 C 30.645,86.905 30.409,85.684 29.936,84.641 C 29.463,83.598 28.771,82.789 27.86,82.215 C 26.949,81.641 25.927,81.354 24.794,81.354 C 23.184,81.354 21.798,81.907 20.637,83.012 C 19.476,84.117 18.895,85.963 18.895,88.549 z"
   id="path63" />
</g>
<path
   d="M 106.62223,87.187308 L 106.62223,83.257161 L 172.16321,83.257161 L 174.12828,85.224547 L 172.16321,87.187308 L 106.62223,87.187308 z"
   id="polygon65" />
<g
   id="g67"
   transform="matrix(2.3118513,0,0,2.3118513,25.330596,-116.91219)">
	<path
   d="M 95.819,128.169 C 95.819,125.317 96.585,123.084 98.117,121.47 C 99.649,119.857 101.627,119.05 104.05,119.05 C 105.637,119.05 107.067,119.429 108.341,120.187 C 109.615,120.945 110.586,122.002 111.255,123.358 C 111.923,124.714 112.257,126.252 112.257,127.97 C 112.257,129.712 111.905,131.272 111.202,132.647 C 110.498,134.023 109.502,135.064 108.212,135.771 C 106.922,136.478 105.531,136.832 104.038,136.832 C 102.42,136.832 100.974,136.441 99.7,135.66 C 98.426,134.879 97.461,133.812 96.804,132.46 C 96.147,131.107 95.819,129.677 95.819,128.169 z M 98.163,128.198 C 98.163,130.268 98.72,131.899 99.834,133.091 C 100.948,134.283 102.346,134.878 104.026,134.878 C 105.738,134.878 107.147,134.276 108.254,133.073 C 109.36,131.87 109.913,130.163 109.913,127.952 C 109.913,126.554 109.677,125.333 109.204,124.29 C 108.731,123.247 108.039,122.438 107.128,121.864 C 106.217,121.29 105.195,121.003 104.062,121.003 C 102.452,121.003 101.066,121.556 99.905,122.661 C 98.744,123.766 98.163,125.612 98.163,128.198 z"
   id="path69" />
	<path
   d="M 115.268,136.534 L 115.268,119.346 L 117.549,119.346 L 117.549,126.409 L 126.44,126.409 L 126.44,119.346 L 128.721,119.346 L 128.721,136.534 L 126.44,136.534 L 126.44,128.44 L 117.549,128.44 L 117.549,136.534 L 115.268,136.534 z"
   id="path71" />
</g>
<path
   d="M 241.51875,174.92206 L 241.51875,178.85451 L 176.09336,178.85451 L 174.12828,176.88713 L 176.09336,174.92206 L 241.51875,174.92206 z"
   id="polygon73" />
<g
   id="g75"
   transform="matrix(2.3118513,0,0,2.3118513,25.330596,-116.91219)">
	<path
   d="M 18,136.534 L 18,119.346 L 20.281,119.346 L 20.281,126.409 L 29.172,126.409 L 29.172,119.346 L 31.453,119.346 L 31.453,136.534 L 29.172,136.534 L 29.172,128.44 L 20.281,128.44 L 20.281,136.534 L 18,136.534 z"
   id="path77" />
</g>
<path
   d="M 103.15445,178.85451 L 103.15445,174.92206 L 172.16321,174.92206 L 174.12828,176.88713 L 172.16321,178.85451 L 103.15445,178.85451 z"
   id="polygon79" />
<g
   id="g81"
   transform="matrix(2.3118513,0,0,2.3118513,25.330596,-116.91219)">
	<path
   d="M 95.819,167.869 C 95.819,165.017 96.585,162.784 98.117,161.17 C 99.649,159.557 101.627,158.75 104.05,158.75 C 105.637,158.75 107.067,159.129 108.341,159.887 C 109.615,160.645 110.586,161.702 111.255,163.058 C 111.923,164.414 112.257,165.952 112.257,167.67 C 112.257,169.412 111.905,170.972 111.202,172.347 C 110.498,173.723 109.502,174.764 108.212,175.471 C 106.922,176.178 105.531,176.532 104.038,176.532 C 102.42,176.532 100.974,176.141 99.7,175.36 C 98.426,174.579 97.461,173.512 96.804,172.16 C 96.147,170.808 95.819,169.377 95.819,167.869 z M 98.163,167.898 C 98.163,169.968 98.72,171.599 99.834,172.791 C 100.948,173.983 102.346,174.578 104.026,174.578 C 105.738,174.578 107.147,173.976 108.254,172.773 C 109.36,171.57 109.913,169.863 109.913,167.652 C 109.913,166.254 109.677,165.033 109.204,163.99 C 108.731,162.947 108.039,162.138 107.128,161.564 C 106.217,160.99 105.195,160.703 104.062,160.703 C 102.452,160.703 101.066,161.256 99.905,162.361 C 98.744,163.466 98.163,165.313 98.163,167.898 z"
   id="path83" />
	<path
   d="M 115.268,176.234 L 115.268,159.046 L 117.549,159.046 L 117.549,166.109 L 126.44,166.109 L 126.44,159.046 L 128.721,159.046 L 128.721,176.234 L 126.44,176.234 L 126.44,168.14 L 117.549,168.14 L 117.549,176.234 L 115.268,176.234 z"
   id="path85" />
</g>
<path
   d="M 241.51875,266.70486 L 241.51875,270.63501 L 176.09336,270.63501 L 174.12828,268.66763 L 176.09336,266.70486 L 241.51875,266.70486 z"
   id="polygon87" />
<g
   id="g89"
   transform="matrix(2.3118513,0,0,2.3118513,25.330596,-116.91219)">
	<path
   d="M 18,176.234 L 18,159.046 L 20.281,159.046 L 20.281,166.109 L 29.172,166.109 L 29.172,159.046 L 31.453,159.046 L 31.453,176.234 L 29.172,176.234 L 29.172,168.14 L 20.281,168.14 L 20.281,176.234 L 18,176.234 z"
   id="path91" />
</g>
<path
   d="M 103.15445,270.63501 L 103.15445,266.70486 L 172.16321,266.70486 L 174.12828,268.66763 L 172.16321,270.63501 L 103.15445,270.63501 z"
   id="polygon93" />




























</svg>