<?xml version="1.0" encoding="UTF-8" standalone="no"?>
<!-- Created with Inkscape (http://www.inkscape.org/) -->

<svg
   xmlns:dc="http://purl.org/dc/elements/1.1/"
   xmlns:cc="http://creativecommons.org/ns#"
   xmlns:rdf="http://www.w3.org/1999/02/22-rdf-syntax-ns#"
   xmlns:svg="http://www.w3.org/2000/svg"
   xmlns="http://www.w3.org/2000/svg"
   version="1.1"
   width="620"
   height="214.58"
   id="svg2">
  <defs
     id="defs4" />
  <metadata
     id="metadata7">
    <rdf:RDF>
      <cc:Work
         rdf:about="">
        <dc:format>image/svg+xml</dc:format>
        <dc:type
           rdf:resource="http://purl.org/dc/dcmitype/StillImage" />
        <dc:title></dc:title>
      </cc:Work>
    </rdf:RDF>
  </metadata>
  <g
     transform="translate(1166.6,-477.84)"
     id="layer1">
    <path
       d="m -796.88,681.99 c -2.58,-0.84 -4.77,-2.81 -6.06,-5.41 -1.01,-2.04 -1.13,-2.76 -1.13,-6.15 0,-3.39 0.12,-4.11 1.13,-6.15 2.43,-4.95 7.48,-7.03 13.05,-5.38 4.28,1.28 6.91,5.03 7.31,10.4 0.57,7.45 -3.47,12.69 -10.06,13.1 -1.49,0.1 -3.23,-0.1 -4.24,-0.41 z m 7.84,-3.73 c 1.98,-1.56 2.99,-3.61 3.23,-6.6 0.45,-4.59 -1.29,-8.29 -4.48,-9.75 -4.16,-1.89 -8.85,0.24 -10.14,4.64 -2.14,7.25 1.45,13.46 7.55,13.07 1.86,-0.12 2.67,-0.4 3.84,-1.36 z m 10.63,-7.83 0,-11.72 1.61,0 1.62,0 0,4.85 0,4.85 6.06,0 6.06,0 0,-4.85 0,-4.85 1.62,0 1.61,0 0,11.72 0,11.72 -1.61,0 -1.62,0 0,-5.46 0,-5.45 -6.06,0 -6.06,0 0,5.45 0,5.46 -1.62,0 -1.61,0 0,-11.72 z m -194.63,-12.28 c -2.58,-0.84 -4.76,-2.81 -6.06,-5.41 -1.01,-2.04 -1.13,-2.76 -1.13,-6.15 0,-3.39 0.12,-4.11 1.13,-6.15 2.43,-4.95 7.48,-7.03 13.05,-5.37 4.29,1.27 6.91,5.02 7.32,10.39 0.56,7.46 -3.48,12.69 -10.06,13.1 -1.5,0.1 -3.24,-0.1 -4.25,-0.41 z m 7.84,-3.73 c 1.98,-1.56 2.99,-3.61 3.23,-6.6 0.45,-4.59 -1.29,-8.29 -4.48,-9.75 -4.16,-1.89 -8.85,0.24 -10.14,4.64 -2.14,7.25 1.45,13.46 7.55,13.07 1.86,-0.12 2.67,-0.4 3.84,-1.36 z m 10.63,-7.83 0,-11.71 1.61,0 1.62,0 0,4.85 0,4.84 6.06,0 6.06,0 0,-4.84 0,-4.85 1.62,0 1.61,0 0,11.71 0,11.72 -1.61,0 -1.62,0 0,-5.45 0,-5.46 -6.06,0 -6.06,0 0,5.46 0,5.45 -1.62,0 -1.61,0 0,-11.72 z m 160.4,2.12 c 0,-3.94 -0.12,-12.98 -0.24,-20.1 l -0.25,-12.92 14.79,-10.06 c 8.16,-5.53 14.75,-10.13 14.67,-10.2 -0.1,-0.1 -13.05,2.94 -28.77,6.72 -15.76,3.78 -29.09,6.87 -29.57,6.87 -1.01,0 -36.85,-9.51 -37.18,-9.86 -0.12,-0.11 -0.12,-0.65 0.1,-1.2 0.24,-0.92 0.36,-0.97 1.57,-0.63 9.62,2.8 34.79,9.26 35.03,9 0.36,-0.35 35.52,-62.59 35.84,-63.41 0.1,-0.25 -6.18,1.25 -13.9,3.33 -7.72,2.08 -15.68,4.21 -17.62,4.73 l -3.51,0.95 -0.28,-0.99 c -0.13,-0.55 0,-1.11 0.2,-1.26 0.2,-0.14 8.85,-2.5 19.11,-5.24 l 18.75,-4.98 37.33,10.33 c 20.56,5.68 37.37,10.29 37.41,10.24 0,-0.1 4.04,-7.05 8.93,-15.55 4.85,-8.49 9.05,-15.45 9.29,-15.45 0.2,0 0.69,0.22 1.05,0.5 0.57,0.44 -0.32,2.18 -7.75,15.04 -4.65,8 -8.37,14.61 -8.29,14.69 0.1,0.1 16.12,-4.54 35.64,-10.26 19.51,-5.73 35.68,-10.41 35.88,-10.41 0.36,0 34.02,19.25 34.46,19.71 0.37,0.36 -1.01,1.81 -1.49,1.62 -0.33,-0.12 -7.68,-4.31 -16.33,-9.3 -8.64,-4.99 -15.83,-9.07 -16,-9.07 -0.16,0 -6.34,12.5 -13.73,27.77 -7.44,15.28 -13.54,27.82 -13.58,27.88 0,0.1 -2.1,-1.03 -4.56,-2.42 l -4.49,-2.52 0.65,-1.01 c 0.36,-0.56 7.51,-11.48 15.88,-24.25 8.36,-12.78 15.51,-23.72 15.92,-24.31 l 0.68,-1.07 -7.39,2.18 c -4.08,1.19 -20.2,5.92 -35.88,10.5 l -28.49,8.33 -37.33,-10.33 c -20.56,-5.68 -37.37,-10.29 -37.41,-10.24 -0.93,1.38 -35.72,63.51 -35.6,63.61 0,0.1 15.36,-5.24 33.98,-11.79 18.59,-6.57 34.14,-11.94 34.51,-11.95 0.36,0 15.11,4.03 32.8,8.98 l 32.17,8.99 -0.77,2.84 c -0.45,1.56 -0.93,3.04 -1.09,3.29 -0.16,0.3 -10.43,-2.41 -30.95,-8.18 -16.89,-4.74 -30.91,-8.62 -31.19,-8.62 -0.29,0 -9.62,6.22 -20.77,13.83 l -20.28,13.84 0.2,19.49 0.2,19.5 -1.13,0 -1.17,0 0,-7.18 z m -192.2,-30.1 c -4.93,-8.5 -9.13,-15.43 -9.33,-15.39 -0.1,0 -16.1,4.54 -35.5,10.02 l -35.2,9.97 -21.1,-4.79 c -19.8,-4.48 -21.2,-4.85 -21.3,-5.68 -0.1,-0.5 0.1,-0.99 0.4,-1.1 0.4,-0.17 27.8,5.79 29.7,6.47 0.5,0.16 -22.3,-45.5 -29.5,-59.06 l -2.3,-4.51 0,-19.02 0,-19.02 1,0 1,0 0,18.14 0,18.15 1.3,0.43 c 3.6,1.16 64.7,18.64 64.8,18.54 0,-0.1 -8.5,-5.91 -19.1,-12.99 -10.5,-7.08 -19.1,-13.02 -19.1,-13.2 0,-0.53 18.6,-32.71 18.9,-32.71 0.2,0 0.7,0.25 1.1,0.54 0.7,0.51 0.1,1.54 -8.3,16.04 -4.9,8.52 -8.8,15.61 -8.6,15.76 0.2,0.15 9.8,6.7 21.5,14.54 l 21.2,14.26 29.8,-8.58 c 30.63,-8.78 30.87,-8.82 30.51,-6.93 0,0.41 -9.09,3.18 -30.01,9.19 -16.4,4.73 -30.2,8.6 -30.4,8.6 -0.5,0 -69,-19.55 -71.5,-20.4 -0.4,-0.12 -0.3,0.1 0.1,0.73 0.3,0.49 9,14.07 19.4,30.19 10.4,16.11 19,29.35 19.2,29.41 0.2,0.1 17,-4.63 37.5,-10.43 l 37.2,-10.55 34.27,11.74 c 18.78,6.46 34.26,11.69 34.34,11.62 0,-0.1 -6.34,-11.39 -14.26,-25.15 l -14.39,-25 0.93,-0.73 0.89,-0.72 2.26,3.94 c 1.26,2.17 8,13.9 14.99,26.07 6.99,12.16 12.85,22.12 13.05,22.12 0.17,0 7.24,-4 15.72,-8.89 8.49,-4.89 15.52,-8.89 15.68,-8.89 0.16,0 0.44,0.42 0.68,0.92 0.41,0.89 -0.2,1.29 -15.83,10.31 -8.93,5.16 -16.57,9.38 -16.93,9.38 -0.53,0 -60.77,-13.76 -68.4,-15.62 -0.7,-0.18 0.56,2.33 6.86,13.25 6.79,11.74 7.72,13.54 7.19,13.97 -0.36,0.27 -0.84,0.5 -1.05,0.51 -0.24,0 -4.44,-6.94 -9.37,-15.45 z m -140.63,2.78 c -2.6,-0.84 -4.8,-2.82 -6,-5.42 -1.1,-2.03 -1.2,-2.76 -1.2,-6.14 0,-3.39 0.1,-4.11 1.2,-6.16 2.4,-4.95 7.4,-7.03 13,-5.37 4.3,1.28 6.9,5.02 7.3,10.4 0.6,7.45 -3.5,12.69 -10,13.09 -1.5,0.1 -3.3,-0.1 -4.3,-0.4 z m 7.9,-3.74 c 1.9,-1.55 2.9,-3.61 3.2,-6.6 0.4,-4.58 -1.3,-8.29 -4.5,-9.74 -4.2,-1.9 -8.8,0.23 -10.1,4.63 -2.2,7.25 1.4,13.46 7.5,13.07 1.9,-0.11 2.6,-0.4 3.9,-1.36 z m -37.5,-7.82 0,-11.72 1.6,0 1.6,0 0,4.85 0,4.85 6.1,0 6.1,0 0,-4.85 0,-4.85 1.6,0 1.6,0 0,11.72 0,11.71 -1.6,0 -1.6,0 0,-5.45 0,-5.46 -6.1,0 -6.1,0 0,5.46 0,5.45 -1.6,0 -1.6,0 0,-11.71 z m 478.51,9.54 c -2.59,-0.84 -4.77,-2.82 -6.06,-5.42 -1.01,-2.03 -1.14,-2.76 -1.14,-6.14 0,-3.39 0.13,-4.11 1.14,-6.16 2.42,-4.95 7.47,-7.03 13.05,-5.37 4.28,1.28 6.91,5.02 7.31,10.4 0.57,7.45 -3.48,12.69 -10.06,13.09 -1.5,0.1 -3.23,-0.1 -4.24,-0.4 z m 7.83,-3.74 c 1.98,-1.55 2.99,-3.61 3.24,-6.6 0.44,-4.58 -1.3,-8.29 -4.49,-9.74 -4.16,-1.9 -8.85,0.23 -10.14,4.63 -2.18,7.25 1.46,13.46 7.56,13.07 1.86,-0.11 2.66,-0.4 3.83,-1.36 z m -208.64,-9.19 c -2.58,-0.84 -4.76,-2.82 -6.06,-5.42 -1.01,-2.03 -1.13,-2.76 -1.13,-6.14 0,-3.39 0.12,-4.11 1.13,-6.16 2.43,-4.95 7.48,-7.03 13.05,-5.37 4.29,1.28 6.91,5.02 7.32,10.4 0.56,7.45 -3.48,12.69 -10.06,13.09 -1.5,0.1 -3.24,-0.1 -4.25,-0.4 z m 7.84,-3.74 c 1.98,-1.55 2.99,-3.61 3.23,-6.6 0.45,-4.58 -1.29,-8.29 -4.48,-9.74 -4.16,-1.9 -8.85,0.24 -10.14,4.63 -2.14,7.25 1.45,13.46 7.55,13.08 1.86,-0.12 2.67,-0.4 3.84,-1.37 z m 277.41,-23.74 c -2.59,-0.84 -4.77,-2.81 -6.06,-5.41 -1.01,-2.04 -1.13,-2.76 -1.13,-6.15 0,-3.39 0.12,-4.11 1.13,-6.15 2.42,-4.95 7.47,-7.03 13.05,-5.37 4.28,1.27 6.91,5.02 7.31,10.39 0.57,7.46 -3.47,12.69 -10.06,13.1 -1.49,0.1 -3.23,-0.1 -4.24,-0.41 z m 7.84,-3.73 c 1.98,-1.56 2.99,-3.61 3.23,-6.6 0.45,-4.59 -1.29,-8.29 -4.48,-9.75 -4.17,-1.89 -8.85,0.24 -10.15,4.64 -2.18,7.25 1.46,13.46 7.56,13.07 1.86,-0.12 2.67,-0.4 3.84,-1.36 z m 10.62,-7.83 0,-11.71 1.62,0 1.62,0 0,4.84 0,4.85 6.06,0 6.06,0 0,-4.85 0,-4.84 1.61,0 1.62,0 0,11.71 0,11.72 -1.62,0 -1.61,0 0,-5.45 0,-5.46 -6.06,0 -6.06,0 0,5.46 0,5.45 -1.62,0 -1.62,0 0,-11.72 z m -265.73,-0.56 c -2.58,-0.84 -4.77,-2.81 -6.06,-5.41 -1.01,-2.04 -1.13,-2.76 -1.13,-6.15 0,-3.39 0.12,-4.11 1.13,-6.15 2.43,-4.95 7.48,-7.03 13.05,-5.37 4.29,1.27 6.91,5.02 7.32,10.39 0.56,7.46 -3.48,12.69 -10.07,13.1 -1.49,0.1 -3.23,-0.1 -4.24,-0.41 z m 7.84,-3.73 c 1.98,-1.56 2.99,-3.61 3.23,-6.6 0.45,-4.59 -1.29,-8.29 -4.48,-9.75 -4.16,-1.89 -8.85,0.24 -10.14,4.64 -2.14,7.25 1.45,13.46 7.55,13.07 1.86,-0.12 2.67,-0.4 3.84,-1.36 z m -37.86,-7.83 0,-11.71 1.62,0 1.62,0 0,4.84 0,4.85 6.06,0 6.06,0 0,-4.85 0,-4.84 1.61,0 1.62,0 0,11.71 0,11.72 -1.62,0 -1.61,0 0,-5.45 0,-5.46 -6.06,0 -6.06,0 0,5.46 0,5.45 -1.62,0 -1.62,0 0,-11.72 z m -93.21,10.75 c -2.58,-0.84 -4.76,-2.81 -6.06,-5.41 -1.01,-2.04 -1.13,-2.76 -1.13,-6.15 0,-3.39 0.12,-4.1 1.13,-6.15 2.43,-4.95 7.48,-7.03 13.05,-5.37 4.29,1.27 6.91,5.02 7.32,10.39 0.56,7.46 -3.48,12.69 -10.06,13.1 -1.5,0.1 -3.24,-0.1 -4.25,-0.41 z m 7.84,-3.73 c 1.98,-1.55 2.99,-3.61 3.23,-6.6 0.45,-4.59 -1.29,-8.29 -4.48,-9.75 -4.16,-1.89 -8.85,0.24 -10.14,4.64 -2.14,7.25 1.45,13.46 7.55,13.07 1.86,-0.12 2.67,-0.4 3.84,-1.36 z m 268.92,-34.65 c -2.58,-0.84 -4.76,-2.81 -6.06,-5.41 -1.01,-2.04 -1.13,-2.76 -1.13,-6.15 0,-3.39 0.12,-4.11 1.13,-6.15 2.43,-4.95 7.48,-7.03 13.05,-5.38 4.29,1.28 6.91,5.03 7.32,10.4 0.56,7.45 -3.48,12.69 -10.06,13.09 -1.5,0.1 -3.24,-0.1 -4.25,-0.4 z m 7.84,-3.73 c 1.98,-1.56 2.99,-3.61 3.23,-6.6 0.45,-4.59 -1.29,-8.3 -4.48,-9.75 -4.16,-1.89 -8.85,0.24 -10.14,4.64 -2.18,7.25 1.45,13.46 7.55,13.07 1.86,-0.12 2.67,-0.4 3.84,-1.36 z m 10.63,-7.83 0,-11.72 1.61,0 1.62,0 0,4.85 0,4.85 6.06,0 6.06,0 0,-4.85 0,-4.85 1.62,0 1.61,0 0,11.72 0,11.72 -1.61,0 -1.62,0 0,-5.46 0,-5.45 -6.06,0 -6.06,0 0,5.45 0,5.46 -1.62,0 -1.61,0 0,-11.72 z m -444.28,-3.39 c -2.6,-0.84 -4.8,-2.81 -6.1,-5.41 -1,-2.04 -1.1,-2.76 -1.1,-6.15 0,-3.39 0.1,-4.11 1.1,-6.15 2.4,-4.95 7.5,-7.03 13,-5.37 4.3,1.27 7,5.02 7.4,10.39 0.5,7.46 -3.5,12.69 -10.1,13.09 -1.5,0.1 -3.2,-0.1 -4.2,-0.4 z m 7.8,-3.73 c 2,-1.56 3,-3.61 3.2,-6.6 0.5,-4.59 -1.3,-8.29 -4.5,-9.75 -4.1,-1.89 -8.8,0.24 -10.1,4.64 -2.1,7.25 1.5,13.46 7.6,13.07 1.8,-0.12 2.6,-0.4 3.8,-1.36 z m 10.6,-7.83 0,-11.71 1.6,0 1.6,0 0,4.84 0,4.85 6.1,0 6.1,0 0,-4.85 0,-4.84 1.6,0 1.6,0 0,11.71 0,11.72 -1.6,0 -1.6,0 0,-5.46 0,-5.45 -6.1,0 -6.1,0 0,5.45 0,5.46 -1.6,0 -1.6,0 0,-11.72 z m 38.1,10.35 c -2.6,-0.84 -4.7,-2.81 -6,-5.41 -1,-2.04 -1.2,-2.76 -1.2,-6.15 0,-3.39 0.2,-4.11 1.2,-6.15 2.4,-4.95 7.4,-7.03 13,-5.38 4.3,1.28 6.9,5.03 7.3,10.4 0.6,7.45 -3.4,12.69 -10,13.09 -1.5,0.1 -3.3,-0.1 -4.3,-0.4 z m 7.9,-3.73 c 1.9,-1.56 3,-3.62 3.2,-6.61 0.4,-4.59 -1.3,-8.29 -4.5,-9.74 -4.1,-1.9 -8.8,0.24 -10.1,4.64 -2.2,7.25 1.4,13.46 7.5,13.07 1.9,-0.12 2.7,-0.4 3.9,-1.36 z m 11,-7.83 0,-11.72 1.6,0 1.6,0 0,4.85 0,4.85 6.1,0 6.1,0 0,-4.85 0,-4.85 1.6,0 1.6,0 0,11.72 0,11.72 -1.6,0 -1.6,0 0,-5.46 0,-5.45 -6.1,0 -6.1,0 0,5.45 0,5.46 -1.6,0 -1.6,0 0,-11.72 z"
       id="path3022"
       style="fill:#000000" />
  </g>
</svg>
