<?xml version="1.0" encoding="UTF-8" standalone="no"?>
<!-- Created with Inkscape (http://www.inkscape.org/) -->

<svg
   xmlns:svg="http://www.w3.org/2000/svg"
   xmlns="http://www.w3.org/2000/svg"
   version="1.1"
   width="620"
   height="302.44"
   id="svg2">
  <defs
     id="defs4" />
  <g
     transform="translate(755.9,-2414.7)"
     id="layer1">
    <path
       d="m -240.47,2706.8 c -1.87,-0.6 -3.44,-2 -4.37,-3.9 -0.73,-1.4 -0.82,-2 -0.82,-4.4 0,-2.4 0.1,-3 0.82,-4.4 1.75,-3.6 5.39,-5.1 9.41,-3.9 3.08,0.9 4.98,3.6 5.27,7.5 0.41,5.4 -2.51,9.1 -7.25,9.4 -1.08,0.1 -2.33,0 -3.06,-0.3 z m 5.65,-2.7 c 1.42,-1.1 2.15,-2.6 2.33,-4.7 0.32,-3.3 -0.93,-6 -3.24,-7.1 -3,-1.3 -6.37,0.2 -7.31,3.4 -1.57,5.2 1.05,9.7 5.45,9.4 1.34,-0.1 1.92,-0.3 2.77,-1 z m 7.66,-5.6 0,-8.5 1.16,0 1.17,0 0,3.5 0,3.5 4.37,0 4.37,0 0,-3.5 0,-3.5 1.16,0 1.17,0 0,8.5 0,8.4 -1.17,0 -1.16,0 0,-3.9 0,-3.9 -4.37,0 -4.37,0 0,3.9 0,3.9 -1.17,0 -1.16,0 0,-8.4 z m -22.72,-19.8 c -3.44,-6 -6.38,-11 -6.55,-11.2 -0.24,-0.4 -5.01,0.9 -25.84,6.8 l -25.54,7.3 -14.65,-3.3 c -8.07,-1.9 -15,-3.4 -15.41,-3.5 -0.61,-0.2 -0.73,-0.4 -0.61,-0.9 0.1,-0.4 0.29,-0.8 0.49,-0.8 0.24,0 5.07,1.1 10.78,2.4 5.71,1.3 10.46,2.3 10.51,2.2 0.15,-0.1 -22.16,-44.4 -22.63,-44.9 -0.14,-0.1 -5.33,1.1 -13.42,3.3 -7.26,1.9 -13.23,3.5 -13.26,3.5 0,-0.1 -0.11,-0.4 -0.23,-0.8 l -0.17,-0.8 13.74,-3.7 13.75,-3.6 24.18,6.9 c 13.31,3.9 24.2,7 24.23,6.9 0.1,0 -6.15,-4.2 -13.72,-9.3 l -13.81,-9.3 0,-13.7 0,-13.6 0.88,0 0.87,0 0.1,13.3 0.1,13.3 15.55,10.5 15.55,10.4 21.53,-6.2 c 22.19,-6.3 22.25,-6.3 21.99,-4.9 0,0.2 -7.4,2.5 -21.85,6.6 l -21.81,6.3 -25.81,-7.5 c -14.21,-4.1 -25.83,-7.4 -25.86,-7.4 -0.1,0.1 27.49,43.1 27.84,43.5 0.12,0.1 12.35,-3.2 27.18,-7.4 l 26.97,-7.7 24.67,8.5 c 13.57,4.7 24.73,8.5 24.79,8.4 0,-0.1 -4.58,-8.2 -10.26,-18.1 -5.68,-9.8 -10.34,-18 -10.34,-18.2 0,-0.1 0.29,-0.3 0.64,-0.5 0.64,-0.3 1.11,0.5 11.45,18.5 5.91,10.3 10.84,18.7 10.95,18.7 0.12,0 5.27,-3 11.51,-6.5 10.25,-6 11.36,-6.6 11.71,-6.1 0.2,0.3 0.32,0.6 0.26,0.8 -0.15,0.4 -23.25,13.8 -23.86,13.8 -0.26,0 -11.53,-2.5 -25.05,-5.7 -13.48,-3.1 -24.61,-5.6 -24.72,-5.6 -0.1,0.1 2.33,4.4 5.36,9.7 5.21,9 5.5,9.6 5.01,10 -0.3,0.2 -0.65,0.4 -0.73,0.4 -0.1,0 -2.97,-4.9 -6.41,-10.8 z m -101.56,1.6 c -1.87,-0.6 -3.44,-2 -4.37,-3.9 -0.73,-1.4 -0.82,-2 -0.82,-4.4 0,-2.4 0.1,-3 0.82,-4.4 1.74,-3.6 5.39,-5.1 9.41,-3.9 3.08,0.9 4.98,3.6 5.27,7.5 0.4,5.4 -2.51,9.1 -7.26,9.4 -1.07,0.1 -2.33,0 -3.05,-0.3 z m 5.65,-2.7 c 1.42,-1.1 2.15,-2.6 2.33,-4.7 0.32,-3.3 -0.94,-6 -3.24,-7.1 -3,-1.3 -6.37,0.2 -7.31,3.4 -1.57,5.2 1.05,9.7 5.45,9.4 1.34,-0.1 1.92,-0.3 2.77,-1 z m -27,-5.6 0,-8.5 1.16,0 1.17,0 0,3.5 0,3.5 4.37,0 4.36,0 0,-3.5 0,-3.5 1.17,0 1.16,0 0,8.5 0,8.4 -1.16,0 -1.17,0 0,-3.9 0,-3.9 -4.36,0 -4.37,0 0,3.9 0,3.9 -1.17,0 -1.16,0 0,-8.4 z m 199.89,-2.4 c -1.86,-0.6 -3.44,-2.1 -4.37,-4 -0.73,-1.4 -0.81,-1.9 -0.81,-4.4 0,-2.4 0.1,-2.9 0.81,-4.4 1.75,-3.6 5.39,-5.1 9.41,-3.9 3.09,0.9 4.98,3.6 5.27,7.5 0.41,5.4 -2.5,9.2 -7.25,9.5 -1.08,0 -2.33,-0.1 -3.06,-0.3 z m 5.65,-2.7 c 1.43,-1.2 2.16,-2.6 2.33,-4.8 0.32,-3.3 -0.93,-6 -3.23,-7 -3,-1.4 -6.38,0.1 -7.31,3.3 -1.58,5.3 1.05,9.7 5.44,9.4 1.34,0 1.93,-0.2 2.77,-0.9 z m 7.95,-5.7 0,-8.4 1.17,0 1.16,0 0,3.5 0,3.4 4.37,0 4.37,0 0,-3.4 0,-3.5 1.16,0 1.17,0 0,8.4 0,8.5 -1.17,0 -1.16,0 0,-4 0,-3.9 -4.37,0 -4.37,0 0,3.9 0,4 -1.16,0 -1.17,0 0,-8.5 z m -219.52,-10.9 c -1.87,-0.6 -3.44,-2 -4.37,-3.9 -0.73,-1.4 -0.82,-2 -0.82,-4.4 0,-2.4 0.1,-3 0.82,-4.4 1.75,-3.6 5.39,-5.1 9.41,-3.9 3.08,0.9 4.98,3.6 5.27,7.5 0.41,5.4 -2.51,9.1 -7.25,9.4 -1.08,0.1 -2.33,0 -3.06,-0.3 z m 5.65,-2.7 c 1.43,-1.1 2.15,-2.6 2.33,-4.7 0.32,-3.3 -0.93,-6 -3.23,-7.1 -3,-1.3 -6.38,0.2 -7.32,3.4 -1.57,5.2 1.05,9.7 5.45,9.4 1.34,-0.1 1.92,-0.3 2.77,-1 z m 139.1,-7.2 c -1.86,-0.6 -3.43,-2 -4.36,-3.9 -0.73,-1.5 -0.82,-2 -0.82,-4.4 0,-2.4 0.1,-3 0.82,-4.4 1.74,-3.6 5.38,-5.1 9.4,-3.9 3.09,0.9 4.98,3.6 5.28,7.5 0.4,5.4 -2.51,9.1 -7.26,9.4 -1.07,0.1 -2.33,0 -3.06,-0.3 z m 5.66,-2.7 c 1.42,-1.1 2.15,-2.6 2.33,-4.7 0.32,-3.3 -0.94,-6 -3.24,-7.1 -3,-1.3 -6.38,0.2 -7.31,3.4 -1.57,5.2 1.05,9.7 5.45,9.4 1.34,-0.1 1.92,-0.3 2.77,-1 z m -148.46,-20.1 0,-13.9 -24.61,-5.7 c -13.55,-3.1 -24.61,-5.7 -24.61,-5.7 0,0.1 2.41,4.3 5.38,9.5 2.98,5.1 5.48,9.5 5.57,9.7 0.1,0.2 -0.18,0.5 -0.56,0.7 -0.67,0.3 -0.84,0.1 -6.93,-10.4 -3.41,-6 -6.35,-11 -6.52,-11.3 -0.29,-0.4 -3.67,0.5 -25.6,6.7 -13.89,4 -25.55,7.2 -25.9,7.2 -0.35,0 -7.42,-1.5 -15.7,-3.4 l -15.07,-3.4 0.18,-0.7 c 0.1,-0.4 0.2,-0.8 0.22,-0.9 0,0 4.88,1.1 10.79,2.5 5.92,1.3 10.81,2.4 10.86,2.3 0.1,-0.1 -22.5,-44.9 -22.75,-45.2 0,-0.1 -5.88,1.5 -13.01,3.4 -7.12,1.9 -13.13,3.4 -13.34,3.3 -0.21,0 -0.34,-0.4 -0.29,-0.8 0.1,-0.5 1.23,-0.9 13.58,-4.2 l 13.5,-3.6 22.33,6.4 c 27.46,7.9 26.27,7.6 26.27,7.5 0,0 -6.23,-4.2 -13.84,-9.4 l -13.83,-9.2 0,-13.8 0,-13.8 0.87,0 0.87,0 0,13.4 0,13.3 15.51,10.5 c 8.53,5.7 15.69,10.4 15.95,10.4 0.23,-0.1 9.82,-2.8 21.32,-6.1 11.48,-3.3 21,-6 21.15,-6 0.35,0 0.78,1.2 0.55,1.4 -0.1,0.1 -9.9,2.9 -21.79,6.4 l -21.61,6.2 -25.76,-7.4 c -14.17,-4.1 -25.8,-7.4 -25.86,-7.4 -0.1,0.1 6.19,9.9 13.87,21.8 10.39,16.2 14.09,21.7 14.47,21.6 0.28,0 12.3,-3.4 26.72,-7.5 14.42,-4 26.42,-7.4 26.65,-7.5 0.38,0 13.89,4.6 43.6,14.8 l 6.2,2.2 -0.55,-1.1 c -0.32,-0.6 -4.95,-8.7 -10.31,-18 -8.56,-14.8 -9.7,-16.9 -9.29,-17.2 0.26,-0.2 0.61,-0.4 0.76,-0.4 0.17,0 5.21,8.5 11.15,18.9 l 10.87,18.9 0,14.4 0,14.5 -0.73,0 -0.73,0 0,-13.9 z m -36.32,12.3 c -1.87,-0.6 -3.44,-2 -4.37,-3.9 -0.73,-1.4 -0.82,-2 -0.82,-4.4 0,-2.5 0.1,-2.9 0.82,-4.4 1.75,-3.6 5.39,-5.1 9.41,-3.9 3.08,0.9 4.98,3.6 5.27,7.5 0.41,5.4 -2.51,9.1 -7.25,9.4 -1.08,0.1 -2.33,0 -3.06,-0.3 z m 5.65,-2.7 c 1.43,-1.1 2.15,-2.5 2.33,-4.7 0.32,-3.3 -0.93,-6 -3.23,-7.1 -3,-1.3 -6.38,0.2 -7.31,3.4 -1.58,5.2 1.04,9.7 5.44,9.4 1.34,-0.1 1.92,-0.3 2.77,-1 z m 7.66,-5.6 0,-8.5 1.16,0 1.17,0 0,3.5 0,3.5 4.37,0 4.37,0 0,-3.5 0,-3.5 1.16,0 1.17,0 0,8.5 0,8.4 -1.17,0 -1.16,0 0,-3.9 0,-3.9 -4.37,0 -4.37,0 0,3.9 0,3.9 -1.17,0 -1.16,0 0,-8.4 z m -124.29,-18.2 c -1.85,-0.6 -3.44,-2 -4.36,-3.9 -0.72,-1.4 -0.82,-2 -0.82,-4.4 0,-2.4 0.1,-3 0.82,-4.4 1.76,-3.6 5.39,-5.1 9.4,-3.9 3.09,0.9 4.98,3.6 5.28,7.5 0.4,5.4 -2.5,9.1 -7.25,9.4 -1.08,0.1 -2.35,0 -3.07,-0.3 z m 5.67,-2.7 c 1.41,-1.1 2.13,-2.6 2.33,-4.7 0.3,-3.3 -0.93,-6 -3.24,-7.1 -3.01,-1.3 -6.38,0.2 -7.32,3.4 -1.55,5.2 1.04,9.7 5.46,9.4 1.33,-0.1 1.9,-0.3 2.77,-1 z m -27.3,-5.6 0,-8.5 1.16,0 1.17,0 0,3.5 0,3.5 4.37,0 4.37,0 0,-3.5 0,-3.5 1.16,0 1.17,0 0,8.5 0,8.4 -1.17,0 -1.16,0 0,-3.9 0,-3.9 -4.37,0 -4.37,0 0,3.9 0,3.9 -1.17,0 -1.16,0 0,-8.4 z m 225.81,0.8 c -1.86,-0.6 -3.43,-2.1 -4.37,-4 -0.72,-1.4 -0.81,-1.9 -0.81,-4.4 0,-2.4 0.1,-2.9 0.81,-4.4 1.75,-3.6 5.39,-5.1 9.41,-3.9 3.09,0.9 4.98,3.6 5.27,7.5 0.41,5.4 -2.5,9.2 -7.25,9.5 -1.08,0 -2.33,-0.1 -3.06,-0.3 z m 5.65,-2.7 c 1.43,-1.1 2.16,-2.6 2.33,-4.8 0.32,-3.3 -0.93,-6 -3.23,-7 -3,-1.4 -6.38,0.1 -7.31,3.3 -1.57,5.3 1.05,9.7 5.45,9.5 1.34,-0.1 1.92,-0.3 2.76,-1 z m 7.66,-5.7 0,-8.4 1.17,0 1.16,0 0,3.5 0,3.5 4.37,0 4.37,0 0,-3.5 0,-3.5 1.17,0 1.16,0 0,8.4 0,8.5 -1.16,0 -1.17,0 0,-4 0,-3.9 -4.37,0 -4.37,0 0,3.9 0,4 -1.16,0 -1.17,0 0,-8.5 z m -244.86,-14.1 c -1.86,-0.6 -3.45,-2 -4.37,-3.9 -0.72,-1.4 -0.82,-2 -0.82,-4.4 0,-2.4 0.1,-3 0.82,-4.4 1.76,-3.6 5.39,-5.1 9.4,-3.9 3.09,0.9 4.99,3.6 5.28,7.5 0.4,5.4 -2.5,9.1 -7.25,9.4 -1.08,0.1 -2.34,0 -3.06,-0.3 z m 5.66,-2.7 c 1.41,-1.1 2.13,-2.6 2.33,-4.7 0.3,-3.3 -0.93,-6 -3.24,-7 -3.01,-1.4 -6.38,0.1 -7.32,3.3 -1.55,5.2 1.04,9.7 5.46,9.4 1.33,-0.1 1.9,-0.3 2.77,-1 z m 139.1,-7.2 c -1.87,-0.6 -3.44,-2 -4.37,-3.9 -0.73,-1.4 -0.82,-2 -0.82,-4.4 0,-2.4 0.1,-3 0.82,-4.4 1.75,-3.6 5.39,-5.1 9.41,-3.9 3.08,0.9 4.98,3.6 5.27,7.5 0.4,5.4 -2.51,9.1 -7.26,9.4 -1.07,0.1 -2.33,0 -3.05,-0.3 z m 5.65,-2.7 c 1.42,-1.1 2.15,-2.6 2.33,-4.7 0.32,-3.3 -0.93,-6 -3.24,-7 -3,-1.4 -6.37,0.1 -7.31,3.3 -1.57,5.2 1.05,9.7 5.45,9.4 1.34,-0.1 1.92,-0.3 2.77,-1 z m -148.82,-20.2 -0.1,-14 -24.31,-5.6 c -13.38,-3.2 -24.36,-5.6 -24.39,-5.6 0,0.1 2.39,4.4 5.45,9.7 4.98,8.6 5.48,9.6 5.04,9.9 -0.29,0.2 -0.64,0.3 -0.82,0.3 -0.14,-0.1 -3.17,-5.1 -6.69,-11.2 l -6.41,-11.1 -0.88,0.3 c -0.46,0.1 -12,3.4 -25.6,7.3 l -24.73,7 -15.32,-3.5 c -15.05,-3.4 -15.32,-3.5 -15.23,-4.2 0,-0.3 0.12,-0.7 0.18,-0.7 0,-0.1 4.95,0.9 10.86,2.3 5.88,1.3 10.75,2.4 10.81,2.4 0.1,-0.1 -22.58,-45 -22.84,-45.3 0,0 -6.06,1.5 -13.37,3.5 -7.31,2 -13.34,3.5 -13.4,3.4 -0.1,0 -0.14,-0.4 -0.2,-0.8 -0.1,-0.6 0.17,-0.7 13.66,-4.4 l 13.75,-3.6 23.97,6.9 c 13.19,3.8 24.06,6.9 24.17,6.8 0.15,0 -5.91,-4.1 -13.45,-9.2 l -13.66,-9.2 0,-13.7 0,-13.8 0.72,0 0.73,0 0,13.2 0,13.3 15.47,10.3 c 8.5,5.8 15.7,10.5 15.93,10.6 0.26,0.1 10.05,-2.7 21.76,-6 11.68,-3.4 21.26,-6.1 21.29,-6.1 0,0.1 0.14,0.4 0.26,0.8 l 0.18,0.7 -21.64,6.3 c -11.92,3.4 -21.85,6.2 -22.08,6.1 -0.24,0 -11.91,-3.3 -25.92,-7.3 -14.04,-4.1 -25.55,-7.4 -25.61,-7.4 -0.2,0.2 27.82,43.6 28.14,43.6 0.2,0 12.38,-3.4 27.09,-7.6 l 26.71,-7.6 24.3,8.4 c 13.37,4.5 24.55,8.4 24.84,8.5 0.34,0 -3,-6 -9.84,-17.9 -9.58,-16.7 -10.32,-18.1 -9.83,-18.4 0.29,-0.2 0.64,-0.4 0.79,-0.3 0.14,0.1 5.16,8.6 11.14,19 l 10.89,18.9 0,14.5 0,14.5 -0.88,0 -0.87,0 -0.1,-14 z m -36.25,12.2 c -1.87,-0.6 -3.44,-2.1 -4.37,-4 -0.73,-1.4 -0.82,-1.9 -0.82,-4.4 0,-2.4 0.1,-2.9 0.82,-4.4 1.75,-3.6 5.39,-5.1 9.41,-3.9 3.08,0.9 4.98,3.6 5.27,7.5 0.4,5.4 -2.51,9.2 -7.25,9.5 -1.08,0 -2.33,-0.1 -3.06,-0.3 z m 5.65,-2.7 c 1.43,-1.1 2.15,-2.6 2.33,-4.8 0.31,-3.3 -0.93,-6 -3.23,-7 -3,-1.4 -6.38,0.1 -7.31,3.3 -1.55,5.3 1.04,9.7 5.44,9.4 1.34,0 1.9,-0.2 2.77,-0.9 z m 7.95,-5.7 0,-8.4 1.17,0 1.16,0 0,3.5 0,3.5 4.37,0 4.37,0 0,-3.5 0,-3.5 1.16,0 1.17,0 0,8.4 0,8.5 -1.17,0 -1.16,0 0,-4 0,-3.9 -4.37,0 -4.37,0 0,3.9 0,4 -1.16,0 -1.17,0 0,-8.5 z m -124.28,-17.8 c -1.86,-0.7 -3.44,-2.1 -4.37,-4 -0.73,-1.4 -0.82,-2 -0.82,-4.4 0,-2.4 0.1,-2.9 0.82,-4.4 1.75,-3.6 5.39,-5.1 9.41,-3.9 3.09,0.9 4.98,3.6 5.27,7.5 0.41,5.4 -2.5,9.2 -7.25,9.4 -1.08,0.1 -2.33,0 -3.06,-0.2 z m 5.65,-2.8 c 1.43,-1.1 2.16,-2.5 2.33,-4.7 0.32,-3.3 -0.93,-6 -3.23,-7 -3,-1.4 -6.38,0.1 -7.31,3.3 -1.55,5.2 1.04,9.7 5.44,9.4 1.34,-0.1 1.9,-0.3 2.77,-1 z m -27.29,-5.6 0,-8.5 1.16,0 1.17,0 0,3.5 0,3.5 4.37,0 4.37,0 0,-3.5 0,-3.5 1.16,0 1.17,0 0,8.5 0,8.4 -1.17,0 -1.16,0 0,-3.9 0,-3.9 -4.37,0 -4.37,0 0,3.9 0,3.9 -1.17,0 -1.16,0 0,-8.4 z m 225.81,0.8 c -1.85,-0.6 -3.44,-2.1 -4.36,-4 -0.72,-1.4 -0.82,-1.9 -0.82,-4.4 0,-2.4 0.1,-2.9 0.82,-4.4 1.75,-3.6 5.39,-5.1 9.39,-3.9 3.09,1 4.99,3.6 5.28,7.5 0.41,5.4 -2.49,9.2 -7.25,9.5 -1.08,0 -2.34,-0.1 -3.06,-0.3 z m 5.66,-2.7 c 1.41,-1.1 2.14,-2.6 2.33,-4.8 0.3,-3.3 -0.93,-6 -3.23,-7 -3.01,-1.4 -6.38,0.2 -7.32,3.3 -1.56,5.3 1.04,9.7 5.46,9.5 1.32,-0.1 1.9,-0.3 2.76,-1 z m 7.65,-5.7 0,-8.4 1.17,0 1.16,0 0,3.5 0,3.5 4.37,0 4.37,0 0,-3.5 0,-3.5 1.17,0 1.16,0 0,8.4 0,8.5 -1.16,0 -1.17,0 0,-4 0,-3.9 -4.37,0 -4.37,0 0,3.9 0,4 -1.16,0 -1.17,0 0,-8.5 z m -244.86,-14 c -1.86,-0.7 -3.44,-2.1 -4.37,-4 -0.73,-1.4 -0.81,-2 -0.81,-4.4 0,-2.5 0.1,-2.9 0.81,-4.4 1.75,-3.6 5.39,-5.1 9.41,-3.9 3.09,0.9 4.98,3.6 5.27,7.5 0.41,5.4 -2.5,9.2 -7.25,9.4 -1.08,0.1 -2.33,0 -3.06,-0.2 z m 5.65,-2.8 c 1.43,-1.1 2.16,-2.5 2.33,-4.7 0.32,-3.3 -0.93,-6 -3.23,-7.1 -3,-1.3 -6.38,0.2 -7.31,3.4 -1.58,5.2 1.05,9.7 5.44,9.4 1.34,-0.1 1.9,-0.3 2.77,-1 z m -27.29,-5.6 0,-8.5 1.17,0 1.16,0 0,3.5 0,3.5 4.37,0 4.37,0 0,-3.5 0,-3.5 1.16,0 1.17,0 0,8.5 0,8.4 -1.17,0 -1.16,0 0,-3.9 0,-3.9 -4.37,0 -4.37,0 0,3.9 0,3.9 -1.16,0 -1.17,0 0,-8.4 z m 166.4,-1.9 c -1.87,-0.6 -3.44,-2 -4.37,-3.9 -0.73,-1.4 -0.82,-2 -0.82,-4.4 0,-2.4 0.1,-3 0.82,-4.4 1.75,-3.6 5.39,-5.1 9.4,-3.9 3.09,0.9 4.98,3.6 5.28,7.5 0.4,5.4 -2.5,9.1 -7.25,9.4 -1.08,0.1 -2.33,0 -3.06,-0.3 z m 5.66,-2.6 c 1.41,-1.2 2.13,-2.7 2.33,-4.8 0.3,-3.3 -0.93,-6 -3.24,-7 -3.01,-1.4 -6.38,0.1 -7.32,3.3 -1.57,5.2 1.05,9.7 5.46,9.4 1.33,0 1.9,-0.3 2.77,-0.9 z m -91.58,-41.9 c -1.87,-0.6 -3.44,-2.1 -4.37,-3.9 -0.73,-1.5 -0.82,-2 -0.82,-4.5 0,-2.4 0.1,-2.9 0.82,-4.4 1.74,-3.6 5.39,-5.1 9.4,-3.9 3.09,0.9 4.99,3.6 5.28,7.5 0.4,5.4 -2.51,9.2 -7.26,9.5 -1.07,0 -2.33,-0.1 -3.05,-0.3 z m 5.65,-2.7 c 1.42,-1.1 2.15,-2.6 2.33,-4.8 0.32,-3.3 -0.94,-6 -3.24,-7 -3,-1.4 -6.38,0.2 -7.31,3.3 -1.54,5.3 1.05,9.7 5.45,9.4 1.34,0 1.89,-0.2 2.77,-0.9 z m 7.66,-5.7 0,-8.4 1.16,0 1.17,0 0,3.5 0,3.5 4.37,0 4.36,0 0,-3.5 0,-3.5 1.17,0 1.16,0 0,8.4 0,8.5 -1.16,0 -1.17,0 0,-3.9 0,-4 -4.36,0 -4.37,0 0,4 0,3.9 -1.17,0 -1.16,0 0,-8.5 z"
       id="path2846"
       style="fill:#000000" />
  </g>
</svg>
