<?xml version="1.0" encoding="UTF-8" standalone="no"?>
<!-- Generator: Adobe Illustrator 12.0.1, SVG Export Plug-In . SVG Version: 6.00 Build 51448)  -->
<svg
   xmlns:dc="http://purl.org/dc/elements/1.1/"
   xmlns:cc="http://web.resource.org/cc/"
   xmlns:rdf="http://www.w3.org/1999/02/22-rdf-syntax-ns#"
   xmlns:svg="http://www.w3.org/2000/svg"
   xmlns="http://www.w3.org/2000/svg"
   xmlns:sodipodi="http://sodipodi.sourceforge.net/DTD/sodipodi-0.dtd"
   xmlns:inkscape="http://www.inkscape.org/namespaces/inkscape"
   version="1.1"
   id="Layer_1"
   width="318.771"
   height="215.131"
   viewBox="0 0 318.771 215.131"
   style="overflow:visible;enable-background:new 0 0 318.771 215.131;"
   xml:space="preserve"
   sodipodi:version="0.32"
   inkscape:version="0.45.1"
   sodipodi:docname="Maltose.svg"
   inkscape:output_extension="org.inkscape.output.svg.inkscape"
   sodipodi:docbase="C:\"><metadata
   id="metadata114"><rdf:RDF><cc:Work
       rdf:about=""><dc:format>image/svg+xml</dc:format><dc:type
         rdf:resource="http://purl.org/dc/dcmitype/StillImage" /></cc:Work></rdf:RDF></metadata><defs
   id="defs112" /><sodipodi:namedview
   inkscape:window-height="579"
   inkscape:window-width="801"
   inkscape:pageshadow="2"
   inkscape:pageopacity="0.0"
   guidetolerance="10.0"
   gridtolerance="10.0"
   objecttolerance="10.0"
   borderopacity="1.0"
   bordercolor="#666666"
   pagecolor="#ffffff"
   id="base"
   inkscape:zoom="1.757069"
   inkscape:cx="159.3855"
   inkscape:cy="107.5655"
   inkscape:window-x="110"
   inkscape:window-y="110"
   inkscape:current-layer="Layer_1" />
<g
   id="g3"
   transform="matrix(0.95,0,0,0.95,7.969275,5.3783)">
	<path
   style="fill:#231f20"
   d="M 131.319,67.769 C 131.319,64.916 132.085,62.684 133.617,61.071 C 135.149,59.457 137.127,58.65 139.55,58.65 C 141.137,58.65 142.567,59.029 143.841,59.787 C 145.115,60.546 146.086,61.602 146.755,62.958 C 147.424,64.314 147.757,65.852 147.757,67.57 C 147.757,69.313 147.405,70.872 146.702,72.247 C 145.999,73.622 145.002,74.664 143.712,75.371 C 142.422,76.078 141.031,76.432 139.538,76.432 C 137.92,76.432 136.474,76.041 135.2,75.26 C 133.926,74.479 132.961,73.411 132.304,72.06 C 131.647,70.709 131.319,69.277 131.319,67.769 z M 133.663,67.798 C 133.663,69.868 134.22,71.499 135.334,72.691 C 136.448,73.883 137.846,74.478 139.526,74.478 C 141.238,74.478 142.647,73.876 143.754,72.673 C 144.86,71.47 145.413,69.763 145.413,67.552 C 145.413,66.154 145.177,64.933 144.704,63.89 C 144.231,62.847 143.539,62.038 142.628,61.464 C 141.717,60.89 140.695,60.603 139.562,60.603 C 137.952,60.603 136.566,61.156 135.405,62.261 C 134.244,63.366 133.663,65.212 133.663,67.798 z "
   id="path5" />
</g>
<path
   style="fill:#231f20"
   d="M 88.920675,97.4656 L 86.641625,100.6006 L 81.416625,98.0356 L 67.356625,68.8706 L 67.831625,67.9206 L 69.731625,69.2981 L 88.920675,97.4656 z "
   id="polygon7" />
<path
   style="fill:#231f20"
   d="M 125.30663,87.9656 L 123.12068,91.0056 L 123.59568,93.4281 L 89.491625,102.3581 L 86.641625,100.6006 L 88.920675,97.4656 L 125.30663,87.9656 z "
   id="polygon9" />
<path
   style="fill:#231f20"
   d="M 157.55817,99.8406 L 159.36317,101.4081 L 158.55663,102.0256 L 126.63663,95.4706 L 123.12068,91.0056 L 125.30663,87.9656 L 157.55817,99.8406 z "
   id="polygon11" />
<path
   style="fill:#231f20"
   d="M 145.49413,78.9881 L 146.91913,78.1806 L 160.17067,101.1706 L 159.36317,101.4081 L 157.55817,99.8406 L 145.49413,78.9881 z "
   id="polygon13" />
<path
   style="fill:#231f20"
   d="M 104.02567,79.1306 L 104.07413,78.2756 L 104.45413,77.3731 L 130.34162,70.5806 L 130.76913,72.1481 L 104.02567,79.1306 z "
   id="polygon15" />
<path
   style="fill:#231f20"
   d="M 69.731625,69.2981 L 67.831625,67.9206 L 67.831625,67.1131 L 102.36318,76.9456 L 104.07413,78.2756 L 104.02567,79.1306 L 69.731625,69.2981 z "
   id="polygon17" />
<path
   style="fill:#231f20"
   d="M 160.17067,129.2906 L 158.55663,129.2906 L 158.55663,102.0256 L 159.36317,101.4081 L 160.17067,101.1706 L 160.17067,129.2906 z "
   id="polygon19" />
<g
   id="g21"
   transform="matrix(0.95,0,0,0.95,7.969275,5.3783)">
	<path
   style="fill:#231f20"
   d="M 0,85.584 L 0,68.396 L 2.281,68.396 L 2.281,75.459 L 11.172,75.459 L 11.172,68.396 L 13.453,68.396 L 13.453,85.584 L 11.172,85.584 L 11.172,77.49 L 2.281,77.49 L 2.281,85.584 L 0,85.584 L 0,85.584 z "
   id="path23" />
	<path
   style="fill:#231f20"
   d="M 16.551,77.219 C 16.551,74.366 17.317,72.134 18.849,70.521 C 20.381,68.907 22.359,68.1 24.782,68.1 C 26.369,68.1 27.799,68.479 29.073,69.237 C 30.347,69.996 31.318,71.052 31.987,72.408 C 32.656,73.764 32.989,75.302 32.989,77.02 C 32.989,78.763 32.637,80.322 31.934,81.697 C 31.231,83.072 30.234,84.114 28.944,84.821 C 27.654,85.528 26.263,85.882 24.77,85.882 C 23.152,85.882 21.706,85.491 20.432,84.71 C 19.158,83.929 18.193,82.861 17.536,81.51 C 16.879,80.159 16.551,78.728 16.551,77.219 z M 18.895,77.248 C 18.895,79.318 19.452,80.949 20.566,82.141 C 21.68,83.333 23.078,83.928 24.758,83.928 C 26.47,83.928 27.879,83.326 28.986,82.123 C 30.092,80.92 30.645,79.213 30.645,77.002 C 30.645,75.604 30.409,74.383 29.936,73.34 C 29.463,72.297 28.771,71.488 27.86,70.914 C 26.949,70.34 25.927,70.053 24.794,70.053 C 23.184,70.053 21.798,70.606 20.637,71.711 C 19.476,72.816 18.895,74.662 18.895,77.248 z "
   id="path25" />
</g>
<path
   style="fill:#231f20"
   d="M 41.231625,75.9006 L 40.804125,74.3331 L 67.831625,67.1131 L 67.831625,67.9206 L 67.356625,68.8706 L 41.231625,75.9006 z "
   id="polygon27" />
<g
   id="g29"
   transform="matrix(0.95,0,0,0.95,7.969275,5.3783)">
	<path
   style="fill:#231f20"
   d="M 37.2,102.884 L 37.2,85.696 L 39.481,85.696 L 39.481,92.759 L 48.372,92.759 L 48.372,85.696 L 50.653,85.696 L 50.653,102.884 L 48.372,102.884 L 48.372,94.79 L 39.481,94.79 L 39.481,102.884 L 37.2,102.884 z "
   id="path31" />
	<path
   style="fill:#231f20"
   d="M 53.751,94.519 C 53.751,91.666 54.517,89.434 56.049,87.821 C 57.581,86.207 59.559,85.4 61.982,85.4 C 63.569,85.4 64.999,85.779 66.273,86.537 C 67.547,87.296 68.518,88.352 69.187,89.708 C 69.856,91.064 70.189,92.602 70.189,94.32 C 70.189,96.063 69.837,97.622 69.134,98.997 C 68.431,100.372 67.434,101.414 66.144,102.121 C 64.854,102.828 63.463,103.182 61.97,103.182 C 60.352,103.182 58.906,102.791 57.632,102.01 C 56.358,101.229 55.393,100.161 54.736,98.81 C 54.079,97.459 53.751,96.027 53.751,94.519 z M 56.095,94.548 C 56.095,96.618 56.652,98.249 57.766,99.441 C 58.88,100.633 60.278,101.228 61.958,101.228 C 63.67,101.228 65.079,100.626 66.186,99.423 C 67.292,98.22 67.845,96.513 67.845,94.302 C 67.845,92.904 67.609,91.683 67.136,90.64 C 66.663,89.597 65.971,88.788 65.06,88.214 C 64.149,87.64 63.127,87.353 61.994,87.353 C 60.384,87.353 58.998,87.906 57.837,89.011 C 56.676,90.116 56.095,91.962 56.095,94.548 z "
   id="path33" />
</g>
<path
   style="fill:#231f20"
   d="M 76.429125,98.1306 L 76.950675,96.5631 L 81.416625,98.0356 L 86.641625,100.6006 L 89.491625,102.3581 L 76.429125,98.1306 z "
   id="polygon35" />
<g
   id="g37"
   transform="matrix(0.95,0,0,0.95,7.969275,5.3783)">
	<path
   style="fill:#231f20"
   d="M 116.45,133.984 L 116.45,116.796 L 118.731,116.796 L 118.731,123.859 L 127.622,123.859 L 127.622,116.796 L 129.903,116.796 L 129.903,133.984 L 127.622,133.984 L 127.622,125.89 L 118.731,125.89 L 118.731,133.984 L 116.45,133.984 z "
   id="path39" />
	<path
   style="fill:#231f20"
   d="M 133.001,125.619 C 133.001,122.766 133.767,120.534 135.299,118.921 C 136.831,117.307 138.809,116.5 141.232,116.5 C 142.819,116.5 144.249,116.879 145.523,117.637 C 146.797,118.396 147.768,119.452 148.437,120.808 C 149.106,122.164 149.439,123.702 149.439,125.42 C 149.439,127.163 149.087,128.722 148.384,130.097 C 147.681,131.472 146.684,132.514 145.394,133.221 C 144.104,133.928 142.713,134.282 141.22,134.282 C 139.602,134.282 138.156,133.891 136.882,133.11 C 135.608,132.329 134.643,131.261 133.986,129.91 C 133.329,128.559 133.001,127.128 133.001,125.619 z M 135.345,125.648 C 135.345,127.718 135.902,129.349 137.016,130.541 C 138.13,131.733 139.528,132.328 141.208,132.328 C 142.92,132.328 144.329,131.726 145.436,130.523 C 146.542,129.32 147.095,127.613 147.095,125.402 C 147.095,124.004 146.859,122.783 146.386,121.74 C 145.913,120.697 145.221,119.888 144.31,119.314 C 143.399,118.74 142.377,118.453 141.244,118.453 C 139.634,118.453 138.248,119.006 137.087,120.111 C 135.926,121.216 135.345,123.063 135.345,125.648 z "
   id="path41" />
</g>
<path
   style="fill:#231f20"
   d="M 137.75068,114.7081 L 136.32567,115.5156 L 123.59568,93.4281 L 123.12068,91.0056 L 126.63663,95.4706 L 137.75068,114.7081 z "
   id="polygon43" />
<g
   id="g45"
   transform="matrix(0.95,0,0,0.95,7.969275,5.3783)">
	<path
   style="fill:#231f20"
   d="M 266.019,132.419 C 266.019,129.566 266.785,127.334 268.318,125.721 C 269.849,124.107 271.828,123.3 274.25,123.3 C 275.838,123.3 277.268,123.679 278.541,124.437 C 279.815,125.196 280.787,126.252 281.455,127.608 C 282.123,128.964 282.457,130.502 282.457,132.22 C 282.457,133.963 282.105,135.522 281.402,136.897 C 280.699,138.272 279.702,139.314 278.412,140.021 C 277.123,140.728 275.731,141.082 274.238,141.082 C 272.621,141.082 271.174,140.691 269.9,139.91 C 268.626,139.129 267.662,138.061 267.004,136.71 C 266.346,135.359 266.019,133.928 266.019,132.419 z M 268.362,132.448 C 268.362,134.518 268.919,136.149 270.034,137.341 C 271.147,138.532 272.546,139.128 274.225,139.128 C 275.938,139.128 277.346,138.526 278.454,137.323 C 279.559,136.12 280.112,134.413 280.112,132.202 C 280.112,130.804 279.876,129.583 279.403,128.54 C 278.93,127.497 278.238,126.688 277.327,126.114 C 276.417,125.54 275.395,125.253 274.261,125.253 C 272.652,125.253 271.265,125.806 270.105,126.911 C 268.942,128.017 268.362,129.862 268.362,132.448 z "
   id="path47" />
</g>
<path
   style="fill:#231f20"
   d="M 216.93317,158.8831 L 214.65412,161.9706 L 209.38163,159.4531 L 195.36913,130.2881 L 195.79567,129.3381 L 197.69567,130.7156 L 216.93317,158.8831 z "
   id="polygon49" />
<path
   style="fill:#231f20"
   d="M 253.27067,149.3356 L 251.13317,152.4231 L 251.56162,154.7981 L 217.45663,163.7281 L 214.65412,161.9706 L 216.93317,158.8831 L 253.27067,149.3356 z "
   id="polygon51" />
<path
   style="fill:#231f20"
   d="M 285.57067,161.2581 L 287.37568,162.7781 L 286.56912,163.44405 L 254.60068,156.8406 L 251.13317,152.4231 L 253.27067,149.3356 L 285.57067,161.2581 z "
   id="polygon53" />
<path
   style="fill:#231f20"
   d="M 273.50662,140.40655 L 274.88317,139.5981 L 288.18318,162.5881 L 287.37568,162.7781 L 285.57067,161.2581 L 273.50662,140.40655 z "
   id="polygon55" />
<path
   style="fill:#231f20"
   d="M 232.03818,140.5481 L 232.03818,139.69405 L 232.41913,138.74405 L 258.35413,131.9506 L 258.73317,133.51905 L 232.03818,140.5481 z "
   id="polygon57" />
<path
   style="fill:#231f20"
   d="M 197.69567,130.7156 L 195.79567,129.3381 L 195.79567,128.4831 L 230.32912,138.3631 L 232.03818,139.69405 L 232.03818,140.5481 L 197.69567,130.7156 z "
   id="polygon59" />
<g
   id="g61"
   transform="matrix(0.95,0,0,0.95,7.969275,5.3783)">
	<path
   style="fill:#231f20"
   d="M 285.869,206.469 C 285.869,203.616 286.635,201.384 288.167,199.771 C 289.699,198.157 291.677,197.35 294.1,197.35 C 295.687,197.35 297.117,197.729 298.391,198.487 C 299.665,199.246 300.636,200.302 301.304,201.658 C 301.973,203.013 302.307,204.552 302.307,206.27 C 302.307,208.013 301.955,209.572 301.251,210.947 C 300.548,212.322 299.552,213.364 298.262,214.071 C 296.972,214.778 295.581,215.132 294.088,215.132 C 292.47,215.132 291.024,214.741 289.75,213.96 C 288.476,213.179 287.511,212.111 286.854,210.76 C 286.197,209.407 285.869,207.978 285.869,206.469 z M 288.213,206.498 C 288.213,208.568 288.77,210.199 289.884,211.391 C 290.998,212.583 292.396,213.178 294.076,213.178 C 295.788,213.178 297.197,212.576 298.304,211.373 C 299.409,210.17 299.963,208.463 299.963,206.252 C 299.963,204.854 299.727,203.633 299.253,202.59 C 298.78,201.547 298.089,200.738 297.178,200.164 C 296.267,199.59 295.245,199.303 294.112,199.303 C 292.502,199.303 291.116,199.856 289.955,200.961 C 288.794,202.066 288.213,203.912 288.213,206.498 z "
   id="path63" />
	<path
   style="fill:#231f20"
   d="M 305.318,214.834 L 305.318,197.646 L 307.599,197.646 L 307.599,204.709 L 316.49,204.709 L 316.49,197.646 L 318.771,197.646 L 318.771,214.834 L 316.49,214.834 L 316.49,206.74 L 307.6,206.74 L 307.6,214.834 L 305.318,214.834 z "
   id="path65" />
</g>
<path
   style="fill:#231f20"
   d="M 288.18318,190.7081 L 286.56912,190.7081 L 286.56912,163.44405 L 287.37568,162.7781 L 288.18318,162.5881 L 288.18318,190.7081 z "
   id="polygon67" />
<g
   id="g69"
   transform="matrix(0.95,0,0,0.95,7.969275,5.3783)">
	<path
   style="fill:#231f20"
   d="M 151.169,141.819 C 151.169,138.966 151.935,136.734 153.467,135.121 C 154.999,133.507 156.977,132.7 159.4,132.7 C 160.987,132.7 162.417,133.079 163.691,133.837 C 164.964,134.596 165.936,135.652 166.605,137.008 C 167.273,138.363 167.607,139.902 167.607,141.62 C 167.607,143.363 167.255,144.922 166.552,146.297 C 165.848,147.672 164.851,148.714 163.562,149.421 C 162.272,150.128 160.881,150.482 159.388,150.482 C 157.77,150.482 156.324,150.091 155.05,149.31 C 153.776,148.529 152.811,147.461 152.154,146.11 C 151.497,144.759 151.169,143.328 151.169,141.819 z M 153.513,141.849 C 153.513,143.919 154.07,145.55 155.184,146.742 C 156.298,147.934 157.696,148.529 159.376,148.529 C 161.088,148.529 162.497,147.927 163.604,146.724 C 164.711,145.521 165.263,143.814 165.263,141.603 C 165.263,140.205 165.027,138.984 164.554,137.941 C 164.08,136.898 163.388,136.089 162.478,135.515 C 161.568,134.941 160.545,134.654 159.412,134.654 C 157.802,134.654 156.416,135.207 155.255,136.312 C 154.094,137.417 153.513,139.263 153.513,141.849 z "
   id="path71" />
</g>
<path
   style="fill:#231f20"
   d="M 169.19567,137.31905 L 168.76913,135.7506 L 195.79567,128.4831 L 195.79567,129.3381 L 195.36913,130.2881 L 169.19567,137.31905 z "
   id="polygon73" />
<g
   id="g75"
   transform="matrix(0.95,0,0,0.95,7.969275,5.3783)">
	<path
   style="fill:#231f20"
   d="M 171.95,167.484 L 171.95,150.296 L 174.231,150.296 L 174.231,157.359 L 183.122,157.359 L 183.122,150.296 L 185.403,150.296 L 185.403,167.484 L 183.122,167.484 L 183.122,159.39 L 174.231,159.39 L 174.231,167.484 L 171.95,167.484 z "
   id="path77" />
	<path
   style="fill:#231f20"
   d="M 188.501,159.119 C 188.501,156.266 189.267,154.034 190.799,152.421 C 192.331,150.807 194.309,150 196.732,150 C 198.319,150 199.75,150.379 201.023,151.137 C 202.296,151.896 203.268,152.952 203.937,154.308 C 204.605,155.663 204.939,157.202 204.939,158.92 C 204.939,160.663 204.587,162.222 203.884,163.597 C 203.18,164.972 202.183,166.014 200.894,166.721 C 199.604,167.428 198.212,167.782 196.72,167.782 C 195.102,167.782 193.656,167.391 192.382,166.61 C 191.108,165.829 190.143,164.761 189.486,163.41 C 188.829,162.058 188.501,160.628 188.501,159.119 z M 190.845,159.148 C 190.845,161.218 191.402,162.849 192.516,164.041 C 193.63,165.233 195.028,165.828 196.708,165.828 C 198.42,165.828 199.829,165.226 200.936,164.023 C 202.043,162.82 202.595,161.113 202.595,158.902 C 202.595,157.504 202.359,156.283 201.886,155.24 C 201.412,154.197 200.72,153.388 199.81,152.814 C 198.9,152.24 197.877,151.953 196.744,151.953 C 195.134,151.953 193.748,152.506 192.587,153.611 C 191.426,154.716 190.845,156.563 190.845,159.148 z "
   id="path79" />
</g>
<path
   style="fill:#231f20"
   d="M 204.44162,159.5006 L 204.91662,157.98155 L 209.38163,159.4531 L 214.65412,161.9706 L 217.45663,163.7281 L 204.44162,159.5006 z "
   id="polygon81" />
<path
   style="fill:#231f20"
   d="M 212.27912,107.0606 L 214.13163,107.0606 L 232.41913,138.74405 L 232.03818,139.69405 L 230.32912,138.3631 L 212.27912,107.0606 z "
   id="polygon83" />
<g
   id="g85"
   transform="matrix(0.95,0,0,0.95,7.969275,5.3783)">
	<path
   style="fill:#231f20"
   d="M 251.15,198.584 L 251.15,181.396 L 253.431,181.396 L 253.431,188.459 L 262.322,188.459 L 262.322,181.396 L 264.603,181.396 L 264.603,198.584 L 262.322,198.584 L 262.322,190.49 L 253.431,190.49 L 253.431,198.584 L 251.15,198.584 z "
   id="path87" />
	<path
   style="fill:#231f20"
   d="M 267.701,190.219 C 267.701,187.366 268.467,185.134 269.999,183.521 C 271.531,181.907 273.509,181.1 275.932,181.1 C 277.519,181.1 278.949,181.479 280.223,182.237 C 281.497,182.996 282.468,184.052 283.136,185.408 C 283.805,186.763 284.139,188.302 284.139,190.02 C 284.139,191.763 283.787,193.322 283.083,194.697 C 282.38,196.072 281.384,197.114 280.094,197.821 C 278.804,198.528 277.413,198.882 275.92,198.882 C 274.302,198.882 272.856,198.491 271.582,197.71 C 270.308,196.929 269.343,195.861 268.686,194.51 C 268.029,193.157 267.701,191.728 267.701,190.219 z M 270.045,190.248 C 270.045,192.318 270.602,193.949 271.716,195.141 C 272.83,196.333 274.228,196.928 275.908,196.928 C 277.62,196.928 279.029,196.326 280.136,195.123 C 281.241,193.92 281.795,192.213 281.795,190.002 C 281.795,188.604 281.559,187.383 281.085,186.34 C 280.612,185.297 279.921,184.488 279.01,183.914 C 278.099,183.34 277.077,183.053 275.944,183.053 C 274.334,183.053 272.948,183.606 271.787,184.711 C 270.626,185.816 270.045,187.662 270.045,190.248 z "
   id="path89" />
</g>
<path
   style="fill:#231f20"
   d="M 265.71662,176.1256 L 264.33818,176.9331 L 251.56162,154.7981 L 251.13317,152.4231 L 254.60068,156.8406 L 265.71662,176.1256 z "
   id="polygon91" />
<path
   style="fill:#231f20"
   d="M 84.266625,45.6431 L 86.119125,45.6431 L 104.45413,77.3731 L 104.07413,78.2756 L 102.36318,76.9456 L 84.266625,45.6431 z "
   id="polygon93" />
<g
   id="g95"
   transform="matrix(0.95,0,0,0.95,7.969275,5.3783)">
	<path
   style="fill:#231f20"
   d="M 92.919,9.119 C 92.919,6.266 93.685,4.034 95.217,2.421 C 96.749,0.807 98.727,0 101.149,0 C 102.736,0 104.166,0.379 105.44,1.137 C 106.714,1.896 107.685,2.952 108.354,4.308 C 109.023,5.664 109.356,7.202 109.356,8.92 C 109.356,10.663 109.004,12.222 108.301,13.597 C 107.598,14.972 106.601,16.014 105.311,16.721 C 104.021,17.428 102.63,17.782 101.137,17.782 C 99.519,17.782 98.073,17.391 96.799,16.61 C 95.525,15.829 94.56,14.761 93.903,13.41 C 93.246,12.059 92.919,10.628 92.919,9.119 z M 95.263,9.148 C 95.263,11.218 95.82,12.849 96.934,14.041 C 98.048,15.233 99.446,15.828 101.126,15.828 C 102.838,15.828 104.247,15.226 105.354,14.023 C 106.46,12.82 107.013,11.113 107.013,8.902 C 107.013,7.504 106.777,6.283 106.304,5.24 C 105.831,4.197 105.139,3.388 104.228,2.814 C 103.317,2.24 102.295,1.953 101.162,1.953 C 99.552,1.953 98.166,2.506 97.005,3.611 C 95.844,4.716 95.263,6.563 95.263,9.148 z "
   id="path97" />
	<path
   style="fill:#231f20"
   d="M 112.368,17.484 L 112.368,0.297 L 114.649,0.297 L 114.649,7.36 L 123.54,7.36 L 123.54,0.297 L 125.821,0.297 L 125.821,17.485 L 123.54,17.485 L 123.54,9.391 L 114.649,9.391 L 114.649,17.485 L 112.368,17.485 L 112.368,17.484 z "
   id="path99" />
</g>
<path
   style="fill:#231f20"
   d="M 97.708175,22.3681 L 99.086625,23.1756 L 86.119125,45.6431 L 84.266625,45.6431 L 97.708175,22.3681 z "
   id="polygon101" />
<g
   id="g103"
   transform="matrix(0.95,0,0,0.95,7.969275,5.3783)">
	<path
   style="fill:#231f20"
   d="M 227.619,73.769 C 227.619,70.916 228.385,68.684 229.917,67.071 C 231.449,65.457 233.427,64.65 235.85,64.65 C 237.437,64.65 238.867,65.029 240.141,65.787 C 241.415,66.546 242.386,67.602 243.054,68.958 C 243.723,70.313 244.057,71.852 244.057,73.57 C 244.057,75.313 243.705,76.872 243.001,78.247 C 242.298,79.622 241.302,80.664 240.012,81.371 C 238.722,82.078 237.331,82.432 235.838,82.432 C 234.22,82.432 232.774,82.041 231.5,81.26 C 230.226,80.479 229.261,79.411 228.604,78.06 C 227.947,76.707 227.619,75.277 227.619,73.769 z M 229.963,73.798 C 229.963,75.868 230.52,77.499 231.634,78.691 C 232.748,79.883 234.146,80.478 235.826,80.478 C 237.538,80.478 238.947,79.876 240.054,78.673 C 241.159,77.47 241.713,75.763 241.713,73.552 C 241.713,72.154 241.477,70.933 241.003,69.89 C 240.53,68.847 239.839,68.038 238.928,67.464 C 238.017,66.89 236.995,66.603 235.862,66.603 C 234.252,66.603 232.866,67.156 231.705,68.261 C 230.544,69.366 229.963,71.212 229.963,73.798 z "
   id="path105" />
	<path
   style="fill:#231f20"
   d="M 247.068,82.134 L 247.068,64.946 L 249.349,64.946 L 249.349,72.009 L 258.24,72.009 L 258.24,64.946 L 260.521,64.946 L 260.521,82.134 L 258.24,82.134 L 258.24,74.04 L 249.349,74.04 L 249.349,82.134 L 247.068,82.134 z "
   id="path107" />
</g>
<path
   style="fill:#231f20"
   d="M 225.67413,83.7856 L 227.09913,84.5931 L 214.13163,107.0606 L 212.27912,107.0606 L 225.67413,83.7856 z "
   id="polygon109" />
</svg>