<?xml version="1.0" encoding="UTF-8" standalone="no"?>
<!-- Created with Inkscape (http://www.inkscape.org/) -->

<svg
   xmlns:svg="http://www.w3.org/2000/svg"
   xmlns="http://www.w3.org/2000/svg"
   version="1.1"
   width="620"
   height="414.04"
   id="svg2">
  <defs
     id="defs4" />
  <g
     transform="translate(737.86,-1291.5)"
     id="layer1">
    <path
       d="m -316.91,1695.1 c -2.48,-0.8 -4.57,-2.7 -5.8,-5.1 -0.97,-2 -1.09,-2.7 -1.09,-5.9 0,-3.3 0.12,-4 1.09,-5.9 2.32,-4.8 7.15,-6.8 12.49,-5.2 4.1,1.3 6.62,4.9 7,10 0.54,7.1 -3.32,12.1 -9.63,12.5 -1.43,0.1 -3.1,0 -4.06,-0.4 z m 7.5,-3.5 c 1.9,-1.5 2.87,-3.5 3.1,-6.4 0.42,-4.4 -1.24,-7.9 -4.3,-9.3 -3.98,-1.8 -8.47,0.3 -9.71,4.5 -2.09,6.9 1.4,12.8 7.24,12.5 1.78,-0.1 2.55,-0.4 3.67,-1.3 z m 10.18,-7.5 0,-11.2 1.54,0 1.55,0 0,4.6 0,4.6 5.8,0 5.81,0 0,-4.6 0,-4.6 1.54,0 1.55,0 0,11.2 0,11.2 -1.55,0 -1.54,0 0,-5.2 0,-5.2 -5.81,0 -5.8,0 0,5.2 0,5.2 -1.55,0 -1.54,0 0,-11.2 z m 135.9,-6.8 c -2.48,-0.8 -4.57,-2.7 -5.81,-5.1 -0.96,-2 -1.08,-2.7 -1.08,-5.9 0,-3.3 0.12,-4 1.08,-5.9 2.32,-4.8 7.16,-6.8 12.5,-5.2 4.1,1.3 6.61,4.9 7,10 0.54,7.1 -3.33,12.1 -9.63,12.5 -1.43,0.1 -3.1,0 -4.06,-0.4 z m 7.5,-3.5 c 1.9,-1.5 2.86,-3.5 3.1,-6.4 0.42,-4.4 -1.24,-7.9 -4.3,-9.3 -3.98,-1.8 -8.47,0.3 -9.71,4.5 -2.09,6.9 1.39,12.9 7.24,12.5 1.78,-0.1 2.55,-0.4 3.67,-1.3 z m 10.18,-7.5 0,-11.2 1.54,0 1.55,0 0,4.6 0,4.7 5.8,0 5.81,0 0,-4.7 0,-4.6 1.54,0 1.55,0 0,11.2 0,11.2 -1.55,0 -1.54,0 0,-5.2 0,-5.2 -5.81,0 -5.8,0 0,5.2 0,5.2 -1.55,0 -1.54,0 0,-11.2 z m -168.67,-12.1 0,-16 -22.98,-23.4 c -12.64,-12.8 -23.12,-23.4 -23.29,-23.5 -0.17,0 -2.29,7.4 -4.72,16.5 -2.43,9.2 -4.54,16.9 -4.69,17.1 -0.32,0.5 -1.92,0.1 -1.92,-0.5 0,-0.2 2.17,-8.4 4.84,-18.3 l 4.83,-18 0,-25.6 0,-25.6 15.92,-9.2 c 15.67,-9 15.98,-9.2 16.44,-8.3 0.39,0.7 0.35,0.9 -0.19,1.4 -0.35,0.2 -7.31,4.3 -15.47,9 l -14.78,8.5 0,24.4 c 0,13.4 0.13,24.3 0.29,24.2 0.17,-0.1 14.64,-7.3 32.13,-16.1 17.52,-8.8 31.91,-15.9 31.99,-15.9 0,0.1 0.27,0.5 0.54,1 0.43,0.8 -0.66,1.4 -31.72,17 -26.87,13.4 -32.08,16.2 -31.63,16.6 0.29,0.3 11.41,9.2 24.7,19.9 l 24.18,19.3 28.13,0 28.16,0 0,-13.5 0,-13.6 1.16,0 1.16,0 0.1,11.6 0.11,11.7 21.86,-17.5 c 12.03,-9.5 22.09,-17.6 22.36,-17.9 0.43,-0.4 -0.66,-1.1 -6.27,-4 -3.75,-2 -6.88,-3.6 -7,-3.6 -0.11,0 -0.19,3.8 -0.19,8.3 l 0,8.3 -1.55,0 -1.55,0 0,-5.2 0,-5.2 -5.8,0 -5.8,0 0,5.2 0,5.2 -1.55,0 -1.55,0 0,-11.2 0,-11.2 1.55,0 1.55,0 0,4.7 0,4.6 5.8,0 5.8,0 0,-2.6 0,-2.6 -22.9,-11.7 c -12.61,-6.4 -22.98,-11.8 -23.02,-12 -0.1,-0.2 0.12,-0.7 0.39,-1 0.47,-0.7 2.01,0 22.94,10.7 19.5,10 22.4,11.3 22.52,10.7 0.11,-0.6 0.42,-0.8 1.66,-0.8 l 1.51,0 0,1.7 0,1.6 8.7,4.4 8.71,4.3 0,25.7 0,25.6 15.74,9.1 c 8.67,5 15.78,9.3 15.86,9.5 0,0.2 -0.15,0.6 -0.42,1 -0.47,0.6 -1.9,-0.1 -16.91,-8.8 l -16.4,-9.5 -0.19,-24.5 -0.2,-24.5 -21.47,21.7 -21.47,21.9 -32.03,0 -31.99,0 0,17.4 0,17.5 -0.97,0 -0.97,0 0,-16 z m -64.1,-3.9 c -2.47,-0.8 -4.58,-2.7 -5.8,-5.2 -0.96,-2 -1.09,-2.7 -1.09,-5.9 0,-3.2 0.13,-3.9 1.09,-5.9 2.33,-4.7 7.16,-6.7 12.48,-5.2 4.1,1.3 6.62,4.9 7.01,10 0.54,7.1 -3.31,12.2 -9.63,12.6 -1.43,0 -3.11,-0.1 -4.06,-0.4 z m 7.52,-3.6 c 1.87,-1.5 2.83,-3.5 3.09,-6.3 0.4,-4.4 -1.23,-8 -4.3,-9.4 -4,-1.8 -8.47,0.3 -9.72,4.5 -2.06,6.9 1.38,12.9 7.25,12.5 1.76,-0.1 2.52,-0.4 3.68,-1.3 z m -66.32,-22 c -2.46,-0.8 -4.58,-2.7 -5.8,-5.1 -0.96,-2 -1.09,-2.7 -1.09,-5.9 0,-3.3 0.13,-4 1.09,-5.9 2.33,-4.8 7.16,-6.8 12.48,-5.2 4.1,1.2 6.62,4.8 7.01,10 0.54,7.1 -3.31,12.1 -9.63,12.5 -1.43,0.1 -3.11,-0.1 -4.06,-0.4 z m 7.52,-3.6 c 1.87,-1.4 2.83,-3.4 3.09,-6.3 0.4,-4.4 -1.23,-7.9 -4.3,-9.3 -4,-1.8 -8.47,0.2 -9.72,4.5 -2.06,6.9 1.38,12.8 7.25,12.5 1.76,-0.2 2.52,-0.4 3.68,-1.4 z m 50.09,2.7 c -0.23,-0.8 -2.37,-8.7 -4.75,-17.7 -2.38,-8.9 -4.35,-16.3 -4.38,-16.3 -0.1,-0.1 -65.4,-15.2 -65.46,-15.1 0,0.1 3.23,5.7 7.24,12.7 4,6.9 7.29,12.7 7.29,13 0,0.7 -1.57,1.1 -1.97,0.4 -0.19,-0.2 -4.04,-6.9 -8.56,-14.7 -4.51,-7.8 -8.42,-14.2 -8.67,-14.2 -0.25,0 -15.14,4.1 -33.08,9.2 -17.94,5.1 -33.11,9.4 -33.69,9.6 -0.75,0.2 -7.27,-1.2 -21.38,-4.4 -19.23,-4.3 -20.3,-4.6 -20.3,-5.4 0,-0.5 0.15,-1 0.33,-1 0.19,-0.2 6.76,1.2 14.61,3 7.85,1.8 14.3,3.2 14.32,3.2 0.1,-0.1 -30.07,-59.7 -30.38,-60 -0.16,-0.1 -8.17,1.8 -17.81,4.4 -18.05,4.9 -18.44,4.9 -18.09,3.1 0,-0.4 5.69,-2 17.87,-5.3 9.79,-2.6 18.12,-4.8 18.52,-4.8 0.39,0 14.91,4.1 32.26,9.1 17.35,5 31.61,9 31.68,9 0.1,-0.1 -8.12,-5.7 -18.23,-12.5 -10.1,-6.8 -18.37,-12.4 -18.37,-12.5 0,-0.1 5.9,-6.1 13.12,-13.4 13.11,-13.1 13.13,-13.1 13.94,-12.3 l 0.81,0.7 -12.3,12.3 -12.3,12.3 0.95,0.7 c 0.52,0.3 9.74,6.6 20.5,13.8 l 19.56,13.1 28.56,-8.2 c 18.65,-5.3 28.6,-8 28.68,-7.7 0.1,0.2 0.22,0.7 0.32,1.1 0.16,0.5 -4.88,2 -28.49,8.8 -15.78,4.5 -29.01,8.2 -29.4,8.2 -0.59,0 -64.34,-18.3 -67.7,-19.4 -1.08,-0.4 -1.09,-0.3 -0.54,0.5 0.31,0.5 8.7,13.5 18.65,29 10.03,15.6 18.33,28.2 18.63,28.2 0.31,0 16.48,-4.6 35.94,-10.1 l 35.39,-10 29.86,10.2 c 16.42,5.7 31.31,10.8 33.08,11.4 3.15,1.1 3.2,1.1 2.67,0.3 -0.3,-0.5 -6.24,-10.8 -13.2,-22.9 -6.96,-12.2 -12.98,-22.6 -13.39,-23.3 l -0.73,-1.2 0.94,-0.6 0.94,-0.6 14.63,25.4 14.63,25.4 4.87,18.2 c 4.18,15.6 4.78,18.2 4.26,18.4 -1.16,0.5 -1.46,0.4 -1.88,-1.1 z m -39.93,-10.1 0,-11.2 1.55,0 1.54,0 0,4.6 0,4.6 5.81,0 5.8,0 0,-4.6 0,-4.6 1.54,0 1.55,0 0,11.2 0,11.2 -1.55,0 -1.54,0 0,-5.2 0,-5.3 -5.8,0 -5.81,0 0,5.3 0,5.2 -1.54,0 -1.55,0 0,-11.2 z m 163.36,-15.3 c -2.47,-0.8 -4.56,-2.7 -5.8,-5.2 -0.97,-1.9 -1.08,-2.6 -1.08,-5.8 0,-3.3 0.11,-4 1.08,-5.9 2.32,-4.8 7.16,-6.8 12.5,-5.2 4.1,1.2 6.61,4.8 7,10 0.54,7.1 -3.33,12.1 -9.64,12.5 -1.43,0.1 -3.09,-0.1 -4.06,-0.4 z m 7.51,-3.6 c 1.89,-1.4 2.86,-3.4 3.09,-6.3 0.43,-4.4 -1.24,-7.9 -4.29,-9.3 -3.99,-1.8 -8.47,0.2 -9.71,4.5 -2.09,6.9 1.39,12.8 7.23,12.5 1.78,-0.2 2.56,-0.4 3.68,-1.4 z m -335.94,-5.3 c -2.46,-0.8 -4.58,-2.7 -5.8,-5.1 -0.96,-2 -1.09,-2.7 -1.09,-5.9 0,-3.3 0.13,-4 1.09,-5.9 2.33,-4.8 7.16,-6.8 12.48,-5.2 4.1,1.2 6.62,4.8 7.01,10 0.54,7.1 -3.31,12.1 -9.63,12.5 -1.43,0.1 -3.11,-0.1 -4.06,-0.4 z m 7.52,-3.6 c 1.87,-1.4 2.83,-3.4 3.09,-6.3 0.4,-4.4 -1.23,-7.9 -4.3,-9.3 -4,-1.8 -8.47,0.2 -9.72,4.5 -2.06,6.9 1.38,12.8 7.25,12.5 1.76,-0.2 2.52,-0.4 3.68,-1.4 z m -35.88,-7.4 0,-11.2 1.55,0 1.55,0 0,4.6 0,4.6 5.8,0 5.8,0 0,-4.6 0,-4.6 1.55,0 1.55,0 0,11.2 0,11.2 -1.55,0 -1.55,0 0,-5.2 0,-5.3 -5.8,0 -5.8,0 0,5.3 0,5.2 -1.55,0 -1.55,0 0,-11.2 z m 327.01,-17.6 c -2.48,-0.8 -4.57,-2.7 -5.81,-5.2 -0.96,-1.9 -1.08,-2.6 -1.08,-5.9 0,-3.2 0.12,-3.9 1.08,-5.9 2.32,-4.7 7.16,-6.7 12.5,-5.1 4.1,1.2 6.61,4.8 7,10 0.54,7.1 -3.33,12.1 -9.63,12.5 -1.43,0.1 -3.1,-0.1 -4.06,-0.4 z m 7.5,-3.6 c 1.9,-1.5 2.86,-3.4 3.1,-6.3 0.42,-4.4 -1.24,-7.9 -4.3,-9.3 -3.98,-1.8 -8.47,0.2 -9.71,4.4 -2.09,7 1.39,12.9 7.24,12.5 1.77,-0.1 2.55,-0.4 3.67,-1.3 z m -342.51,-7.6 c -2.48,-0.8 -4.57,-2.7 -5.81,-5.2 -0.96,-2 -1.08,-2.7 -1.08,-5.9 0,-3.2 0.12,-3.9 1.08,-5.9 2.32,-4.7 7.16,-6.7 12.5,-5.1 4.1,1.2 6.61,4.8 7,9.9 0.54,7.2 -3.33,12.2 -9.63,12.6 -1.43,0.1 -3.1,-0.1 -4.06,-0.4 z m 7.5,-3.6 c 1.9,-1.5 2.86,-3.5 3.1,-6.3 0.42,-4.4 -1.24,-7.9 -4.3,-9.3 -3.98,-1.9 -8.47,0.2 -9.71,4.4 -2.05,6.9 1.39,12.9 7.24,12.5 1.78,-0.1 2.55,-0.4 3.67,-1.3 z m -35.86,-7.5 0,-11.2 1.55,0 1.54,0 0,4.6 0,4.7 5.81,0 5.8,0 0,-4.7 0,-4.6 1.55,0 1.54,0 0,11.2 0,11.2 -1.54,0 -1.55,0 0,-5.2 0,-5.2 -5.8,0 -5.81,0 0,5.2 0,5.2 -1.54,0 -1.55,0 0,-11.2 z m 220.62,-2.4 c -2.46,-0.9 -4.58,-2.8 -5.8,-5.2 -0.96,-2 -1.09,-2.7 -1.09,-5.9 0,-3.3 0.13,-4 1.09,-5.9 2.33,-4.8 7.16,-6.8 12.48,-5.2 4.1,1.3 6.62,4.9 7.01,10 0.54,7.1 -3.31,12.2 -9.63,12.5 -1.43,0.1 -3.11,0 -4.06,-0.3 z m 7.52,-3.6 c 1.87,-1.5 2.83,-3.5 3.09,-6.4 0.4,-4.4 -1.23,-7.9 -4.3,-9.3 -4,-1.8 -8.47,0.3 -9.72,4.5 -2.06,6.9 1.38,12.9 7.25,12.5 1.76,-0.1 2.52,-0.4 3.68,-1.3 z m 100.41,-8.8 c -2.48,-0.8 -4.57,-2.7 -5.8,-5.2 -0.97,-2 -1.09,-2.7 -1.09,-5.9 0,-3.2 0.12,-3.9 1.09,-5.9 2.32,-4.7 7.15,-6.7 12.49,-5.2 4.1,1.3 6.62,4.9 7,10 0.55,7.1 -3.32,12.2 -9.63,12.6 -1.43,0 -3.09,-0.1 -4.06,-0.4 z m 7.5,-3.6 c 1.9,-1.5 2.87,-3.5 3.1,-6.3 0.42,-4.4 -1.24,-8 -4.3,-9.4 -3.98,-1.8 -8.47,0.3 -9.7,4.5 -2.09,6.9 1.39,12.9 7.23,12.5 1.78,-0.1 2.55,-0.4 3.67,-1.3 z m 10.18,-7.5 0,-11.2 1.55,0 1.54,0 0,4.6 0,4.7 5.81,0 5.8,0 0,-4.7 0,-4.6 1.55,0 1.54,0 0,11.2 0,11.2 -1.54,0 -1.55,0 0,-5.2 0,-5.2 -5.8,0 -5.81,0 0,5.2 0,5.2 -1.54,0 -1.55,0 0,-11.2 z M -506.47,1492 c -2.46,-0.8 -4.57,-2.7 -5.8,-5.1 -0.96,-2 -1.08,-2.7 -1.08,-5.9 0,-3.3 0.12,-4 1.08,-5.9 2.33,-4.8 7.16,-6.8 12.48,-5.2 4.1,1.3 6.63,4.9 7.02,10 0.53,7.1 -3.32,12.1 -9.64,12.5 -1.43,0.1 -3.11,0 -4.06,-0.4 z m 7.52,-3.5 c 1.87,-1.5 2.83,-3.5 3.09,-6.4 0.4,-4.4 -1.23,-7.9 -4.29,-9.3 -4,-1.8 -8.48,0.3 -9.73,4.5 -2.06,6.9 1.39,12.9 7.25,12.5 1.76,-0.1 2.53,-0.4 3.68,-1.3 z m -4.93,-40 0,-18.5 -4.54,-1.1 c -24.13,-5.6 -60.65,-14 -60.71,-13.9 0,0 3.23,5.7 7.25,12.7 4.03,7 7.33,12.8 7.33,13 0,0.2 -0.4,0.5 -0.88,0.7 -0.84,0.4 -1.22,-0.2 -9.38,-14.4 -4.68,-8.2 -8.71,-14.9 -8.96,-14.9 -0.25,0 -15.22,4.2 -33.28,9.3 -18.02,5.2 -33.27,9.4 -33.81,9.5 -0.58,0.1 -9.55,-1.7 -21.16,-4.3 l -20.19,-4.6 0,-1.1 c 0,-0.6 0.11,-1 0.31,-1 0.15,0 6.61,1.4 14.39,3.2 7.77,1.8 14.2,3.2 14.23,3.1 0.1,-0.1 -6.8,-13.9 -15.35,-30.8 l -15.52,-30.8 0,-17.8 0,-17.9 1.16,0 1.16,0 0,17.5 0,17.5 31.38,9.1 c 17.25,4.9 31.45,8.9 31.53,8.8 0.1,0 -8.13,-5.6 -18.22,-12.4 l -18.38,-12.4 0.74,-1.1 c 0.38,-0.7 4.48,-7.8 9.13,-15.8 4.6,-8.1 8.51,-14.6 8.62,-14.6 0.16,0 0.58,0.2 0.97,0.5 0.66,0.5 0.15,1.5 -7.85,15.4 -6.85,11.8 -8.44,14.9 -8.05,15.2 0.27,0.3 9.52,6.6 20.58,14 l 20.08,13.5 28.56,-8.2 28.57,-8.2 0.24,1 c 0.13,0.5 0.15,1 0,1.1 -0.33,0.3 -56.96,16.5 -57.73,16.5 -0.43,0 -15.9,-4.4 -34.39,-9.8 -18.49,-5.3 -33.77,-9.6 -33.89,-9.6 -0.19,0.1 9.67,15.6 34.54,54.2 l 2.4,3.7 35.83,-10.2 35.83,-10.2 32.61,11.2 c 17.94,6.2 32.74,11.2 32.89,11.1 0.15,0 -5.8,-10.6 -13.22,-23.5 -7.42,-12.9 -13.49,-23.6 -13.5,-23.8 0,-0.5 1.46,-1.2 1.8,-0.8 0.11,0.1 6.63,11.4 14.48,25 l 14.28,24.9 0,19.3 0,19.3 -0.97,0 -0.97,0 0,-18.6 z m -48.24,16.5 c -2.46,-0.8 -4.57,-2.7 -5.8,-5.2 -0.95,-2 -1.08,-2.7 -1.08,-5.9 0,-3.2 0.13,-3.9 1.09,-5.9 2.32,-4.7 7.16,-6.7 12.48,-5.2 4.1,1.3 6.62,4.9 7.01,10 0.54,7.1 -3.32,12.2 -9.63,12.6 -1.43,0 -3.11,-0.1 -4.07,-0.4 z m 7.52,-3.6 c 1.87,-1.5 2.84,-3.5 3.1,-6.3 0.39,-4.4 -1.24,-8 -4.3,-9.4 -4,-1.8 -8.48,0.3 -9.73,4.5 -2.06,6.9 1.39,12.9 7.26,12.5 1.76,-0.1 2.52,-0.4 3.67,-1.3 z m 10.16,-7.5 0,-11.2 1.55,0 1.55,0 0,4.6 0,4.7 5.8,0 5.8,0 0,-4.7 0,-4.6 1.55,0 1.55,0 0,11.2 0,11.2 -1.55,0 -1.55,0 0,-5.2 0,-5.2 -5.8,0 -5.8,0 0,5.2 0,5.2 -1.55,0 -1.55,0 0,-11.2 z m -165.06,-24.1 c -2.48,-0.8 -4.57,-2.7 -5.81,-5.2 -0.96,-2 -1.08,-2.7 -1.08,-5.9 0,-3.3 0.12,-3.9 1.08,-5.9 2.32,-4.7 7.16,-6.7 12.5,-5.1 4.1,1.2 6.61,4.8 7,9.9 0.54,7.1 -3.33,12.2 -9.63,12.6 -1.43,0 -3.1,-0.1 -4.06,-0.4 z m 7.5,-3.6 c 1.9,-1.5 2.86,-3.5 3.1,-6.3 0.42,-4.4 -1.24,-8 -4.3,-9.4 -3.98,-1.8 -8.47,0.3 -9.71,4.5 -2.09,6.9 1.39,12.9 7.24,12.5 1.78,-0.1 2.55,-0.4 3.67,-1.3 z m -35.86,-7.5 0,-11.2 1.55,0 1.54,0 0,4.6 0,4.7 5.81,0 5.8,0 0,-4.7 0,-4.6 1.55,0 1.54,0 0,11.2 0,11.2 -1.54,0 -1.55,0 0,-5.2 0,-5.2 -5.8,0 -5.81,0 0,5.2 0,5.2 -1.54,0 -1.55,0 0,-11.2 z m 184.25,-41.9 c -2.46,-0.8 -4.57,-2.7 -5.8,-5.2 -0.95,-2 -1.08,-2.7 -1.08,-5.9 0,-3.3 0.13,-3.9 1.09,-5.9 2.33,-4.7 7.16,-6.7 12.48,-5.1 4.1,1.2 6.62,4.8 7.01,9.9 0.54,7.1 -3.32,12.2 -9.63,12.5 -1.43,0.1 -3.11,0 -4.07,-0.3 z m 7.52,-3.6 c 1.87,-1.5 2.84,-3.5 3.1,-6.3 0.39,-4.4 -1.24,-8 -4.3,-9.4 -4,-1.8 -8.48,0.3 -9.73,4.5 -2.06,6.9 1.39,12.9 7.26,12.5 1.76,-0.1 2.52,-0.4 3.67,-1.3 z m -150.65,-47.9 c -2.47,-0.8 -4.56,-2.7 -5.8,-5.2 -0.97,-1.9 -1.08,-2.6 -1.08,-5.9 0,-3.2 0.11,-3.9 1.08,-5.9 2.32,-4.7 7.16,-6.7 12.49,-5.1 4.1,1.2 6.62,4.8 7.01,10 0.54,7.1 -3.33,12.1 -9.64,12.5 -1.43,0.1 -3.09,-0.1 -4.06,-0.4 z m 7.51,-3.6 c 1.89,-1.5 2.86,-3.4 3.09,-6.3 0.43,-4.4 -1.24,-7.9 -4.29,-9.3 -3.99,-1.8 -8.47,0.2 -9.71,4.4 -2.05,7 1.39,12.9 7.23,12.5 1.78,-0.1 2.55,-0.3 3.68,-1.3 z m 10.56,-7.5 0,-11.2 1.55,0 1.54,0 0,4.7 0,4.6 5.81,0 5.8,0 0,-4.6 0,-4.7 1.55,0 1.54,0 0,11.2 0,11.3 -1.54,0 -1.55,0 0,-5.3 0,-5.2 -5.8,0 -5.81,0 0,5.2 0,5.3 -1.54,0 -1.55,0 0,-11.3 z m 36.48,9.9 c -2.48,-0.8 -4.57,-2.6 -5.81,-5.1 -0.96,-2 -1.08,-2.7 -1.08,-5.9 0,-3.3 0.12,-4 1.08,-5.9 2.33,-4.8 7.16,-6.7 12.5,-5.2 4.1,1.3 6.61,4.9 7,10 0.54,7.1 -3.33,12.1 -9.63,12.5 -1.43,0.1 -3.1,0 -4.06,-0.4 z m 7.5,-3.5 c 1.9,-1.5 2.86,-3.5 3.1,-6.3 0.42,-4.4 -1.24,-8 -4.3,-9.4 -3.98,-1.8 -8.47,0.2 -9.71,4.5 -2.05,6.9 1.4,12.8 7.24,12.5 1.78,-0.1 2.55,-0.4 3.67,-1.3 z m 10.18,-7.5 0,-11.2 1.54,0 1.55,0 0,4.6 0,4.6 5.8,0 5.81,0 0,-4.6 0,-4.6 1.54,0 1.55,0 0,11.2 0,11.2 -1.55,0 -1.54,0 0,-5.2 0,-5.2 -5.81,0 -5.8,0 0,5.2 0,5.2 -1.55,0 -1.54,0 0,-11.2 z"
       id="path2830"
       style="fill:#000000" />
  </g>
</svg>
