<?xml version="1.0" encoding="UTF-8" standalone="no"?>
<!-- Generator: Adobe Illustrator 12.0.1, SVG Export Plug-In . SVG Version: 6.00 Build 51448)  -->
<svg
   xmlns:dc="http://purl.org/dc/elements/1.1/"
   xmlns:cc="http://web.resource.org/cc/"
   xmlns:rdf="http://www.w3.org/1999/02/22-rdf-syntax-ns#"
   xmlns:svg="http://www.w3.org/2000/svg"
   xmlns="http://www.w3.org/2000/svg"
   xmlns:sodipodi="http://sodipodi.sourceforge.net/DTD/sodipodi-0.dtd"
   xmlns:inkscape="http://www.inkscape.org/namespaces/inkscape"
   version="1.1"
   id="Layer_1"
   width="452.9"
   height="156.1"
   viewBox="0 0 452.9 156.1"
   style="overflow:visible;enable-background:new 0 0 452.9 156.1;"
   xml:space="preserve"
   sodipodi:version="0.32"
   inkscape:version="0.45.1"
   sodipodi:docname="Alginsäure.svg"
   inkscape:output_extension="org.inkscape.output.svg.inkscape"
   sodipodi:docbase="C:\"><metadata
   id="metadata160"><rdf:RDF><cc:Work
       rdf:about=""><dc:format>image/svg+xml</dc:format><dc:type
         rdf:resource="http://purl.org/dc/dcmitype/StillImage" /></cc:Work></rdf:RDF></metadata><defs
   id="defs158" /><sodipodi:namedview
   inkscape:window-height="579"
   inkscape:window-width="801"
   inkscape:pageshadow="2"
   inkscape:pageopacity="0.0"
   guidetolerance="10.0"
   gridtolerance="10.0"
   objecttolerance="10.0"
   borderopacity="1.0"
   bordercolor="#666666"
   pagecolor="#ffffff"
   id="base"
   inkscape:zoom="1.583131"
   inkscape:cx="226.45"
   inkscape:cy="78.050003"
   inkscape:window-x="264"
   inkscape:window-y="264"
   inkscape:current-layer="Layer_1" />
<path
   style="fill:#231f20"
   d="M 121.6175,115.33752 L 120.0025,116.28752 L 120.0025,101.23002 L 121.6175,100.80252 L 121.6175,115.33752 z "
   id="polygon3" />
<path
   style="fill:#231f20"
   d="M 120.0025,78.715025 L 120.81,78.097525 L 121.6175,78.715025 L 121.6175,91.350025 L 120.0025,91.777525 L 120.0025,78.715025 z "
   id="polygon5" />
<path
   style="fill:#231f20"
   d="M 145.225,128.97002 L 144.4175,130.39502 L 120.0025,116.28752 L 121.6175,115.33752 L 145.225,128.97002 z "
   id="polygon7" />
<path
   style="fill:#231f20"
   d="M 98.6275,132.81752 L 97.82,131.44002 L 123.2325,116.76252 L 124.04,118.14002 L 98.6275,132.81752 z "
   id="polygon9" />
<path
   style="fill:#231f20"
   d="M 95.7775,127.92502 L 94.97,126.54752 L 120.3825,111.87002 L 121.19,113.24752 L 95.7775,127.92502 z "
   id="polygon11" />
<g
   id="g13"
   transform="matrix(0.95,0,0,0.95,11.3225,3.902525)">
	<path
   style="fill:#231f20"
   d="M 141.356,138.685 C 141.356,135.832 142.122,133.6 143.654,131.987 C 145.186,130.373 147.164,129.566 149.587,129.566 C 151.174,129.566 152.604,129.945 153.878,130.703 C 155.152,131.462 156.123,132.518 156.792,133.874 C 157.461,135.23 157.794,136.768 157.794,138.486 C 157.794,140.229 157.442,141.788 156.739,143.163 C 156.036,144.538 155.039,145.58 153.749,146.287 C 152.459,146.994 151.068,147.348 149.575,147.348 C 147.957,147.348 146.511,146.957 145.237,146.176 C 143.963,145.395 142.998,144.327 142.341,142.976 C 141.684,141.625 141.356,140.194 141.356,138.685 z M 143.7,138.714 C 143.7,140.784 144.257,142.415 145.371,143.607 C 146.485,144.799 147.883,145.394 149.563,145.394 C 151.275,145.394 152.684,144.792 153.791,143.589 C 154.897,142.386 155.45,140.679 155.45,138.468 C 155.45,137.07 155.214,135.849 154.741,134.806 C 154.268,133.763 153.576,132.954 152.665,132.38 C 151.754,131.806 150.732,131.519 149.599,131.519 C 147.989,131.519 146.603,132.072 145.442,133.177 C 144.281,134.282 143.7,136.128 143.7,138.714 z "
   id="path15" />
	<path
   style="fill:#231f20"
   d="M 160.806,147.05 L 160.806,129.862 L 163.087,129.862 L 163.087,136.925 L 171.978,136.925 L 171.978,129.862 L 174.259,129.862 L 174.259,147.05 L 171.978,147.05 L 171.978,138.956 L 163.087,138.956 L 163.087,147.05 L 160.806,147.05 z "
   id="path17" />
</g>
<g
   id="g19"
   transform="matrix(0.95,0,0,0.95,11.3225,3.902525)">
	<path
   style="fill:#231f20"
   d="M 72.707,138.685 C 72.707,135.832 73.473,133.6 75.005,131.987 C 76.537,130.373 78.515,129.566 80.938,129.566 C 82.525,129.566 83.955,129.945 85.229,130.703 C 86.503,131.462 87.474,132.518 88.143,133.874 C 88.812,135.23 89.145,136.768 89.145,138.486 C 89.145,140.229 88.793,141.788 88.09,143.163 C 87.387,144.538 86.39,145.58 85.1,146.287 C 83.81,146.994 82.419,147.348 80.926,147.348 C 79.308,147.348 77.862,146.957 76.588,146.176 C 75.314,145.395 74.349,144.327 73.692,142.976 C 73.035,141.625 72.707,140.194 72.707,138.685 z M 75.05,138.714 C 75.05,140.784 75.607,142.415 76.721,143.607 C 77.835,144.799 79.233,145.394 80.913,145.394 C 82.625,145.394 84.034,144.792 85.141,143.589 C 86.247,142.386 86.8,140.679 86.8,138.468 C 86.8,137.07 86.564,135.849 86.091,134.806 C 85.618,133.763 84.926,132.954 84.015,132.38 C 83.104,131.806 82.082,131.519 80.949,131.519 C 79.339,131.519 77.953,132.072 76.792,133.177 C 75.631,134.282 75.05,136.128 75.05,138.714 z "
   id="path21" />
</g>
<g
   id="g23"
   transform="matrix(0.95,0,0,0.95,11.3225,3.902525)">
	<path
   style="fill:#231f20"
   d="M 347.956,74.435 C 347.956,71.582 348.722,69.35 350.255,67.737 C 351.786,66.123 353.765,65.316 356.187,65.316 C 357.775,65.316 359.205,65.695 360.478,66.453 C 361.752,67.212 362.724,68.268 363.392,69.624 C 364.06,70.98 364.394,72.518 364.394,74.236 C 364.394,75.979 364.042,77.538 363.339,78.913 C 362.636,80.288 361.639,81.33 360.349,82.037 C 359.06,82.744 357.668,83.098 356.175,83.098 C 354.558,83.098 353.111,82.707 351.837,81.926 C 350.563,81.145 349.599,80.077 348.941,78.726 C 348.283,77.375 347.956,75.944 347.956,74.435 z M 350.3,74.464 C 350.3,76.534 350.857,78.165 351.972,79.357 C 353.085,80.548 354.484,81.144 356.163,81.144 C 357.876,81.144 359.284,80.542 360.392,79.339 C 361.497,78.136 362.05,76.429 362.05,74.218 C 362.05,72.82 361.814,71.599 361.341,70.556 C 360.868,69.513 360.176,68.704 359.265,68.13 C 358.355,67.556 357.333,67.269 356.199,67.269 C 354.59,67.269 353.203,67.822 352.043,68.927 C 350.88,70.033 350.3,71.878 350.3,74.464 z "
   id="path25" />
</g>
<path
   style="fill:#231f20"
   d="M 354.65155,83.797525 L 356.07655,82.990025 L 368.95,105.31502 L 368.57,106.21752 L 366.76405,104.74502 L 354.65155,83.797525 z "
   id="polygon27" />
<path
   style="fill:#231f20"
   d="M 329.5725,99.662525 L 332.1375,96.480025 L 332.945,92.917525 L 366.76405,104.74502 L 368.57,106.21752 L 368.57,107.07252 L 329.5725,99.662525 z "
   id="polygon29" />
<path
   style="fill:#231f20"
   d="M 313.28095,84.177525 L 313.28095,83.322525 L 313.66,82.420025 L 329.19345,78.240025 L 329.19345,79.902525 L 313.28095,84.177525 z "
   id="polygon31" />
<path
   style="fill:#231f20"
   d="M 339.5,75.485025 L 339.92655,77.052525 L 335.0825,78.335025 L 335.0825,76.672525 L 339.5,75.485025 z "
   id="polygon33" />
<path
   style="fill:#231f20"
   d="M 299.26845,107.78502 L 295.70595,106.21752 L 297.985,103.13002 L 331.33095,94.200025 L 332.1375,96.480025 L 329.5725,99.662525 L 299.26845,107.78502 z "
   id="polygon35" />
<path
   style="fill:#231f20"
   d="M 276.42,74.535025 L 276.895,73.585025 L 278.7475,74.915025 L 297.985,103.13002 L 295.70595,106.21752 L 290.8125,104.41252 L 276.42,74.535025 z "
   id="polygon37" />
<path
   style="fill:#231f20"
   d="M 311.61845,82.040025 L 313.28095,83.322525 L 313.28095,84.177525 L 278.7475,74.915025 L 276.895,73.585025 L 276.895,72.730025 L 311.61845,82.040025 z "
   id="polygon39" />
<path
   style="fill:#231f20"
   d="M 250.2475,81.565025 L 249.82,79.997525 L 276.895,72.730025 L 276.895,73.585025 L 276.42,74.535025 L 250.2475,81.565025 z "
   id="polygon41" />
<g
   id="g43"
   transform="matrix(0.95,0,0,0.95,11.3225,3.902525)">
	<path
   style="fill:#231f20"
   d="M 251.638,112.45 L 251.638,95.262 L 253.919,95.262 L 253.919,102.325 L 262.81,102.325 L 262.81,95.262 L 265.091,95.262 L 265.091,112.45 L 262.81,112.45 L 262.81,104.356 L 253.919,104.356 L 253.919,112.45 L 251.638,112.45 z "
   id="path45" />
	<path
   style="fill:#231f20"
   d="M 268.188,104.084 C 268.188,101.231 268.954,98.999 270.486,97.386 C 272.018,95.772 273.996,94.965 276.419,94.965 C 278.006,94.965 279.437,95.344 280.71,96.102 C 281.983,96.861 282.955,97.917 283.624,99.273 C 284.292,100.628 284.626,102.167 284.626,103.885 C 284.626,105.628 284.274,107.187 283.571,108.562 C 282.867,109.937 281.87,110.979 280.581,111.686 C 279.291,112.393 277.899,112.747 276.407,112.747 C 274.789,112.747 273.343,112.356 272.069,111.575 C 270.795,110.794 269.83,109.726 269.173,108.375 C 268.517,107.023 268.188,105.593 268.188,104.084 z M 270.532,104.114 C 270.532,106.184 271.089,107.815 272.203,109.007 C 273.317,110.199 274.715,110.794 276.395,110.794 C 278.107,110.794 279.516,110.192 280.623,108.989 C 281.73,107.786 282.282,106.079 282.282,103.868 C 282.282,102.47 282.046,101.249 281.573,100.206 C 281.099,99.163 280.407,98.354 279.497,97.78 C 278.587,97.206 277.564,96.919 276.431,96.919 C 274.821,96.919 273.435,97.472 272.274,98.577 C 271.113,99.682 270.532,101.528 270.532,104.114 z "
   id="path47" />
</g>
<path
   style="fill:#231f20"
   d="M 283.735,104.60252 L 284.02,103.03502 L 290.8125,104.41252 L 295.70595,106.21752 L 299.26845,107.78502 L 283.735,104.60252 z "
   id="polygon49" />
<path
   style="fill:#231f20"
   d="M 293.52,50.690025 L 295.3725,50.690025 L 313.66,82.420025 L 313.28095,83.322525 L 311.61845,82.040025 L 293.52,50.690025 z "
   id="polygon51" />
<g
   id="g53"
   transform="matrix(0.95,0,0,0.95,11.3225,3.902525)">
	<path
   style="fill:#231f20"
   d="M 329.507,50.535 C 329.507,47.682 330.273,45.45 331.804,43.837 C 333.337,42.223 335.314,41.416 337.738,41.416 C 339.324,41.416 340.755,41.795 342.029,42.553 C 343.302,43.312 344.273,44.368 344.942,45.724 C 345.611,47.08 345.945,48.618 345.945,50.336 C 345.945,52.079 345.593,53.638 344.889,55.013 C 344.185,56.388 343.189,57.43 341.9,58.137 C 340.609,58.844 339.218,59.198 337.726,59.198 C 336.107,59.198 334.662,58.807 333.388,58.026 C 332.113,57.245 331.148,56.177 330.492,54.826 C 329.836,53.475 329.507,52.043 329.507,50.535 z M 331.851,50.564 C 331.851,52.634 332.408,54.265 333.521,55.457 C 334.636,56.648 336.033,57.244 337.714,57.244 C 339.425,57.244 340.835,56.642 341.941,55.439 C 343.047,54.236 343.601,52.529 343.601,50.318 C 343.601,48.92 343.365,47.699 342.891,46.656 C 342.417,45.613 341.726,44.804 340.816,44.23 C 339.905,43.656 338.882,43.369 337.75,43.369 C 336.139,43.369 334.754,43.922 333.592,45.027 C 332.431,46.132 331.851,47.978 331.851,50.564 z "
   id="path55" />
	<path
   style="fill:#231f20"
   d="M 348.956,58.9 L 348.956,41.712 L 351.237,41.712 L 351.237,48.775 L 360.128,48.775 L 360.128,41.712 L 362.409,41.712 L 362.409,58.9 L 360.128,58.9 L 360.128,50.806 L 351.237,50.806 L 351.237,58.9 L 348.956,58.9 z "
   id="path57" />
</g>
<path
   style="fill:#231f20"
   d="M 394.79,98.380025 L 395.2175,99.947525 L 368.57,107.07252 L 368.57,106.21752 L 368.95,105.31502 L 394.79,98.380025 z "
   id="polygon59" />
<g
   id="g61"
   transform="matrix(0.95,0,0,0.95,11.3225,3.902525)">
	<path
   style="fill:#231f20"
   d="M 406.156,98.535 C 406.156,95.682 406.922,93.45 408.454,91.837 C 409.986,90.223 411.964,89.416 414.387,89.416 C 415.974,89.416 417.404,89.795 418.678,90.553 C 419.952,91.312 420.923,92.368 421.591,93.724 C 422.26,95.079 422.594,96.618 422.594,98.336 C 422.594,100.079 422.242,101.638 421.538,103.013 C 420.835,104.388 419.839,105.43 418.549,106.137 C 417.259,106.844 415.868,107.198 414.375,107.198 C 412.757,107.198 411.311,106.807 410.037,106.026 C 408.763,105.245 407.798,104.177 407.141,102.826 C 406.484,101.473 406.156,100.043 406.156,98.535 z M 408.5,98.564 C 408.5,100.634 409.057,102.265 410.171,103.457 C 411.285,104.649 412.683,105.244 414.363,105.244 C 416.075,105.244 417.484,104.642 418.591,103.439 C 419.696,102.236 420.25,100.529 420.25,98.318 C 420.25,96.92 420.014,95.699 419.54,94.656 C 419.067,93.613 418.376,92.804 417.465,92.23 C 416.554,91.656 415.532,91.369 414.399,91.369 C 412.789,91.369 411.403,91.922 410.242,93.027 C 409.081,94.132 408.5,95.978 408.5,98.564 z "
   id="path63" />
</g>
<g
   id="g65"
   transform="matrix(0.95,0,0,0.95,11.3225,3.902525)">
	<path
   style="fill:#231f20"
   d="M 145.356,68.935 C 145.356,66.082 146.122,63.85 147.654,62.237 C 149.186,60.623 151.164,59.816 153.587,59.816 C 155.174,59.816 156.604,60.195 157.878,60.953 C 159.152,61.712 160.123,62.768 160.792,64.124 C 161.461,65.48 161.794,67.018 161.794,68.736 C 161.794,70.479 161.442,72.038 160.739,73.413 C 160.036,74.788 159.039,75.83 157.749,76.537 C 156.459,77.244 155.068,77.598 153.575,77.598 C 151.957,77.598 150.511,77.207 149.237,76.426 C 147.963,75.645 146.998,74.577 146.341,73.226 C 145.684,71.875 145.356,70.444 145.356,68.935 z M 147.7,68.964 C 147.7,71.034 148.257,72.665 149.371,73.857 C 150.485,75.049 151.883,75.644 153.563,75.644 C 155.275,75.644 156.684,75.042 157.791,73.839 C 158.897,72.636 159.45,70.929 159.45,68.718 C 159.45,67.32 159.214,66.099 158.741,65.056 C 158.268,64.013 157.576,63.204 156.665,62.63 C 155.754,62.056 154.732,61.769 153.599,61.769 C 151.989,61.769 150.603,62.322 149.442,63.427 C 148.281,64.532 147.7,66.378 147.7,68.964 z "
   id="path67" />
</g>
<path
   style="fill:#231f20"
   d="M 162.1825,78.572525 L 163.6075,77.765025 L 176.48,100.04252 L 176.0525,100.99252 L 174.295,99.520025 L 162.1825,78.572525 z "
   id="polygon69" />
<path
   style="fill:#231f20"
   d="M 137.055,94.437525 L 139.6675,91.255025 L 140.475,87.692525 L 174.295,99.520025 L 176.0525,100.99252 L 176.1,101.84752 L 137.055,94.437525 z "
   id="polygon71" />
<path
   style="fill:#231f20"
   d="M 121.6175,78.715025 L 120.81,78.097525 L 120.81,77.290025 L 136.675,73.015025 L 136.675,74.677525 L 121.6175,78.715025 z "
   id="polygon73" />
<path
   style="fill:#231f20"
   d="M 147.03,70.260025 L 147.4575,71.827525 L 142.6125,73.110025 L 142.6125,71.447525 L 147.03,70.260025 z "
   id="polygon75" />
<path
   style="fill:#231f20"
   d="M 106.7975,102.56002 L 103.235,100.99252 L 105.515,97.905025 L 138.86,88.927525 L 139.6675,91.255025 L 137.055,94.437525 L 106.7975,102.56002 z "
   id="polygon77" />
<path
   style="fill:#231f20"
   d="M 83.95,69.310025 L 84.3775,68.360025 L 86.2775,69.690025 L 105.515,97.905025 L 103.235,100.99252 L 98.3425,99.187525 L 83.95,69.310025 z "
   id="polygon79" />
<path
   style="fill:#231f20"
   d="M 120.81,77.290025 L 120.81,78.097525 L 120.0025,78.715025 L 86.2775,69.690025 L 84.3775,68.360025 L 84.3775,67.505025 L 120.81,77.290025 z "
   id="polygon81" />
<g
   id="g83"
   transform="matrix(0.95,0,0,0.95,11.3225,3.902525)">
	<path
   style="fill:#231f20"
   d="M 30.356,79.185 C 30.356,76.332 31.122,74.1 32.654,72.487 C 34.186,70.873 36.164,70.066 38.587,70.066 C 40.174,70.066 41.604,70.445 42.878,71.203 C 44.152,71.962 45.123,73.018 45.792,74.374 C 46.461,75.73 46.794,77.268 46.794,78.986 C 46.794,80.729 46.442,82.288 45.739,83.663 C 45.036,85.038 44.039,86.08 42.749,86.787 C 41.459,87.494 40.068,87.848 38.575,87.848 C 36.957,87.848 35.511,87.457 34.237,86.676 C 32.963,85.895 31.998,84.827 31.341,83.476 C 30.684,82.125 30.356,80.694 30.356,79.185 z M 32.7,79.214 C 32.7,81.284 33.257,82.915 34.371,84.107 C 35.485,85.299 36.883,85.894 38.563,85.894 C 40.275,85.894 41.684,85.292 42.791,84.089 C 43.897,82.886 44.45,81.179 44.45,78.968 C 44.45,77.57 44.214,76.349 43.741,75.306 C 43.268,74.263 42.576,73.454 41.665,72.88 C 40.754,72.306 39.732,72.019 38.599,72.019 C 36.989,72.019 35.603,72.572 34.442,73.677 C 33.281,74.782 32.7,76.628 32.7,79.214 z "
   id="path85" />
</g>
<path
   style="fill:#231f20"
   d="M 57.7775,76.340025 L 57.35,74.772525 L 84.3775,67.505025 L 84.3775,68.360025 L 83.95,69.310025 L 57.7775,76.340025 z "
   id="polygon87" />
<g
   id="g89"
   transform="matrix(0.95,0,0,0.95,11.3225,3.902525)">
	<path
   style="fill:#231f20"
   d="M 49.038,106.95 L 49.038,89.762 L 51.319,89.762 L 51.319,96.825 L 60.21,96.825 L 60.21,89.762 L 62.491,89.762 L 62.491,106.95 L 60.21,106.95 L 60.21,98.856 L 51.319,98.856 L 51.319,106.95 L 49.038,106.95 z "
   id="path91" />
	<path
   style="fill:#231f20"
   d="M 65.588,98.584 C 65.588,95.731 66.354,93.499 67.886,91.886 C 69.418,90.272 71.396,89.465 73.819,89.465 C 75.406,89.465 76.836,89.844 78.11,90.602 C 79.384,91.361 80.355,92.417 81.024,93.773 C 81.693,95.129 82.026,96.667 82.026,98.385 C 82.026,100.128 81.674,101.687 80.971,103.062 C 80.268,104.437 79.271,105.479 77.981,106.186 C 76.691,106.893 75.3,107.247 73.807,107.247 C 72.189,107.247 70.743,106.856 69.469,106.075 C 68.195,105.294 67.23,104.226 66.573,102.875 C 65.916,101.524 65.588,100.093 65.588,98.584 z M 67.932,98.614 C 67.932,100.684 68.489,102.315 69.603,103.507 C 70.717,104.699 72.115,105.294 73.795,105.294 C 75.507,105.294 76.916,104.692 78.023,103.489 C 79.129,102.286 79.682,100.579 79.682,98.368 C 79.682,96.97 79.446,95.749 78.973,94.706 C 78.5,93.663 77.808,92.854 76.897,92.28 C 75.986,91.706 74.964,91.419 73.831,91.419 C 72.221,91.419 70.835,91.972 69.674,93.077 C 68.513,94.182 67.932,96.028 67.932,98.614 z "
   id="path93" />
</g>
<path
   style="fill:#231f20"
   d="M 91.2175,99.377525 L 91.55,97.762525 L 98.3425,99.187525 L 103.235,100.99252 L 106.7975,102.56002 L 91.2175,99.377525 z "
   id="polygon95" />
<g
   id="g97"
   transform="matrix(0.95,0,0,0.95,11.3225,3.902525)">
	<path
   style="fill:#231f20"
   d="M 126.856,43.834 C 126.856,40.981 127.622,38.749 129.154,37.136 C 130.686,35.522 132.664,34.715 135.087,34.715 C 136.674,34.715 138.104,35.094 139.378,35.852 C 140.652,36.611 141.623,37.667 142.292,39.023 C 142.961,40.379 143.294,41.917 143.294,43.635 C 143.294,45.378 142.942,46.937 142.239,48.312 C 141.536,49.687 140.539,50.729 139.249,51.436 C 137.959,52.143 136.568,52.497 135.075,52.497 C 133.457,52.497 132.011,52.106 130.737,51.325 C 129.463,50.544 128.498,49.476 127.841,48.125 C 127.184,46.774 126.856,45.343 126.856,43.834 z M 129.2,43.864 C 129.2,45.934 129.757,47.565 130.871,48.757 C 131.985,49.949 133.383,50.544 135.063,50.544 C 136.775,50.544 138.184,49.942 139.291,48.739 C 140.397,47.536 140.95,45.829 140.95,43.618 C 140.95,42.22 140.714,40.999 140.241,39.956 C 139.768,38.913 139.076,38.104 138.165,37.53 C 137.254,36.956 136.232,36.669 135.099,36.669 C 133.489,36.669 132.103,37.222 130.942,38.327 C 129.781,39.432 129.2,41.278 129.2,43.864 z "
   id="path99" />
	<path
   style="fill:#231f20"
   d="M 146.306,52.2 L 146.306,35.012 L 148.587,35.012 L 148.587,42.075 L 157.478,42.075 L 157.478,35.012 L 159.759,35.012 L 159.759,52.2 L 157.478,52.2 L 157.478,44.106 L 148.587,44.106 L 148.587,52.2 L 146.306,52.2 z "
   id="path101" />
</g>
<g
   id="g103"
   transform="matrix(0.95,0,0,0.95,11.3225,3.902525)">
	<path
   style="fill:#231f20"
   d="M 232.956,84.685 C 232.956,81.832 233.722,79.6 235.255,77.987 C 236.786,76.373 238.765,75.566 241.187,75.566 C 242.775,75.566 244.205,75.945 245.478,76.703 C 246.752,77.462 247.724,78.518 248.392,79.874 C 249.06,81.23 249.394,82.768 249.394,84.486 C 249.394,86.229 249.042,87.788 248.339,89.163 C 247.636,90.538 246.639,91.58 245.349,92.287 C 244.06,92.994 242.668,93.348 241.175,93.348 C 239.558,93.348 238.111,92.957 236.837,92.176 C 235.563,91.395 234.599,90.327 233.941,88.976 C 233.283,87.625 232.956,86.194 232.956,84.685 z M 235.3,84.714 C 235.3,86.784 235.857,88.415 236.972,89.607 C 238.085,90.798 239.484,91.394 241.163,91.394 C 242.876,91.394 244.284,90.792 245.392,89.589 C 246.497,88.386 247.05,86.679 247.05,84.468 C 247.05,83.07 246.814,81.849 246.341,80.806 C 245.868,79.763 245.176,78.954 244.265,78.38 C 243.355,77.806 242.333,77.519 241.199,77.519 C 239.59,77.519 238.203,78.072 237.043,79.177 C 235.88,80.283 235.3,82.128 235.3,84.714 z "
   id="path105" />
</g>
<path
   style="fill:#231f20"
   d="M 230.25,85.317525 L 230.67655,86.837525 L 176.1,101.84752 L 176.0525,100.99252 L 176.48,100.04252 L 230.25,85.317525 z "
   id="polygon107" />
<path
   style="fill:#231f20"
   d="M 11.75,89.022525 L 11.3225,87.455025 L 15.2175,86.362525 L 15.645,87.930025 L 11.75,89.022525 z "
   id="polygon109" />
<path
   style="fill:#231f20"
   d="M 19.3025,86.932525 L 18.875,85.365025 L 22.77,84.272525 L 23.1975,85.840025 L 19.3025,86.932525 z "
   id="polygon111" />
<path
   style="fill:#231f20"
   d="M 26.8075,84.842525 L 26.38,83.275025 L 30.275,82.182525 L 30.7025,83.750025 L 26.8075,84.842525 z "
   id="polygon113" />
<path
   style="fill:#231f20"
   d="M 34.3125,82.752525 L 33.885,81.185025 L 37.78,80.092525 L 38.2075,81.660025 L 34.3125,82.752525 z "
   id="polygon115" />
<path
   style="fill:#231f20"
   d="M 441.1975,85.935025 L 441.5775,87.502525 L 437.6825,88.547525 L 437.255,86.980025 L 441.1975,85.935025 z "
   id="polygon117" />
<path
   style="fill:#231f20"
   d="M 433.55,87.977525 L 433.9775,89.545025 L 430.035,90.590025 L 429.655,89.022525 L 433.55,87.977525 z "
   id="polygon119" />
<path
   style="fill:#231f20"
   d="M 425.9025,90.020025 L 426.33095,91.587525 L 422.435,92.632525 L 422.0075,91.065025 L 425.9025,90.020025 z "
   id="polygon121" />
<path
   style="fill:#231f20"
   d="M 418.255,92.062525 L 418.6825,93.630025 L 414.7875,94.675025 L 414.36,93.107525 L 418.255,92.062525 z "
   id="polygon123" />
<g
   id="g125"
   transform="matrix(0.95,0,0,0.95,11.3225,3.902525)">
	<path
   style="fill:#231f20"
   d="M 309.606,15.985 C 309.606,13.132 310.372,10.9 311.904,9.287 C 313.436,7.673 315.414,6.866 317.837,6.866 C 319.424,6.866 320.855,7.245 322.128,8.003 C 323.401,8.762 324.373,9.818 325.042,11.174 C 325.71,12.529 326.044,14.068 326.044,15.786 C 326.044,17.529 325.692,19.088 324.989,20.463 C 324.285,21.838 323.288,22.88 321.999,23.587 C 320.709,24.294 319.317,24.648 317.825,24.648 C 316.207,24.648 314.761,24.257 313.487,23.476 C 312.213,22.695 311.248,21.627 310.591,20.276 C 309.935,18.923 309.606,17.494 309.606,15.985 z M 311.95,16.014 C 311.95,18.084 312.507,19.715 313.621,20.907 C 314.735,22.099 316.133,22.694 317.813,22.694 C 319.525,22.694 320.934,22.092 322.041,20.889 C 323.148,19.686 323.7,17.979 323.7,15.768 C 323.7,14.37 323.464,13.149 322.991,12.106 C 322.517,11.063 321.825,10.254 320.915,9.68 C 320.005,9.106 318.982,8.819 317.849,8.819 C 316.239,8.819 314.853,9.372 313.692,10.477 C 312.531,11.582 311.95,13.428 311.95,16.014 z "
   id="path127" />
	<path
   style="fill:#231f20"
   d="M 329.056,24.35 L 329.056,7.163 L 331.337,7.163 L 331.337,14.226 L 340.228,14.226 L 340.228,7.163 L 342.509,7.163 L 342.509,24.35 L 340.228,24.35 L 340.228,16.256 L 331.337,16.256 L 331.337,24.35 L 329.056,24.35 z "
   id="path129" />
</g>
<path
   style="fill:#231f20"
   d="M 306.9625,27.415025 L 308.33905,28.222525 L 295.3725,50.690025 L 293.52,50.690025 L 306.9625,27.415025 z "
   id="polygon131" />
<g
   id="g133"
   transform="matrix(0.95,0,0,0.95,11.3225,3.902525)">
	<path
   style="fill:#231f20"
   d="M 250.156,50.334 C 250.156,47.481 250.922,45.249 252.454,43.636 C 253.986,42.022 255.964,41.215 258.387,41.215 C 259.974,41.215 261.404,41.594 262.678,42.352 C 263.952,43.111 264.923,44.167 265.591,45.523 C 266.26,46.878 266.594,48.417 266.594,50.135 C 266.594,51.878 266.242,53.437 265.538,54.812 C 264.835,56.187 263.839,57.229 262.549,57.936 C 261.259,58.643 259.868,58.997 258.375,58.997 C 256.757,58.997 255.311,58.606 254.037,57.825 C 252.763,57.044 251.798,55.976 251.141,54.625 C 250.484,53.273 250.156,51.843 250.156,50.334 z M 252.5,50.364 C 252.5,52.434 253.057,54.065 254.171,55.257 C 255.285,56.449 256.683,57.044 258.363,57.044 C 260.075,57.044 261.484,56.442 262.591,55.239 C 263.696,54.036 264.25,52.329 264.25,50.118 C 264.25,48.72 264.014,47.499 263.54,46.456 C 263.067,45.413 262.376,44.604 261.465,44.03 C 260.554,43.456 259.532,43.169 258.399,43.169 C 256.789,43.169 255.403,43.722 254.242,44.827 C 253.081,45.932 252.5,47.778 252.5,50.364 z "
   id="path135" />
</g>
<path
   style="fill:#231f20"
   d="M 266.77654,52.732527 L 296.08499,52.732527 L 296.08499,54.347527 L 266.77654,54.347527 L 266.77654,52.732527 z "
   id="rect137" />
<path
   style="fill:#231f20"
   d="M 266.77654,47.080026 L 296.08499,47.080026 L 296.08499,48.695026 L 266.77654,48.695026 L 266.77654,47.080026 z "
   id="rect139" />
<path
   style="fill:none;stroke:#231f20;stroke-width:1.70000005"
   d="M 228.53905,114.05503 L 221.65155,114.05503 L 221.65155,4.710025 L 228.53905,4.710025 M 371.94345,4.710025 L 378.83095,4.710025 L 378.83095,114.05503 L 371.94345,114.05503"
   id="path141" />
<g
   id="g143"
   transform="matrix(0.95,0,0,0.95,11.3225,3.902525)">
	<path
   style="fill:#231f20"
   d="M 394.788,121.5 L 394.788,112.156 L 396.21,112.156 L 396.21,113.483 C 396.896,112.463 397.888,111.953 399.185,111.953 C 399.749,111.953 400.267,112.055 400.74,112.257 C 401.213,112.459 401.566,112.724 401.801,113.052 C 402.036,113.38 402.2,113.771 402.295,114.222 C 402.354,114.515 402.383,115.028 402.383,115.76 L 402.383,121.5 L 400.805,121.5 L 400.805,115.823 C 400.805,115.179 400.742,114.697 400.619,114.378 C 400.496,114.059 400.275,113.804 399.961,113.614 C 399.647,113.423 399.277,113.328 398.855,113.328 C 398.178,113.328 397.594,113.542 397.104,113.97 C 396.612,114.398 396.368,115.209 396.368,116.404 L 396.368,121.501 L 394.788,121.501 L 394.788,121.5 z "
   id="path145" />
</g>
<path
   style="fill:none;stroke:#231f20;stroke-width:1.70000005"
   d="M 36.07,146.92503 L 28.8025,146.92503 L 28.8025,31.167525 L 36.07,31.167525 M 181.705,31.167525 L 188.9725,31.167525 L 188.9725,146.92503 L 181.705,146.92503"
   id="path147" />
<g
   id="g149"
   transform="matrix(0.95,0,0,0.95,11.3225,3.902525)">
	<path
   style="fill:#231f20"
   d="M 194.937,156.1 L 194.937,146.756 L 196.343,146.756 L 196.343,148.077 C 196.636,147.619 197.027,147.251 197.513,146.972 C 198,146.693 198.555,146.553 199.176,146.553 C 199.868,146.553 200.436,146.697 200.879,146.985 C 201.321,147.273 201.634,147.675 201.816,148.192 C 202.558,147.099 203.523,146.553 204.712,146.553 C 205.642,146.553 206.358,146.81 206.858,147.323 C 207.359,147.836 207.609,148.625 207.609,149.692 L 207.609,156.1 L 206.031,156.1 L 206.031,150.222 C 206.031,149.589 205.979,149.134 205.876,148.855 C 205.773,148.578 205.585,148.353 205.315,148.183 C 205.044,148.013 204.725,147.928 204.36,147.928 C 203.7,147.928 203.152,148.146 202.716,148.583 C 202.279,149.019 202.062,149.718 202.062,150.678 L 202.062,156.1 L 200.484,156.1 L 200.484,150.037 C 200.484,149.335 200.355,148.808 200.097,148.456 C 199.839,148.104 199.416,147.929 198.83,147.929 C 198.384,147.929 197.972,148.046 197.594,148.281 C 197.216,148.516 196.941,148.858 196.771,149.309 C 196.601,149.76 196.516,150.411 196.516,151.259 L 196.516,156.101 L 194.937,156.101 L 194.937,156.1 z "
   id="path151" />
</g>
<path
   style="fill:#231f20"
   d="M 331.33095,62.232525 L 332.945,62.232525 L 332.945,92.917525 L 332.1375,96.480025 L 331.33095,94.200025 L 331.33095,62.232525 z "
   id="polygon153" />
<path
   style="fill:#231f20"
   d="M 138.86,55.867525 L 140.475,55.867525 L 140.475,87.692525 L 139.6675,91.255025 L 138.86,88.927525 L 138.86,55.867525 z "
   id="polygon155" />
</svg>